<svg width="65" height="64" viewBox="0 0 65 64" fill="none" xmlns="http://www.w3.org/2000/svg">
<ellipse cx="32.5" cy="32" rx="32.5" ry="32" fill="white"/>
<path d="M32 18C29.2311 18 26.5243 18.8211 24.222 20.3594C21.9197 21.8978 20.1253 24.0843 19.0657 26.6424C18.0061 29.2006 17.7288 32.0155 18.269 34.7313C18.8092 37.447 20.1426 39.9416 22.1005 41.8995C24.0584 43.8574 26.553 45.1908 29.2687 45.731C31.9845 46.2712 34.7994 45.9939 37.3576 44.9343C39.9157 43.8747 42.1022 42.0803 43.6406 39.778C45.1789 37.4757 46 34.7689 46 32C45.996 28.2882 44.5197 24.7296 41.8951 22.1049C39.2704 19.4803 35.7118 18.004 32 18ZM37.8333 33.1667H33.1667V37.8333H30.8333V33.1667H26.1667V30.8333H30.8333V26.1667H33.1667V30.8333H37.8333V33.1667Z" fill="#EC933A"/>
</svg>
