<svg width="46" height="47" viewBox="0 0 46 47" fill="none" xmlns="http://www.w3.org/2000/svg">
<g clip-path="url(#clip0_2460_10546)">
<path d="M30.6667 13.7083C30.6667 15.8723 28.9513 17.625 26.8333 17.625C24.7154 17.625 23 15.8723 23 13.7083C23 11.5444 24.7154 9.79167 26.8333 9.79167C28.9513 9.79167 30.6667 11.5444 30.6667 13.7083ZM43.125 35.25H40.25V32.3125C40.25 30.691 38.9639 29.375 37.375 29.375C35.7861 29.375 34.5 30.691 34.5 32.3125V35.25H31.625C30.0361 35.25 28.75 36.566 28.75 38.1875C28.75 39.809 30.0361 41.125 31.625 41.125H34.5V44.0625C34.5 45.684 35.7861 47 37.375 47C38.9639 47 40.25 45.684 40.25 44.0625V41.125H43.125C44.7139 41.125 46 39.809 46 38.1875C46 36.566 44.7139 35.25 43.125 35.25ZM30.6667 29.375L21.2309 19.7341C18.5035 16.9474 14.0798 16.9474 11.3524 19.7341L5.75 25.4583V10.7708C5.75 8.07029 7.9005 5.875 10.5417 5.875H29.7083C32.3495 5.875 34.5 8.07029 34.5 10.7708V22.5208C34.5 24.1423 35.7861 25.4583 37.375 25.4583C38.9639 25.4583 40.25 24.1423 40.25 22.5208V10.7708C40.25 4.83317 35.5216 0 29.7083 0H10.5417C4.72842 0 0 4.83317 0 10.7708V30.3542C0 36.2918 4.72842 41.125 10.5417 41.125H22.0417C23.6306 41.125 24.9167 39.809 24.9167 38.1875V37.2083C24.9167 33.9634 27.4907 31.3333 30.6667 31.3333V29.375Z" fill="#3A3D3D"/>
</g>
<defs>
<clipPath id="clip0_2460_10546">
<rect width="46" height="47" fill="white"/>
</clipPath>
</defs>
</svg>
