<svg width="489" height="478" viewBox="0 0 489 478" fill="none" xmlns="http://www.w3.org/2000/svg">
<g clip-path="url(#clip0_1479_9422)">
<path d="M372.623 113.591H370.114V41.6422C370.114 30.598 365.922 20.0061 358.46 12.1967C350.999 4.38729 340.879 0 330.326 0H184.687C174.134 0 164.014 4.38729 156.553 12.1967C149.091 20.0061 144.899 30.598 144.899 41.6422V436.358C144.899 447.402 149.091 457.994 156.553 465.803C164.014 473.613 174.134 478 184.687 478H330.329C340.881 478 351.001 473.613 358.463 465.803C365.924 457.994 370.116 447.402 370.116 436.358V164.805H372.623V113.591Z" fill="#3F3D56"/>
<path d="M362.004 38.8557V439.146C362.003 447.52 358.825 455.55 353.168 461.472C347.512 467.393 339.84 470.721 331.839 470.724H183.204C175.2 470.725 167.524 467.398 161.863 461.476C156.203 455.553 153.022 447.52 153.021 439.143V38.8557C153.023 30.4793 156.204 22.4469 161.865 16.5252C167.525 10.6034 175.201 7.27727 183.204 7.2782H201.234C200.349 9.55685 200.012 12.0282 200.253 14.4751C200.494 16.9219 201.306 19.2693 202.616 21.311C203.927 23.3526 205.697 25.026 207.771 26.184C209.844 27.3421 212.158 27.9493 214.508 27.9524H299.246C301.596 27.949 303.91 27.3415 305.983 26.1831C308.057 25.0247 309.827 23.351 311.137 21.309C312.448 19.267 313.259 16.9194 313.5 14.4724C313.74 12.0254 313.403 9.55396 312.517 7.27539H331.831C339.831 7.27688 347.503 10.6034 353.161 16.5236C358.819 22.4439 361.998 30.4732 362.002 38.8465L362.004 38.8557Z" fill="#E6E6E6"/>
<path d="M346.167 449.83H168.857C167.344 449.828 165.893 449.198 164.822 448.078C163.752 446.957 163.15 445.439 163.148 443.855V53.7228C163.15 52.1387 163.752 50.6199 164.822 49.4998C165.893 48.3796 167.344 47.7496 168.857 47.7478H346.167C347.681 47.7496 349.132 48.3796 350.202 49.4998C351.272 50.6199 351.874 52.1387 351.876 53.7228V443.855C351.874 445.439 351.272 446.957 350.202 448.078C349.132 449.198 347.681 449.828 346.167 449.83Z" fill="white"/>
<path d="M256.841 179.465C283.821 179.465 305.692 156.574 305.692 128.336C305.692 100.099 283.821 77.2073 256.841 77.2073C229.861 77.2073 207.989 100.099 207.989 128.336C207.989 156.574 229.861 179.465 256.841 179.465Z" fill="#E6E6E6"/>
<path d="M256.169 172.544C279.496 172.544 298.407 152.751 298.407 128.336C298.407 103.921 279.496 84.1292 256.169 84.1292C232.841 84.1292 213.931 103.921 213.931 128.336C213.931 152.751 232.841 172.544 256.169 172.544Z" fill="white"/>
<path d="M257.109 103.262C252.346 103.262 247.69 104.741 243.73 107.51C239.77 110.28 236.683 114.216 234.86 118.822C233.038 123.427 232.561 128.495 233.49 133.384C234.419 138.273 236.713 142.765 240.081 146.289C243.449 149.814 247.74 152.215 252.411 153.187C257.083 154.16 261.925 153.661 266.325 151.753C270.725 149.845 274.486 146.615 277.133 142.47C279.779 138.325 281.191 133.452 281.191 128.467C281.191 121.782 278.654 115.371 274.138 110.645C269.621 105.918 263.496 103.262 257.109 103.262ZM257.109 110.824C258.538 110.824 259.935 111.267 261.123 112.098C262.311 112.929 263.237 114.11 263.784 115.492C264.331 116.874 264.474 118.394 264.195 119.861C263.916 121.327 263.228 122.675 262.218 123.732C261.207 124.79 259.92 125.51 258.519 125.802C257.117 126.093 255.665 125.944 254.344 125.371C253.024 124.799 251.896 123.83 251.102 122.586C250.308 121.343 249.885 119.881 249.885 118.386C249.885 117.393 250.071 116.409 250.434 115.492C250.798 114.574 251.33 113.741 252.001 113.039C252.671 112.337 253.468 111.78 254.344 111.4C255.221 111.02 256.16 110.824 257.109 110.824ZM257.109 147.225C254.255 147.211 251.447 146.469 248.929 145.063C246.412 143.657 244.259 141.628 242.66 139.155C242.775 134.114 252.292 131.339 257.109 131.339C261.926 131.339 271.442 134.114 271.559 139.155C269.957 141.627 267.805 143.654 265.288 145.061C262.77 146.467 259.963 147.211 257.109 147.227V147.225Z" fill="#641E21"/>
<path d="M297.157 196.647H212.641V203.296H297.157V196.647Z" fill="#E6E6E6"/>
<path d="M307.697 213.923H201.333V220.572H307.697V213.923Z" fill="#E6E6E6"/>
<path d="M332.431 263.548H182.595V420.37H332.431V263.548Z" fill="#E6E6E6"/>
<path d="M328.473 266.866H184.977V417.053H328.473V266.866Z" fill="white"/>
<path d="M270.386 281.364H214.528V285.758H270.386V281.364Z" fill="#E6E6E6"/>
<path d="M300.785 294.264H214.528V298.658H300.785V294.264Z" fill="#641E21"/>
<path d="M285.722 306.549H215.425V310.943H285.722V306.549Z" fill="#E6E6E6"/>
<path d="M255.567 320.029H214.528V324.423H255.567V320.029Z" fill="#E6E6E6"/>
<path d="M276.466 333.196H214.528V337.59H276.466V333.196Z" fill="#641E21"/>
<path d="M270.386 346.445H214.528V350.839H270.386V346.445Z" fill="#E6E6E6"/>
<path d="M300.785 359.344H214.528V363.738H300.785V359.344Z" fill="#641E21"/>
<path d="M285.722 371.629H215.425V376.023H285.722V371.629Z" fill="#E6E6E6"/>
<path d="M255.567 385.11H214.528V389.504H255.567V385.11Z" fill="#E6E6E6"/>
<path d="M276.466 398.277H214.528V402.671H276.466V398.277Z" fill="#E6E6E6"/>
<path d="M465.282 340.944C464.883 341.676 464.349 342.318 463.712 342.834C463.076 343.35 462.348 343.729 461.571 343.951C460.794 344.172 459.983 344.232 459.184 344.125C458.386 344.019 457.615 343.748 456.915 343.33C456.216 342.912 455.603 342.353 455.11 341.687C454.617 341.02 454.255 340.259 454.043 339.446C453.831 338.633 453.775 337.784 453.876 336.948C453.978 336.112 454.236 335.305 454.636 334.573C454.65 334.548 454.663 334.523 454.677 334.498C454.849 334.198 455.042 333.911 455.255 333.641L450.097 295.162L449.942 294.009L448.895 286.157L448.74 285.025L449.311 285.053L459.305 285.531L461.985 285.658L462.321 292.821L464.221 333.092C465.214 334.087 465.859 335.402 466.051 336.826C466.244 338.25 465.973 339.701 465.282 340.944Z" fill="#FFB8B8"/>
<path d="M449.972 294.358L462.663 293.139C463.321 293.074 463.928 292.739 464.351 292.208C464.774 291.676 464.98 290.991 464.922 290.302L462.572 262.682C462.459 261.364 462.1 260.083 461.515 258.911C460.929 257.739 460.129 256.7 459.16 255.851C458.19 255.003 457.071 254.363 455.865 253.968C454.659 253.572 453.391 253.429 452.132 253.547C450.874 253.664 449.65 254.04 448.53 254.653C447.41 255.266 446.417 256.103 445.606 257.118C444.796 258.132 444.184 259.304 443.806 260.566C443.429 261.828 443.292 263.155 443.404 264.473C443.421 264.663 443.442 264.852 443.468 265.041L447.274 292.133C447.361 292.753 447.659 293.321 448.112 293.731C448.566 294.141 449.145 294.368 449.744 294.369C449.82 294.37 449.897 294.366 449.972 294.358Z" fill="#641E21"/>
<path d="M459.591 272.044C460.874 268.239 460.934 264.099 459.76 260.255C458.587 256.411 456.244 253.075 453.09 250.754C448.305 247.327 441.756 246.097 434.704 254.883C420.6 272.457 416.906 291.788 416.906 291.788L445.786 296.708C445.786 296.708 455.607 284.143 459.591 272.044Z" fill="#641E21"/>
<path d="M412.882 469.996H404.647L400.73 436.756H412.883L412.882 469.996Z" fill="#FFB8B8"/>
<path d="M388.77 477.998H414.648V467.533H398.768C396.116 467.533 393.573 468.636 391.698 470.598C389.823 472.561 388.77 475.222 388.77 477.998Z" fill="#2F2E41"/>
<path d="M480.578 462.48L472.76 465.185L459.072 434.91L470.611 430.918L480.578 462.48Z" fill="#FFB8B8"/>
<path d="M460.081 477.998L484.652 469.498L481.515 459.562L466.437 464.778C465.19 465.209 464.037 465.893 463.043 466.791C462.049 467.689 461.233 468.782 460.643 470.01C460.053 471.238 459.7 472.575 459.603 473.945C459.507 475.316 459.669 476.693 460.081 477.998Z" fill="#2F2E41"/>
<path d="M441.462 242.038C450.572 242.038 457.958 234.308 457.958 224.773C457.958 215.238 450.572 207.508 441.462 207.508C432.351 207.508 424.966 215.238 424.966 224.773C424.966 234.308 432.351 242.038 441.462 242.038Z" fill="#FFB8B8"/>
<path d="M427.019 460.743L434.665 407.921C434.747 407.357 435.013 406.841 435.418 406.46C435.823 406.079 436.342 405.857 436.887 405.832C437.431 405.807 437.966 405.98 438.402 406.323C438.837 406.666 439.145 407.156 439.274 407.71L450.918 458.049C451.102 458.82 451.554 459.492 452.186 459.932C452.819 460.372 453.585 460.549 454.336 460.429L486.456 455.026C486.882 454.954 487.289 454.788 487.648 454.538C488.008 454.289 488.312 453.962 488.54 453.579C488.769 453.196 488.917 452.766 488.973 452.319C489.03 451.871 488.995 451.416 488.869 450.984L446.986 306.459C446.867 306.049 446.853 305.612 446.945 305.194L448.339 298.868C448.493 298.182 448.422 297.462 448.139 296.823C447.855 296.184 447.376 295.663 446.776 295.343C441.073 292.297 426.628 285.965 415.727 292.901C415.373 293.127 415.066 293.426 414.826 293.78C414.586 294.133 414.417 294.534 414.33 294.959L381.611 455.911C381.522 456.348 381.523 456.801 381.613 457.238C381.704 457.676 381.882 458.088 382.136 458.448C382.39 458.808 382.714 459.107 383.086 459.327C383.459 459.546 383.872 459.68 384.298 459.72L423.76 463.419C423.85 463.427 423.94 463.431 424.029 463.431C424.752 463.43 425.45 463.158 425.998 462.665C426.546 462.172 426.907 461.49 427.017 460.743L427.019 460.743Z" fill="#2F2E41"/>
<path d="M452.4 212.575C451.157 211.792 450.053 210.788 449.139 209.608C448.688 209.012 448.391 208.305 448.277 207.554C448.163 206.803 448.236 206.033 448.488 205.32C449.321 203.396 451.798 202.79 453.717 203.443C455.637 204.096 457.119 205.672 458.521 207.191C459.756 208.527 461.027 209.927 461.611 211.684C462.194 213.441 461.896 215.668 460.438 216.735C459.008 217.781 456.951 217.352 455.576 216.229C454.2 215.106 453.348 213.439 452.536 211.822L452.4 212.575Z" fill="#2F2E41"/>
<path d="M457.987 207.656C458.079 202.791 463.376 199.302 467.952 200.165C472.528 201.027 476.045 205.11 477.805 209.613C481.525 219.127 478.733 229.984 475.149 239.558C471.565 249.133 467.129 258.846 467.653 269.112C468.007 274.661 469.786 280.006 472.802 284.584C475.818 289.162 479.96 292.803 484.789 295.121C479.626 297.571 473.454 295.04 469.114 291.221C459.478 282.74 455.758 267.64 460.275 255.34C462.503 249.273 466.429 244.083 469.494 238.43C472.56 232.778 474.809 226.116 473.226 219.831C471.643 213.546 464.908 208.458 459.15 210.89L457.987 207.656Z" fill="#2F2E41"/>
<path d="M440.473 232.434C441.91 229.891 443.361 226.552 440.733 224.329C440.162 223.867 439.508 223.53 438.81 223.337C438.112 223.144 437.385 223.098 436.67 223.204C433.707 223.578 430.479 223.732 427.611 222.605C426.535 222.217 425.545 221.608 424.698 220.812C423.852 220.016 423.167 219.05 422.684 217.972C421.207 214.3 423.058 209.837 426.153 207.516C428.047 206.148 430.285 205.395 432.586 205.353C434.887 205.31 437.149 205.979 439.088 207.277C443.097 205.423 447.962 206.248 451.605 208.799C455.248 211.351 457.74 215.437 459.094 219.8C460.341 223.556 460.556 227.602 459.714 231.48C459.036 234.177 457.748 236.663 455.957 238.729C454.166 240.794 451.927 242.377 449.427 243.344C448.454 243.746 447.397 243.873 446.361 243.713C445.326 243.553 444.35 243.11 443.529 242.431C443.529 242.431 441.256 240.353 440.544 237.852C439.997 235.928 439.705 233.793 440.473 232.434Z" fill="#2F2E41"/>
<path d="M391.537 247.84C391.619 248.219 391.673 248.605 391.697 248.993L420.548 266.413L427.561 262.188L435.037 272.431L423.317 281.174C422.37 281.881 421.229 282.246 420.067 282.217C418.904 282.187 417.782 281.763 416.869 281.009L387.116 256.444C385.773 256.965 384.31 257.046 382.922 256.675C381.535 256.304 380.288 255.5 379.347 254.369C378.407 253.239 377.818 251.835 377.658 250.346C377.499 248.856 377.776 247.351 378.454 246.03C379.132 244.71 380.178 243.637 381.452 242.953C382.727 242.27 384.171 242.01 385.591 242.206C387.01 242.402 388.34 243.047 389.401 244.053C390.462 245.06 391.206 246.38 391.533 247.84H391.537Z" fill="#FFB8B8"/>
<path d="M421.513 267.238L430.838 279.887C431.104 280.246 431.44 280.542 431.824 280.753C432.208 280.964 432.631 281.087 433.064 281.111C433.498 281.136 433.931 281.063 434.335 280.897C434.739 280.731 435.104 280.476 435.405 280.149L445.961 268.676C447.748 267.285 448.933 265.208 449.256 262.902C449.579 260.597 449.013 258.251 447.684 256.381C446.355 254.512 444.37 253.272 442.167 252.934C439.964 252.595 437.723 253.187 435.937 254.578C435.846 254.65 435.756 254.723 435.667 254.797L422.428 262.545C422.049 262.767 421.72 263.072 421.464 263.439C421.208 263.806 421.03 264.227 420.943 264.672C420.856 265.117 420.862 265.577 420.96 266.02C421.058 266.463 421.246 266.878 421.511 267.238L421.513 267.238Z" fill="#641E21"/>
<path d="M83.0815 297.384C82.752 297.541 82.435 297.726 82.1338 297.937L52.01 284.48L50.9353 276.175L38.8984 276.098L39.6097 295.148L79.3701 306.154C79.4538 306.443 79.5543 306.727 79.6709 307.003C80.2458 308.287 81.1703 309.365 82.3284 310.1C83.4864 310.836 84.8264 311.197 86.1799 311.139C87.5335 311.08 88.8403 310.604 89.9362 309.771C91.0321 308.937 91.8683 307.783 92.3398 306.454C92.8113 305.125 92.8969 303.679 92.5861 302.299C92.2752 300.919 91.5817 299.666 90.5926 298.697C89.6035 297.728 88.363 297.087 87.0267 296.854C85.6905 296.62 84.3182 296.805 83.0821 297.386L83.0815 297.384Z" fill="#A0616A"/>
<path d="M34.5209 469.997H42.755L46.672 436.756H34.5195L34.5209 469.997Z" fill="#A0616A"/>
<path d="M48.6358 467.535H32.7559V477.996H58.6344C58.6344 475.22 57.5809 472.559 55.7059 470.596C53.8308 468.634 51.2876 467.531 48.6358 467.531V467.535Z" fill="#2F2E41"/>
<path d="M2.49707 467.562L10.6909 468.405L17.7034 435.727L5.60939 434.484L2.49707 467.562Z" fill="#A0616A"/>
<path d="M16.7804 466.561L0.979853 464.933L0 475.345L25.7484 477.999C25.8771 476.632 25.7472 475.251 25.3661 473.937C24.985 472.622 24.3603 471.398 23.5274 470.336C22.6946 469.274 21.6701 468.394 20.5123 467.746C19.3545 467.099 18.0869 466.696 16.7804 466.561Z" fill="#2F2E41"/>
<path d="M32.2283 240.918C41.3387 240.918 48.7241 233.189 48.7241 223.654C48.7241 214.118 41.3387 206.389 32.2283 206.389C23.1179 206.389 15.7324 214.118 15.7324 223.654C15.7324 233.189 23.1179 240.918 32.2283 240.918Z" fill="#A0616A"/>
<path d="M44.5947 463.275C45.3026 463.277 45.9883 463.017 46.5309 462.541C47.0734 462.065 47.4379 461.404 47.56 460.674C51.8188 435.917 65.753 354.952 66.0862 352.707C66.0936 352.656 66.0972 352.603 66.0969 352.551V346.514C66.0975 346.295 66.0319 346.08 65.9095 345.901L64.0693 343.204C63.9818 343.074 63.867 342.967 63.7338 342.89C63.6006 342.814 63.4525 342.771 63.3009 342.764C52.8087 342.25 18.4469 340.74 16.7867 342.911C15.1197 345.09 15.7121 351.703 15.8464 353.005L15.8397 353.141L0.402314 456.473C0.281388 457.297 0.475401 458.138 0.942365 458.814C1.40933 459.489 2.11168 459.945 2.89741 460.083L12.5393 461.745C13.2574 461.866 13.993 461.713 14.6124 461.314C15.2317 460.915 15.6937 460.296 15.9142 459.571C18.8963 449.598 28.8961 416.046 32.3617 403.064C32.3839 402.982 32.4336 402.911 32.5016 402.865C32.5697 402.819 32.6515 402.8 32.7319 402.812C32.8123 402.824 32.8858 402.866 32.9389 402.93C32.992 402.994 33.021 403.077 33.0206 403.162C32.8473 415.537 32.4289 447.111 32.2818 458.017L32.2663 459.191C32.2599 459.987 32.5388 460.755 33.0478 461.346C33.5568 461.936 34.2589 462.305 35.0153 462.38L44.3127 463.261C44.4064 463.271 44.5006 463.275 44.5947 463.275Z" fill="#2F2E41"/>
<path d="M42.6975 247.708C45.5761 249.499 47.2988 252.79 48.2874 256.143C50.1174 262.344 51.219 268.755 51.5676 275.234L52.6127 294.635L65.5449 346.069C54.3361 355.996 47.871 353.739 32.7822 345.62C17.6934 337.501 15.97 348.327 15.97 348.327L12.9531 304.564L8.64258 256.741C9.61032 255.522 10.7056 254.42 11.908 253.456C15.8923 250.212 20.5279 247.958 25.4656 246.862C30.4033 245.766 35.5142 245.857 40.4133 247.129L42.6975 247.708Z" fill="#EC933A"/>
<path d="M46.8984 307.771C46.5508 307.907 46.214 308.072 45.891 308.263L16.1043 292.658L15.61 284.204L3.32323 283.318L2.66504 302.588L42.4697 316.365C42.7945 317.825 43.5362 319.147 44.5963 320.155C45.6564 321.163 46.9846 321.809 48.4042 322.007C49.8237 322.206 51.2674 321.947 52.5431 321.266C53.8188 320.585 54.866 319.513 55.5455 318.193C56.2251 316.874 56.5046 315.369 56.347 313.879C56.1894 312.39 55.6021 310.985 54.6633 309.853C53.7245 308.721 52.4786 307.915 51.0914 307.543C49.7042 307.17 48.2415 307.248 46.8978 307.767L46.8984 307.771Z" fill="#A0616A"/>
<path d="M8.85795 256.956C1.52982 259.663 0.238281 288.992 0.238281 288.992C8.85997 284.029 19.2057 292.15 19.2057 292.15C19.2057 292.15 21.361 284.48 23.9474 274.554C24.7284 271.762 24.8218 268.809 24.2189 265.969C23.6161 263.129 22.3364 260.495 20.4993 258.312C20.4993 258.312 16.1868 254.248 8.85795 256.956Z" fill="#2F2E41"/>
<path d="M17.4404 228.22C19.4956 226.499 22.2996 229.626 22.2996 229.626L23.9438 214.139C23.9438 214.139 34.2197 215.428 40.7976 213.709C47.3755 211.991 48.4025 219.948 48.4025 219.948C48.7415 216.734 48.8103 213.494 48.608 210.268C48.1969 206.396 42.8535 202.523 33.399 199.942C23.9445 197.361 19.012 208.547 19.012 208.547C12.4315 211.988 15.3826 229.941 17.4404 228.22Z" fill="#2F2E41"/>
</g>
<defs>
<clipPath id="clip0_1479_9422">
<rect width="489" height="478" fill="white"/>
</clipPath>
</defs>
</svg>
