<svg width="790" height="656" viewBox="0 0 790 656" fill="none" xmlns="http://www.w3.org/2000/svg">
<path d="M554.087 151.561C569.811 142.657 588.184 139.527 605.995 142.716C623.807 145.905 639.924 155.21 651.531 169.006C663.138 182.802 669.498 200.211 669.5 218.191C669.5 234.096 664.525 249.607 655.264 262.579C646.291 275.146 633.724 284.728 619.211 290.093L617.801 290.599C617.534 290.691 617.266 290.781 616.999 290.87V212.623H515.332C515.343 212.47 515.354 212.318 515.366 212.166H616.999V196.345C616.999 195.246 616.559 194.192 615.778 193.416C614.997 192.64 613.938 192.204 612.835 192.203H519.676C519.683 192.184 519.689 192.164 519.696 192.145L519.967 191.432L519.97 191.423C526.287 174.573 538.363 160.464 554.087 151.561Z" fill="#3A3D3D" stroke="black"/>
<path d="M612.835 191.247H255.92C254.56 191.249 253.256 191.786 252.294 192.742C251.333 193.697 250.792 194.993 250.79 196.345V436.656C250.792 438.007 251.333 439.303 252.294 440.258C253.256 441.214 254.56 441.752 255.92 441.753H612.835C614.195 441.752 615.499 441.214 616.461 440.258C617.423 439.303 617.964 438.007 617.965 436.656V196.345C617.964 194.993 617.423 193.697 616.461 192.742C615.499 191.786 614.195 191.249 612.835 191.247ZM616.5 436.656C616.499 437.621 616.113 438.547 615.426 439.23C614.739 439.913 613.807 440.296 612.835 440.297H255.92C254.948 440.296 254.017 439.913 253.33 439.23C252.642 438.547 252.256 437.621 252.256 436.656V196.345C252.256 195.379 252.642 194.453 253.33 193.77C254.017 193.088 254.948 192.704 255.92 192.704H612.835C613.807 192.704 614.739 193.088 615.426 193.77C616.113 194.453 616.499 195.379 616.5 196.345V436.656Z" fill="black"/>
<path d="M617.232 211.666H251.522V213.122H617.232V211.666Z" fill="#3F3D56"/>
<path d="M263.981 206.539C266.41 206.539 268.379 204.583 268.379 202.17C268.379 199.757 266.41 197.801 263.981 197.801C261.553 197.801 259.584 199.757 259.584 202.17C259.584 204.583 261.553 206.539 263.981 206.539Z" fill="#3F3D56"/>
<path d="M276.624 206.539C279.052 206.539 281.021 204.583 281.021 202.17C281.021 199.757 279.052 197.801 276.624 197.801C274.195 197.801 272.227 199.757 272.227 202.17C272.227 204.583 274.195 206.539 276.624 206.539Z" fill="#3F3D56"/>
<path d="M289.266 206.539C291.695 206.539 293.664 204.583 293.664 202.17C293.664 199.757 291.695 197.801 289.266 197.801C286.838 197.801 284.869 199.757 284.869 202.17C284.869 204.583 286.838 206.539 289.266 206.539Z" fill="#3F3D56"/>
<path d="M351.195 241.494H286.701C285.341 241.495 284.037 242.033 283.076 242.988C282.114 243.944 281.573 245.24 281.571 246.591V310.674C281.573 312.026 282.114 313.321 283.076 314.277C284.037 315.233 285.341 315.77 286.701 315.772H351.195C352.556 315.77 353.86 315.233 354.821 314.277C355.783 313.321 356.324 312.026 356.326 310.674V246.591C356.324 245.24 355.783 243.944 354.821 242.988C353.86 242.033 352.556 241.495 351.195 241.494ZM354.86 310.674C354.859 311.64 354.473 312.566 353.786 313.248C353.099 313.931 352.167 314.315 351.195 314.315H286.701C285.73 314.315 284.798 313.931 284.111 313.248C283.424 312.566 283.037 311.64 283.037 310.674V246.591C283.037 245.626 283.424 244.7 284.111 244.017C284.798 243.334 285.73 242.95 286.701 242.95H351.195C352.167 242.95 353.099 243.334 353.786 244.017C354.473 244.7 354.859 245.626 354.86 246.591V310.674Z" fill="#3F3D56"/>
<path d="M466.991 241.858H402.497C401.234 241.86 400.024 242.36 399.131 243.247C398.239 244.134 397.736 245.337 397.733 246.591V310.674C397.736 311.929 398.239 313.131 399.131 314.019C400.024 314.906 401.234 315.405 402.497 315.408H466.991C468.254 315.405 469.464 314.906 470.357 314.019C471.25 313.131 471.752 311.929 471.755 310.674V246.591C471.752 245.337 471.25 244.134 470.357 243.247C469.464 242.36 468.254 241.86 466.991 241.858Z" fill="#641E21"/>
<path d="M582.787 241.858H518.293C517.03 241.86 515.82 242.36 514.927 243.247C514.034 244.134 513.532 245.337 513.529 246.591V310.674C513.532 311.929 514.034 313.131 514.927 314.019C515.82 314.906 517.03 315.405 518.293 315.408H582.787C584.05 315.405 585.26 314.906 586.153 314.019C587.046 313.131 587.548 311.929 587.551 310.674V246.591C587.548 245.337 587.046 244.134 586.153 243.247C585.26 242.36 584.05 241.86 582.787 241.858Z" fill="#E6E6E6"/>
<path d="M351.195 337.982H286.701C285.439 337.985 284.228 338.484 283.335 339.371C282.443 340.259 281.94 341.461 281.938 342.716V406.799C281.94 408.053 282.443 409.256 283.335 410.143C284.228 411.03 285.439 411.53 286.701 411.532H351.195C352.458 411.53 353.668 411.03 354.561 410.143C355.454 409.256 355.956 408.053 355.959 406.799V342.716C355.956 341.461 355.454 340.259 354.561 339.371C353.668 338.484 352.458 337.985 351.195 337.982Z" fill="#E6E6E6"/>
<path d="M466.991 337.982H402.497C401.234 337.985 400.024 338.484 399.131 339.371C398.239 340.259 397.736 341.461 397.733 342.716V406.799C397.736 408.053 398.239 409.256 399.131 410.143C400.024 411.03 401.234 411.53 402.497 411.532H466.991C468.254 411.53 469.464 411.03 470.357 410.143C471.25 409.256 471.752 408.053 471.755 406.799V342.716C471.752 341.461 471.25 340.259 470.357 339.371C469.464 338.484 468.254 337.985 466.991 337.982Z" fill="#E1D6C4"/>
<path d="M582.787 337.982H518.293C517.03 337.985 515.82 338.484 514.927 339.371C514.034 340.259 513.532 341.461 513.529 342.716V406.799C513.532 408.053 514.034 409.256 514.927 410.143C515.82 411.03 517.03 411.53 518.293 411.532H582.787C584.05 411.53 585.26 411.03 586.153 410.143C587.046 409.256 587.548 408.053 587.551 406.799V342.716C587.548 341.461 587.046 340.259 586.153 339.371C585.26 338.484 584.05 337.985 582.787 337.982Z" fill="#E6E6E6"/>
<path d="M335.438 348.541H270.944C269.681 348.54 268.471 348.041 267.578 347.153C266.684 346.266 266.182 345.063 266.181 343.808V279.725C266.182 278.47 266.684 277.267 267.578 276.38C268.471 275.492 269.681 274.993 270.944 274.992H335.438C336.701 274.993 337.912 275.492 338.805 276.38C339.698 277.267 340.201 278.47 340.202 279.725V343.808C340.201 345.063 339.698 346.266 338.805 347.153C337.912 348.041 336.701 348.54 335.438 348.541Z" fill="#A14141"/>
<path d="M236.59 499.346L245.179 496.726L239.099 462.56L226.422 466.425L236.59 499.346Z" fill="#FFB6B6"/>
<path d="M264.192 499.601L237.196 507.833L233.996 497.469L250.561 492.417C251.931 492 253.37 491.854 254.796 491.989C256.223 492.124 257.608 492.537 258.874 493.204C260.14 493.871 261.261 494.779 262.173 495.877C263.086 496.974 263.772 498.24 264.192 499.601Z" fill="#641E21"/>
<path d="M163.302 499.543L172.287 499.542L176.562 465.106L163.301 465.107L163.302 499.543Z" fill="#FFB6B6"/>
<path d="M189.616 507.832L161.378 507.833L161.377 496.992L178.705 496.991C180.138 496.991 181.557 497.271 182.881 497.816C184.204 498.361 185.407 499.159 186.42 500.166C187.433 501.173 188.237 502.368 188.786 503.683C189.334 504.998 189.616 506.408 189.616 507.832Z" fill="#641E21"/>
<path d="M162.658 399.721C161.919 399.078 161.332 398.282 160.937 397.389C160.542 396.496 160.349 395.528 160.371 394.553C160.393 393.577 160.63 392.619 161.066 391.745C161.501 390.87 162.124 390.102 162.891 389.493L169.857 302.329L184.024 305.846L172.681 390.871C173.625 392.219 174.04 393.864 173.845 395.495C173.65 397.126 172.86 398.629 171.625 399.72C170.389 400.811 168.794 401.413 167.141 401.413C165.489 401.413 163.893 400.811 162.658 399.721Z" fill="#FFB6B6"/>
<path d="M191.029 268.522C200.97 268.522 209.029 260.515 209.029 250.637C209.029 240.759 200.97 232.751 191.029 232.751C181.087 232.751 173.028 240.759 173.028 250.637C173.028 260.515 181.087 268.522 191.029 268.522Z" fill="#FFB6B6"/>
<path d="M175.376 299.648C171.315 294.108 171.19 286.477 175.565 281.178C178.42 277.719 183.196 274.952 191.17 274.952C212.423 274.952 220.485 291.701 220.485 291.701C220.485 291.701 229.28 307.721 224.149 322.286C219.019 336.85 219.019 338.306 219.019 338.306L185.307 335.394C185.307 335.394 190.994 320.952 175.376 299.648Z" fill="#3A3D3D"/>
<path d="M164.98 314.146L172.243 290.537C172.73 288.956 173.559 287.5 174.674 286.273C175.789 285.046 177.161 284.077 178.694 283.435C180.227 282.793 181.884 282.493 183.546 282.557C185.209 282.621 186.837 283.046 188.315 283.804C190.881 285.124 192.845 287.364 193.809 290.07C194.774 292.776 194.667 295.745 193.51 298.376L184.277 319.269L164.98 314.146Z" fill="#3A3D3D"/>
<path d="M218.286 334.665L246.869 481.764L231.478 486.134L194.101 389.281L177.245 488.318L161.121 490.503C161.121 490.503 154.048 359.464 185.306 335.393L218.286 334.665Z" fill="#A14141"/>
<path d="M259.425 327.771C259.164 328.079 258.928 328.408 258.719 328.753L222.416 330.502L215.425 309.297L203.287 315.029L214.711 346.613L259.609 337.888C260.664 339.033 262.045 339.831 263.568 340.177C265.09 340.522 266.683 340.399 268.134 339.824C269.584 339.248 270.824 338.248 271.689 336.955C272.553 335.662 273.001 334.139 272.972 332.587C272.944 331.035 272.441 329.529 271.53 328.268C270.619 327.007 269.343 326.052 267.873 325.529C266.402 325.006 264.806 324.941 263.297 325.341C261.788 325.741 260.437 326.589 259.425 327.771Z" fill="#FFB6B6"/>
<path d="M198.208 293.815C198.013 292.173 198.184 290.509 198.708 288.94C199.232 287.371 200.097 285.936 201.241 284.735C202.385 283.535 203.78 282.599 205.328 281.993C206.876 281.387 208.539 281.127 210.199 281.23C213.083 281.414 215.787 282.68 217.765 284.773C219.744 286.865 220.847 289.626 220.852 292.497V315.315L201.111 318.333L198.208 293.815Z" fill="#3A3D3D"/>
<path d="M194.987 268.684C192.285 268.673 190.201 265.846 190.322 263.165C190.443 260.483 192.256 258.123 194.44 256.543C196.624 254.963 199.185 254 201.621 252.838C204.056 251.677 206.471 250.227 207.974 247.997C208.883 246.537 209.425 244.882 209.555 243.171C209.686 241.459 209.401 239.742 208.724 238.163C207.325 235.005 204.922 232.389 201.884 230.718C197.371 228.093 192.029 227.253 186.921 228.367C181.813 229.48 177.315 232.465 174.322 236.726L171.238 245.069C168.096 248.824 167.597 254.4 169.529 258.891C171.461 263.381 175.574 266.76 180.215 268.366C184.925 269.869 189.965 270.02 194.757 268.799" fill="#2F2E41"/>
<path d="M178.536 240.896C177.21 238.784 174.913 237.442 172.537 236.654C169.785 235.741 166.858 235.471 163.984 235.866C161.11 236.261 158.366 237.31 155.967 238.931C153.567 240.552 151.577 242.701 150.15 245.212C148.723 247.722 147.899 250.526 147.742 253.405C147.49 258.003 148.939 262.499 149.79 267.026C150.642 271.553 150.811 276.552 148.299 280.422C146.386 283.37 143.196 285.226 140.046 286.81C137.422 288.131 134.583 289.371 131.653 289.108C128.723 288.844 125.778 286.538 125.855 283.616C124.874 285.711 124.212 287.94 123.89 290.228C123.684 292.527 124.254 295.006 125.924 296.609C128.353 298.938 132.2 298.768 135.537 298.265C142.761 297.177 150.076 295.137 155.783 290.604C161.49 286.071 165.277 278.607 163.774 271.502C163.147 268.534 161.671 265.825 160.479 263.033C159.286 260.242 158.356 257.188 158.903 254.204C159.228 252.667 159.887 251.22 160.836 249.964C161.785 248.708 163 247.674 164.395 246.936C167.215 245.478 170.443 244.992 173.572 245.553C175.624 245.887 178.185 246.407 179.402 244.732C179.724 244.201 179.889 243.591 179.877 242.971C179.865 242.351 179.676 241.748 179.333 241.23C178.631 240.206 177.737 239.326 176.7 238.638" fill="#2F2E41"/>
<path d="M0 655.663H588.996C588.996 655.663 590.024 599.132 560.924 571.795C528.49 541.325 500.119 559.734 445 553.5C387.042 546.943 385 504.336 336 490C299.332 479.272 240.5 516.163 202 509.163C150.453 499.79 127.461 508.711 89 529.663C31.7369 560.859 0 655.663 0 655.663Z" fill="#E1D6C4"/>
<path d="M3 3V241C3 241 41.683 188.467 78.5 175.5C115.548 162.451 143.209 195.68 179 179.5C210.741 165.151 227.899 146.517 239 113.5C253.06 71.6823 215.5 3 215.5 3H3Z" fill="#E1D6C4" stroke="#E1D6C4" stroke-width="6"/>
<path d="M786.019 426C786.019 426 720.275 447.601 701.019 482.5C687.062 507.796 675.499 529.968 689.019 555.5C700.304 576.809 723.709 571.745 741.519 588C764.6 609.065 786.019 654.5 786.019 654.5V426Z" fill="#E1D6C4" stroke="#E1D6C4" stroke-width="6"/>
</svg>
