<svg width="19" height="19" viewBox="0 0 19 19" fill="none" xmlns="http://www.w3.org/2000/svg">
<g clip-path="url(#clip0_492_2613)">
<path d="M19 9.5C19 12.0196 17.9991 14.4359 16.2175 16.2175C14.4359 17.9991 12.0196 19 9.5 19C6.98044 19 4.56408 17.9991 2.78249 16.2175C1.00089 14.4359 0 12.0196 0 9.5C0 6.98044 1.00089 4.56408 2.78249 2.78249C4.56408 1.00089 6.98044 0 9.5 0C12.0196 0 14.4359 1.00089 16.2175 2.78249C17.9991 4.56408 19 6.98044 19 9.5ZM10.0938 5.34375C10.0938 5.18628 10.0312 5.03525 9.91985 4.92391C9.8085 4.81256 9.65747 4.75 9.5 4.75C9.34253 4.75 9.19151 4.81256 9.08016 4.92391C8.96881 5.03525 8.90625 5.18628 8.90625 5.34375V12.2229L6.35787 9.67338C6.24638 9.56188 6.09517 9.49925 5.9375 9.49925C5.77983 9.49925 5.62862 9.56188 5.51713 9.67338C5.40563 9.78487 5.343 9.93608 5.343 10.0938C5.343 10.2514 5.40563 10.4026 5.51713 10.5141L9.07963 14.0766C9.13478 14.1319 9.2003 14.1758 9.27244 14.2057C9.34457 14.2357 9.4219 14.2511 9.5 14.2511C9.5781 14.2511 9.65543 14.2357 9.72756 14.2057C9.7997 14.1758 9.86522 14.1319 9.92037 14.0766L13.4829 10.5141C13.5944 10.4026 13.657 10.2514 13.657 10.0938C13.657 9.93608 13.5944 9.78487 13.4829 9.67338C13.3714 9.56188 13.2202 9.49925 13.0625 9.49925C12.9048 9.49925 12.7536 9.56188 12.6421 9.67338L10.0938 12.2229V5.34375Z" fill="#EC933A"/>
</g>
<defs>
<clipPath id="clip0_492_2613">
<rect width="19" height="19" fill="white"/>
</clipPath>
</defs>
</svg>
