<svg width="38" height="37" viewBox="0 0 38 37" fill="none" xmlns="http://www.w3.org/2000/svg">
<g clip-path="url(#clip0_3123_9243)">
<path d="M14.6667 6H10.875C8.18292 6 6 8.09896 6 10.6875V14.3333C6 15.4844 6.96958 16.4167 8.16667 16.4167H14.6667C15.8638 16.4167 16.8333 15.4844 16.8333 14.3333V8.08333C16.8333 6.93229 15.8638 6 14.6667 6ZM21.1667 16.4167H27.6667C28.8638 16.4167 29.8333 15.4844 29.8333 14.3333V10.6875C29.8333 8.09896 27.6504 6 24.9583 6H21.1667C19.9696 6 19 6.93229 19 8.08333V14.3333C19 15.4844 19.9696 16.4167 21.1667 16.4167ZM14.6667 18.5H8.16667C6.96958 18.5 6 19.4323 6 20.5833V24.2292C6 26.8177 8.18292 28.9167 10.875 28.9167H14.6667C15.8638 28.9167 16.8333 27.9844 16.8333 26.8333V20.5833C16.8333 19.4323 15.8638 18.5 14.6667 18.5ZM31.6826 29.2219L28.9309 26.576C29.4986 25.7521 29.8333 24.7677 29.8333 23.7083C29.8333 20.8365 27.4034 18.5 24.4167 18.5C21.4299 18.5 19 20.8365 19 23.7083C19 26.5802 21.4299 28.9167 24.4167 28.9167C25.5184 28.9167 26.5422 28.5948 27.3991 28.049L30.1507 30.6948C30.362 30.8979 30.6393 31 30.9167 31C31.194 31 31.4713 30.8979 31.6826 30.6948C32.1062 30.2875 32.1062 29.6292 31.6826 29.2219Z" fill="white"/>
</g>
<rect x="3" y="3" width="32" height="31" stroke="#EC933A" stroke-width="6"/>
<defs>
<clipPath id="clip0_3123_9243">
<rect x="6" y="6" width="26" height="25" fill="white"/>
</clipPath>
</defs>
</svg>
