<svg width="51" height="43" viewBox="0 0 51 43" fill="none" xmlns="http://www.w3.org/2000/svg">
<g clip-path="url(#clip0_1303_9427)">
<path d="M25.5 16.125C20.2279 16.125 15.9375 12.5076 15.9375 8.0625C15.9375 3.61737 20.2279 0 25.5 0C30.7721 0 35.0625 3.61737 35.0625 8.0625C35.0625 12.5076 30.7721 16.125 25.5 16.125ZM48.7093 17.3451C47.2515 16.3203 45.3539 15.8975 43.3628 16.2056L34.6035 18.0027C30.5596 18.6226 27.625 21.5878 27.625 25.0547V39.0332L25.5 39.3593L23.375 39.0332V25.0547C23.375 21.5878 20.4404 18.6244 16.5176 18.026L7.514 16.1841C5.64188 15.8939 3.74425 16.3221 2.29075 17.3451C0.833 18.37 0 19.8732 0 21.4713V39.0906L25.5 43L51 39.0906V21.4713C51 19.8732 50.1649 18.37 48.7093 17.3451Z" fill="white"/>
</g>
<defs>
<clipPath id="clip0_1303_9427">
<rect width="51" height="43" fill="white"/>
</clipPath>
</defs>
</svg>
