<svg width="283" height="186" viewBox="0 0 283 186" fill="none" xmlns="http://www.w3.org/2000/svg">
<path d="M258.126 185.45L250.043 160.724C250.043 160.724 258.934 169.736 258.934 177.131L257.338 160.03C257.338 160.03 261.897 166.27 261.441 175.744C260.985 185.219 258.126 185.45 258.126 185.45Z" fill="#E1D6C4"/>
<path d="M84.5492 162.935L76.6606 138.804C76.6606 138.804 85.3375 147.599 85.3375 154.816L83.7801 138.127C83.7801 138.127 88.2298 144.216 87.7848 153.463C87.3398 162.71 84.5492 162.935 84.5492 162.935Z" fill="#E1D6C4"/>
<path d="M207.674 174.072C207.688 189.946 176.628 185.063 138.604 185.096C100.581 185.13 69.9911 190.066 69.9775 174.192C69.964 158.318 101.012 154.838 139.036 154.805C177.06 154.772 207.661 158.197 207.674 174.072Z" fill="#E1D6C4"/>
<path d="M181.025 152.633H176.054L173.688 133.196H181.025V152.633Z" fill="#A0616A"/>
<path d="M171.951 151.193H182.091V157.312H166.467V156.753C166.467 155.278 167.045 153.864 168.074 152.822C169.102 151.779 170.497 151.193 171.951 151.193Z" fill="#2F2E41"/>
<path d="M217.565 181.321H212.594L210.228 161.884H217.565V181.321Z" fill="#A0616A"/>
<path d="M208.491 179.881H218.63V186H203.006V185.44C203.006 183.966 203.584 182.552 204.613 181.509C205.641 180.467 207.036 179.881 208.491 179.881Z" fill="#2F2E41"/>
<path d="M240.495 123.578C240.838 123.155 241.086 122.662 241.222 122.131C241.357 121.601 241.375 121.047 241.276 120.509C241.178 119.97 240.963 119.461 240.649 119.015C240.335 118.57 239.928 118.2 239.457 117.931L227.912 70.2539L220.529 73.4736L234.262 119.573C233.869 120.405 233.791 121.353 234.041 122.24C234.292 123.126 234.855 123.888 235.624 124.382C236.392 124.875 237.312 125.066 238.21 124.918C239.108 124.77 239.92 124.293 240.495 123.578Z" fill="#A0616A"/>
<path d="M231.49 27.2215C231.078 26.7848 230.576 26.4451 230.021 26.2262C229.465 26.0072 228.869 25.9144 228.274 25.9543C227.679 25.9942 227.1 26.1658 226.578 26.4571C226.056 26.7483 225.603 27.1521 225.251 27.64L207.381 29.7197L210.099 36.7069L226.351 33.6236C227.199 34.1682 228.214 34.3786 229.205 34.215C230.195 34.0515 231.092 33.5253 231.726 32.7361C232.359 31.947 232.685 30.9498 232.641 29.9334C232.598 28.917 232.188 27.9521 231.49 27.2215Z" fill="#A0616A"/>
<path d="M202.041 118.634L209.838 177.96L219.544 175.935C219.544 175.935 218.117 132.728 222.97 127.52C227.822 122.311 216.728 113.187 216.728 113.187L202.041 118.634Z" fill="#2F2E41"/>
<path d="M205.264 102.292L201.682 107.739C201.682 107.739 174.099 96.1191 174.099 114.639C174.099 133.158 172.52 145.726 171.949 146.594C171.378 147.463 178.554 149.715 181.98 149.136C181.98 149.136 186.205 119.28 185.92 117.544C185.92 117.544 212.978 130.992 218.117 129.834C223.255 128.677 224.469 124.579 225.325 122.264C226.181 119.95 224.967 101.566 224.967 101.566L207.84 96.2676L205.264 102.292Z" fill="#2F2E41"/>
<path d="M205.748 69.5879L204.727 68.3458C204.727 68.3458 193.291 42.2626 197.784 35.2243C202.276 28.1859 221.881 27.1509 222.493 27.5649C223.106 27.9789 221.03 33.3543 222.46 35.8384C222.46 35.8384 207.273 39.176 206.252 39.5901C205.231 40.0041 214.121 55.3042 214.121 55.3042L213.1 64.6196L205.748 69.5879Z" fill="#E1D6C4"/>
<path d="M225.761 56.7538C225.761 56.7538 215.142 57.9958 214.733 57.9958C214.325 57.9958 214.121 55.3047 214.121 55.3047L204.727 68.3463C204.727 68.3463 200.099 106.182 201.324 105.561C202.549 104.94 225.148 108.506 225.352 106.85C225.557 105.194 225.148 96.9136 225.761 96.4996C226.374 96.0856 236.38 70.4164 236.38 70.4164C236.38 70.4164 235.359 65.0341 231.887 63.1711C228.416 61.308 225.761 56.7538 225.761 56.7538Z" fill="#E1D6C4"/>
<path d="M233.113 66.8975L236.38 70.4166C236.38 70.4166 241.235 110.855 238.58 112.097C235.925 113.339 230.699 113.187 230.699 113.187L225.557 94.0157L233.113 66.8975Z" fill="#E1D6C4"/>
<path d="M215.556 54.1931C220.747 54.1931 224.956 49.9272 224.956 44.6649C224.956 39.4026 220.747 35.1367 215.556 35.1367C210.365 35.1367 206.157 39.4026 206.157 44.6649C206.157 49.9272 210.365 54.1931 215.556 54.1931Z" fill="#A0616A"/>
<path d="M213.351 46.1511C213.224 44.1741 210.763 44.1063 208.809 44.0876C206.854 44.0689 204.518 44.1396 203.412 42.506C202.681 41.4264 202.821 39.9276 203.424 38.7702C204.028 37.6127 205.021 36.7225 205.998 35.866C208.521 33.655 211.12 31.4615 214.149 30.0462C217.177 28.631 220.726 28.0592 223.867 29.1952C227.725 30.5908 232.94 37.7746 233.391 41.9019C233.841 46.0292 232.214 50.2367 229.471 53.321C226.728 56.4052 220.45 55.1608 216.499 56.258C218.901 52.812 217.318 46.5505 213.47 44.9413L213.351 46.1511Z" fill="#2F2E41"/>
<path d="M129.579 169.399C142.041 169.399 152.143 159.159 152.143 146.526C152.143 133.893 142.041 123.652 129.579 123.652C117.117 123.652 107.014 133.893 107.014 146.526C107.014 159.159 117.117 169.399 129.579 169.399Z" fill="#641E21"/>
<path d="M114.51 122.027C111.383 122.027 108.322 121.108 105.699 119.382C103.077 117.656 101.003 115.196 99.7311 112.3L63.9255 30.5615C62.7394 27.8539 62.1121 24.929 62.0822 21.9667C62.0522 19.0043 62.6203 16.067 63.7513 13.3353C64.8824 10.6037 66.5527 8.13534 68.6594 6.08209C70.7662 4.02884 73.2649 2.43404 76.0021 1.39572C78.7392 0.357398 81.6569 -0.102514 84.5758 0.0442597C87.4947 0.191033 90.3532 0.941389 92.9755 2.2492C95.5979 3.55702 97.9287 5.39467 99.8246 7.64918C101.721 9.9037 103.142 12.5275 104 15.3592L129.928 100.845C130.67 103.292 130.836 105.881 130.412 108.405C129.988 110.929 128.986 113.316 127.487 115.376C125.988 117.436 124.032 119.111 121.779 120.266C119.525 121.421 117.035 122.024 114.51 122.027Z" fill="#641E21"/>
</svg>
