<svg width="28" height="26" viewBox="0 0 28 26" fill="none" xmlns="http://www.w3.org/2000/svg">
<g clip-path="url(#clip0_1303_9462)">
<path d="M16.3333 24.9167C16.3333 25.5147 15.8107 26 15.1667 26H1.16667C0.522667 26 0 25.5147 0 24.9167C0 20.7285 3.65633 17.3333 8.16667 17.3333C12.677 17.3333 16.3333 20.7285 16.3333 24.9167ZM8.16667 6.5C5.5895 6.5 3.5 8.44025 3.5 10.8333C3.5 13.2264 5.5895 15.1667 8.16667 15.1667C10.7438 15.1667 12.8333 13.2264 12.8333 10.8333C12.8333 8.44025 10.7438 6.5 8.16667 6.5ZM28 5.41667V14.0833C28 17.0744 25.3878 19.5 22.1667 19.5H16.8863C15.7838 17.9768 14.2322 16.7559 12.4075 16.0041C14.084 14.8168 15.1667 12.9426 15.1667 10.8333C15.1667 7.24317 12.033 4.33333 8.16667 4.33333C6.902 4.33333 5.71433 4.64533 4.69117 5.19025C4.82183 2.31075 7.3675 0 10.5 0H22.1667C25.3878 0 28 2.42558 28 5.41667ZM23.3333 16.25C23.3333 15.6509 22.8107 15.1667 22.1667 15.1667H18.0833C17.4393 15.1667 16.9167 15.6509 16.9167 16.25C16.9167 16.8491 17.4393 17.3333 18.0833 17.3333H22.1667C22.8107 17.3333 23.3333 16.8491 23.3333 16.25Z" fill="white"/>
</g>
<defs>
<clipPath id="clip0_1303_9462">
<rect width="28" height="26" fill="white"/>
</clipPath>
</defs>
</svg>
