<svg width="42" height="43" viewBox="0 0 42 43" fill="none" xmlns="http://www.w3.org/2000/svg">
<g clip-path="url(#clip0_1303_9413)">
<path d="M21 32.25V29.5625C21 27.0918 22.9618 25.0833 25.375 25.0833H26.25V24.1875C26.25 22.7058 27.4277 21.5 28.875 21.5H34.125C35.5723 21.5 36.75 22.7058 36.75 24.1875V25.0833H37.625C40.0382 25.0833 42 27.0918 42 29.5625V32.25H21ZM33.25 35.8333V37.625H29.75V35.8333H21V43H42V35.8333H33.25ZM17.5 43H0V5.375C0 2.41158 2.3555 0 5.25 0H22.75C25.6445 0 28 2.41158 28 5.375V17.9847C25.8265 18.3055 24.017 19.7925 23.2067 21.8117C19.915 22.7775 17.5 25.886 17.5 29.5625V43ZM15.75 12.5417H21V8.95833H15.75V12.5417ZM15.75 19.7083H21V16.125H15.75V19.7083ZM12.25 30.4583H7V34.0417H12.25V30.4583ZM12.25 23.2917H7V26.875H12.25V23.2917ZM12.25 16.125H7V19.7083H12.25V16.125ZM12.25 8.95833H7V12.5417H12.25V8.95833Z" fill="white"/>
</g>
<defs>
<clipPath id="clip0_1303_9413">
<rect width="42" height="43" fill="white"/>
</clipPath>
</defs>
</svg>
