<svg width="26" height="25" viewBox="0 0 26 25" fill="none" xmlns="http://www.w3.org/2000/svg">
<g clip-path="url(#clip0_1303_9450)">
<path d="M8.66667 0H4.875C2.18292 0 0 2.09896 0 4.6875V8.33333C0 9.48437 0.969583 10.4167 2.16667 10.4167H8.66667C9.86375 10.4167 10.8333 9.48437 10.8333 8.33333V2.08333C10.8333 0.932292 9.86375 0 8.66667 0ZM15.1667 10.4167H21.6667C22.8638 10.4167 23.8333 9.48437 23.8333 8.33333V4.6875C23.8333 2.09896 21.6504 0 18.9583 0H15.1667C13.9696 0 13 0.932292 13 2.08333V8.33333C13 9.48437 13.9696 10.4167 15.1667 10.4167ZM8.66667 12.5H2.16667C0.969583 12.5 0 13.4323 0 14.5833V18.2292C0 20.8177 2.18292 22.9167 4.875 22.9167H8.66667C9.86375 22.9167 10.8333 21.9844 10.8333 20.8333V14.5833C10.8333 13.4323 9.86375 12.5 8.66667 12.5ZM25.6826 23.2219L22.9309 20.576C23.4986 19.7521 23.8333 18.7677 23.8333 17.7083C23.8333 14.8365 21.4034 12.5 18.4167 12.5C15.4299 12.5 13 14.8365 13 17.7083C13 20.5802 15.4299 22.9167 18.4167 22.9167C19.5184 22.9167 20.5422 22.5948 21.3991 22.049L24.1508 24.6948C24.362 24.8979 24.6393 25 24.9167 25C25.194 25 25.4713 24.8979 25.6826 24.6948C26.1062 24.2875 26.1062 23.6292 25.6826 23.2219Z" fill="white"/>
</g>
<defs>
<clipPath id="clip0_1303_9450">
<rect width="26" height="25" fill="white"/>
</clipPath>
</defs>
</svg>
