<svg width="317" height="181" viewBox="0 0 317 181" fill="none" xmlns="http://www.w3.org/2000/svg">
<path d="M270.071 180.782H210.751L210.739 180.443L207.907 97.8018H272.914L270.071 180.782ZM211.416 180.08H269.405L272.201 98.5046H208.62L211.416 180.08Z" fill="#3F3D56"/>
<path d="M224.901 113.113H220.389V170.074H224.901V113.113Z" fill="#3F3D56"/>
<path d="M242.666 113.113H238.154V170.074H242.666V113.113Z" fill="#3F3D56"/>
<path d="M260.432 113.113H255.92V170.074H260.432V113.113Z" fill="#3F3D56"/>
<path d="M310.609 122.069L310.318 121.881L236.635 74.3782L243.026 64.0605L243.317 64.2483L317 111.751L310.609 122.069ZM237.585 74.1596L310.394 121.099L316.049 111.97L243.241 65.03L237.585 74.1596Z" fill="#3F3D56"/>
<path d="M292.819 70.5499C290.677 69.1671 288.191 68.4401 285.657 68.4553C283.122 68.4705 280.645 69.2272 278.519 70.6355C276.394 72.0439 274.709 74.0448 273.664 76.4008C272.62 78.7568 272.26 81.3691 272.627 83.9276L276.141 86.1927C275.258 84.1012 275.054 81.7762 275.56 79.5582C276.066 77.3403 277.255 75.3458 278.952 73.8669C280.649 72.3879 282.766 71.5022 284.993 71.3394C287.219 71.1766 289.439 71.7453 291.325 72.9622C293.212 74.1791 294.667 75.9802 295.478 78.1019C296.289 80.2236 296.413 82.5544 295.831 84.7529C295.25 86.9515 293.993 88.9024 292.246 90.32C290.499 91.7375 288.353 92.5473 286.123 92.6306L289.636 94.8957C292.059 94.1369 294.218 92.6848 295.856 90.7118C297.495 88.7388 298.544 86.3277 298.879 83.7647C299.215 81.2016 298.822 78.5942 297.749 76.2519C296.675 73.9095 294.965 71.9306 292.822 70.5499H292.819Z" fill="#3F3D56"/>
<path d="M313.106 180.267H99.5464V180.969H313.106V180.267Z" fill="#3F3D56"/>
<path d="M136.76 175.502H131.743L129.356 155.763H136.761L136.76 175.502Z" fill="#FEB8B8"/>
<path d="M122.069 180.253H137.835V174.039H128.076C126.482 174.039 124.955 174.685 123.828 175.834C122.702 176.983 122.069 178.542 122.069 180.167V180.253Z" fill="#2F2E41"/>
<path d="M134.997 144.915L138.457 148.62L154.113 136.769L149.006 131.3L134.997 144.915Z" fill="#FEB8B8"/>
<path d="M142.022 150.317L135.288 143.109L130.878 147.397L141.757 159.042L141.818 158.982C142.389 158.427 142.847 157.763 143.166 157.027C143.486 156.291 143.66 155.498 143.679 154.693C143.698 153.888 143.561 153.088 143.277 152.337C142.993 151.586 142.566 150.9 142.022 150.317Z" fill="#2F2E41"/>
<path d="M100.08 90.8351C99.7622 90.314 99.5605 89.7282 99.4889 89.1191C99.4173 88.5099 99.4774 87.8921 99.6651 87.3092C99.8527 86.7263 100.163 86.1924 100.575 85.7452C100.987 85.298 101.49 84.9483 102.048 84.7208L121.744 33.5127L129.421 38.2021L107.542 87.3274C107.854 88.3102 107.803 89.3759 107.397 90.3225C106.991 91.2691 106.258 92.0307 105.338 92.4631C104.418 92.8955 103.375 92.9686 102.406 92.6686C101.436 92.3685 100.609 91.7161 100.08 90.8351Z" fill="#FEB8B8"/>
<path d="M174.837 94.5052C174.236 94.4614 173.653 94.2839 173.128 93.9852C172.602 93.6865 172.147 93.2738 171.795 92.7763C171.442 92.2787 171.201 91.7084 171.088 91.1055C170.976 90.5027 170.994 89.8819 171.142 89.2869L142.086 42.9485L150.315 39.3643L176.437 86.2839C177.402 86.602 178.218 87.2704 178.732 88.1622C179.245 89.0539 179.42 90.107 179.222 91.1214C179.025 92.1359 178.469 93.041 177.661 93.6651C176.852 94.2891 175.847 94.5886 174.837 94.5066V94.5052Z" fill="#FEB8B8"/>
<path d="M121.938 85.7074L127.081 163.687L139.371 162.581L141.902 105.049L148.77 129.758L163.591 130.864L157.725 82.0195L121.938 85.7074Z" fill="#2F2E41"/>
<path d="M150.939 126.07L148.769 129.758L133.588 140.453L144.433 146.353C144.433 146.353 165.399 134.552 163.592 130.864L150.939 126.07Z" fill="#2F2E41"/>
<path d="M111.175 54.1576L115.453 41.8587C116.405 39.1222 117.88 36.6054 119.791 34.454C121.703 32.3026 124.014 30.5593 126.59 29.3251C132.381 27.1487 138.679 26.797 144.668 28.3155L146.225 28.7098C150.377 29.7364 154.267 31.653 157.636 34.3321C160.273 36.4525 162.644 39.1371 162.856 42.0249C162.857 42.0311 162.858 42.0371 162.861 42.0428C163.591 45.308 163.952 62.2717 163.952 62.2717H157.511L158.53 85.1361L158.448 84.9706C158.448 84.9706 121.297 92.1429 121.297 88.455V64.8524L120.535 56.3064L111.175 54.1576Z" fill="#CCCCCC"/>
<path d="M145.852 25.1181C151.538 25.1181 156.147 20.4158 156.147 14.6152C156.147 8.81462 151.538 4.1123 145.852 4.1123C140.166 4.1123 135.556 8.81462 135.556 14.6152C135.556 20.4158 140.166 25.1181 145.852 25.1181Z" fill="#FEB8B8"/>
<path d="M147.394 9.90539L155.388 10.2322C156.394 10.229 157.492 10.1928 158.258 9.52939C159.412 8.52826 159.219 6.63915 158.601 5.22794C156.878 1.29861 153.037 -0.109083 148.818 0.006527C144.6 0.122137 140.179 1.58078 137.908 5.2072C135.636 8.83362 135.022 13.413 135.878 17.627C136.867 15.4843 138.39 13.6437 140.294 12.289C142.199 10.9343 144.418 10.1129 146.731 9.90679L147.394 9.90539Z" fill="#2F2E41"/>
<path d="M194.864 112.639L165.93 91.9509C165.661 91.7579 165.478 91.4641 165.421 91.1339C165.364 90.8036 165.438 90.4637 165.626 90.1888L188.336 57.1318C188.525 56.8576 188.813 56.671 189.137 56.6129C189.461 56.5548 189.794 56.63 190.063 56.8219L218.998 77.5097C219.267 77.7027 219.45 77.9965 219.506 78.3268C219.563 78.657 219.49 78.9969 219.302 79.2719L196.592 112.328C196.403 112.602 196.115 112.789 195.791 112.848C195.467 112.906 195.134 112.831 194.864 112.639Z" fill="#EC933A"/>
<path d="M201.371 90.1912L184.393 78.052C184.197 77.9116 184.029 77.7331 183.9 77.5268C183.772 77.3204 183.684 77.0902 183.643 76.8493C183.601 76.6084 183.606 76.3615 183.658 76.1228C183.71 75.884 183.808 75.658 183.946 75.4577C184.083 75.2574 184.258 75.0867 184.46 74.9553C184.663 74.824 184.888 74.7346 185.125 74.6922C185.361 74.6498 185.603 74.6553 185.837 74.7084C186.071 74.7614 186.292 74.861 186.489 75.0014L203.467 87.1406C203.863 87.4241 204.133 87.8567 204.217 88.3433C204.301 88.8298 204.192 89.3304 203.914 89.7349C203.636 90.1395 203.212 90.4148 202.735 90.5004C202.258 90.586 201.768 90.4748 201.371 90.1912Z" fill="white"/>
<path d="M197.475 95.8631L180.496 83.7238C180.3 83.5835 180.132 83.4051 180.003 83.1987C179.874 82.9923 179.787 82.762 179.745 82.521C179.703 82.28 179.709 82.033 179.761 81.794C179.812 81.5551 179.91 81.329 180.048 81.1286C180.185 80.9282 180.361 80.7574 180.563 80.626C180.765 80.4946 180.991 80.4053 181.227 80.363C181.464 80.3207 181.706 80.3263 181.94 80.3795C182.174 80.4328 182.396 80.5326 182.592 80.6732L199.57 92.8124C199.966 93.0961 200.236 93.5287 200.32 94.015C200.403 94.5013 200.294 95.0015 200.016 95.4058C199.739 95.8102 199.315 96.0854 198.838 96.1711C198.362 96.2569 197.871 96.1461 197.475 95.8631Z" fill="white"/>
<path d="M193.536 101.596L176.558 89.4563C176.361 89.3159 176.194 89.1374 176.065 88.9311C175.937 88.7247 175.849 88.4945 175.808 88.2536C175.766 88.0127 175.771 87.7658 175.823 87.5271C175.875 87.2883 175.973 87.0623 176.111 86.862C176.248 86.6617 176.423 86.491 176.625 86.3596C176.828 86.2283 177.053 86.1389 177.289 86.0965C177.526 86.0541 177.768 86.0596 178.002 86.1127C178.236 86.1657 178.457 86.2653 178.654 86.4057L195.632 98.5449C196.028 98.8284 196.298 99.261 196.382 99.7476C196.466 100.234 196.357 100.735 196.079 101.139C195.801 101.544 195.377 101.819 194.9 101.905C194.423 101.99 193.933 101.879 193.536 101.596Z" fill="white"/>
<path d="M201.323 78.9706L194.747 74.2687C194.551 74.1285 194.383 73.95 194.254 73.7436C194.125 73.5373 194.037 73.307 193.996 73.066C193.954 72.8249 193.959 72.5779 194.011 72.339C194.063 72.1 194.161 71.8739 194.299 71.6735C194.436 71.4731 194.611 71.3023 194.814 71.1709C195.016 71.0396 195.242 70.9502 195.478 70.9079C195.715 70.8656 195.957 70.8712 196.191 70.9245C196.425 70.9777 196.647 71.0775 196.843 71.2181L203.419 75.92C203.816 76.2035 204.086 76.6361 204.169 77.1227C204.253 77.6092 204.144 78.1098 203.866 78.5143C203.589 78.9189 203.164 79.1942 202.688 79.2798C202.211 79.3654 201.72 79.2541 201.323 78.9706Z" fill="white"/>
</svg>
