<svg width="21" height="25" viewBox="0 0 21 25" fill="none" xmlns="http://www.w3.org/2000/svg">
<g clip-path="url(#clip0_2863_16726)">
<path d="M14.1418 25C13.3088 25.0021 12.5274 24.6 11.9551 23.8771L9.863 21.2365C9.53137 20.8177 9.548 20.1583 9.89975 19.7635C10.2515 19.3687 10.8054 19.3885 11.137 19.8073L13.2291 22.4479C13.6911 23.0552 14.5512 23.0708 15.0281 22.4792L19.4967 16.9833C19.8336 16.5708 20.3875 16.5604 20.734 16.9604C21.0814 17.3604 21.0901 18.0198 20.7541 18.4333L16.275 23.9417C15.6966 24.6302 14.9441 25 14.1418 25ZM10.4388 25H4.375C1.96263 25 0 22.6635 0 19.7917V5.20833C0 2.33646 1.96263 0 4.375 0H11.375C13.7874 0 15.75 2.33646 15.75 5.20833V18.5958L14.1453 20.5698L12.411 18.3792C11.9298 17.7719 11.2787 17.4229 10.5779 17.399C9.86737 17.3698 9.21025 17.676 8.70012 18.249C8.19 18.8219 7.89775 19.5958 7.87763 20.4312C7.8575 21.2656 8.11038 22.0594 8.59163 22.6667L10.4405 25.001L10.4388 25ZM3.5 6.25C3.5 6.825 3.892 7.29167 4.375 7.29167H11.375C11.8589 7.29167 12.25 6.825 12.25 6.25C12.25 5.675 11.8589 5.20833 11.375 5.20833H4.375C3.892 5.20833 3.5 5.675 3.5 6.25ZM3.5 11.4583C3.5 12.0333 3.892 12.5 4.375 12.5H11.375C11.8589 12.5 12.25 12.0333 12.25 11.4583C12.25 10.8833 11.8589 10.4167 11.375 10.4167H4.375C3.892 10.4167 3.5 10.8833 3.5 11.4583ZM4.375 17.7083H7C7.483 17.7083 7.875 17.2417 7.875 16.6667C7.875 16.0917 7.483 15.625 7 15.625H4.375C3.892 15.625 3.5 16.0917 3.5 16.6667C3.5 17.2417 3.892 17.7083 4.375 17.7083Z" fill="white"/>
</g>
<defs>
<clipPath id="clip0_2863_16726">
<rect width="21" height="25" fill="white"/>
</clipPath>
</defs>
</svg>
