<svg width="42" height="39" viewBox="0 0 42 39" fill="none" xmlns="http://www.w3.org/2000/svg">
<g clip-path="url(#clip0_497_3527)">
<path d="M24.9375 18.954L17.5 25.8602C16.8472 26.4647 15.946 26.8125 15.0255 26.8125H14V25.8602C14 24.9925 14.364 24.1768 15.0255 23.5625L22.463 16.6562L24.9375 18.954ZM26.7628 12.6636L24.9375 14.3585L27.412 16.6562L29.2373 14.9614C29.9198 14.3276 29.9198 13.2974 29.2373 12.6636C28.5758 12.0478 27.4225 12.0478 26.7628 12.6636ZM42 8.125V30.875C42 35.3551 38.0747 39 33.25 39H8.75C3.92525 39 0 35.3551 0 30.875V8.125C0 3.64488 3.92525 0 8.75 0H33.25C38.0747 0 42 3.64488 42 8.125ZM31.7135 10.3659C29.729 8.52475 26.271 8.52475 24.2882 10.3659L12.551 21.2648C11.2297 22.4916 10.5 24.1248 10.5 25.8602V28.4375C10.5 29.3361 11.284 30.0625 12.25 30.0625H15.0255C16.8945 30.0625 18.6532 29.3865 19.9745 28.158L31.7118 17.2591C33.7593 15.3579 33.761 12.2671 31.7135 10.3659Z" fill="#EC933A"/>
</g>
<defs>
<clipPath id="clip0_497_3527">
<rect width="42" height="39" fill="white"/>
</clipPath>
</defs>
</svg>
