<svg width="582" height="368" viewBox="0 0 582 368" fill="none" xmlns="http://www.w3.org/2000/svg">
<path d="M466.087 10.5605C481.811 1.65747 500.184 -1.47291 517.995 1.71582C535.807 4.90465 551.924 14.2101 563.531 28.0059C575.138 41.8016 581.498 59.2108 581.5 77.1914C581.5 93.0956 576.525 108.607 567.264 121.579C558.291 134.146 545.724 143.728 531.211 149.093L529.801 149.599C529.534 149.691 529.266 149.781 528.999 149.87V71.623H427.332C427.343 71.4703 427.354 71.3179 427.366 71.166H528.999V55.3447C528.999 54.2458 528.559 53.1922 527.778 52.416C526.997 51.6399 525.938 51.2036 524.835 51.2031H431.676C431.683 51.1837 431.689 51.164 431.696 51.1445L431.967 50.4316L431.97 50.4229C438.287 33.5733 450.363 19.4636 466.087 10.5605Z" fill="#3A3D3D" stroke="black"/>
<path d="M524.835 50.2471H167.92C166.56 50.2486 165.256 50.7861 164.294 51.7417C163.332 52.6974 162.791 53.9931 162.79 55.3446V295.656C162.791 297.007 163.332 298.303 164.294 299.258C165.256 300.214 166.56 300.752 167.92 300.753H524.835C526.195 300.752 527.499 300.214 528.461 299.258C529.422 298.303 529.963 297.007 529.965 295.656V55.3446C529.963 53.9931 529.422 52.6974 528.461 51.7417C527.499 50.7861 526.195 50.2486 524.835 50.2471ZM528.499 295.656C528.499 296.621 528.113 297.547 527.425 298.23C526.738 298.913 525.807 299.296 524.835 299.297H167.92C166.948 299.296 166.016 298.913 165.329 298.23C164.642 297.547 164.256 296.621 164.255 295.656V55.3446C164.256 54.379 164.642 53.4531 165.329 52.7704C166.016 52.0876 166.948 51.7039 167.92 51.7035H524.835C525.807 51.7039 526.738 52.0876 527.425 52.7704C528.113 53.4531 528.499 54.379 528.499 55.3446V295.656Z" fill="black"/>
<path d="M529.232 70.666H163.522V72.1224H529.232V70.666Z" fill="#3F3D56"/>
<path d="M175.982 65.5394C178.41 65.5394 180.379 63.5832 180.379 61.1701C180.379 58.757 178.41 56.8008 175.982 56.8008C173.553 56.8008 171.584 58.757 171.584 61.1701C171.584 63.5832 173.553 65.5394 175.982 65.5394Z" fill="#3F3D56"/>
<path d="M188.624 65.5394C191.052 65.5394 193.021 63.5832 193.021 61.1701C193.021 58.757 191.052 56.8008 188.624 56.8008C186.195 56.8008 184.227 58.757 184.227 61.1701C184.227 63.5832 186.195 65.5394 188.624 65.5394Z" fill="#3F3D56"/>
<path d="M201.266 65.5394C203.695 65.5394 205.664 63.5832 205.664 61.1701C205.664 58.757 203.695 56.8008 201.266 56.8008C198.838 56.8008 196.869 58.757 196.869 61.1701C196.869 63.5832 198.838 65.5394 201.266 65.5394Z" fill="#3F3D56"/>
<path d="M263.195 100.494H198.701C197.341 100.496 196.037 101.033 195.075 101.989C194.113 102.944 193.572 104.24 193.571 105.592V169.675C193.572 171.026 194.113 172.322 195.075 173.277C196.037 174.233 197.341 174.771 198.701 174.772H263.195C264.555 174.771 265.859 174.233 266.821 173.277C267.783 172.322 268.324 171.026 268.325 169.675V105.592C268.324 104.24 267.783 102.944 266.821 101.989C265.859 101.033 264.555 100.496 263.195 100.494ZM266.859 169.675C266.859 170.64 266.473 171.566 265.786 172.249C265.098 172.932 264.167 173.315 263.195 173.316H198.701C197.729 173.315 196.797 172.932 196.11 172.249C195.423 171.566 195.037 170.64 195.037 169.675V105.592C195.037 104.626 195.423 103.7 196.11 103.017C196.797 102.335 197.729 101.951 198.701 101.951H263.195C264.167 101.951 265.098 102.335 265.786 103.017C266.473 103.7 266.859 104.626 266.859 105.592V169.675Z" fill="#3F3D56"/>
<path d="M378.991 100.857H314.497C313.234 100.86 312.024 101.359 311.131 102.246C310.239 103.134 309.736 104.336 309.733 105.591V169.674C309.736 170.928 310.239 172.131 311.131 173.018C312.024 173.905 313.234 174.405 314.497 174.407H378.991C380.254 174.405 381.464 173.905 382.357 173.018C383.25 172.131 383.752 170.928 383.755 169.674V105.591C383.752 104.336 383.25 103.134 382.357 102.246C381.464 101.359 380.254 100.86 378.991 100.857Z" fill="#641E21"/>
<path d="M494.787 100.857H430.293C429.03 100.86 427.82 101.359 426.927 102.246C426.034 103.134 425.532 104.336 425.529 105.591V169.674C425.532 170.928 426.034 172.131 426.927 173.018C427.82 173.905 429.03 174.405 430.293 174.407H494.787C496.05 174.405 497.26 173.905 498.153 173.018C499.046 172.131 499.548 170.928 499.551 169.674V105.591C499.548 104.336 499.046 103.134 498.153 102.246C497.26 101.359 496.05 100.86 494.787 100.857Z" fill="#E6E6E6"/>
<path d="M263.195 196.982H198.701C197.439 196.985 196.228 197.484 195.335 198.371C194.443 199.259 193.94 200.461 193.938 201.716V265.799C193.94 267.053 194.443 268.256 195.335 269.143C196.228 270.03 197.439 270.53 198.701 270.532H263.195C264.458 270.53 265.668 270.03 266.561 269.143C267.454 268.256 267.956 267.053 267.959 265.799V201.716C267.956 200.461 267.454 199.259 266.561 198.371C265.668 197.484 264.458 196.985 263.195 196.982Z" fill="#E6E6E6"/>
<path d="M378.991 196.982H314.497C313.234 196.985 312.024 197.484 311.131 198.371C310.239 199.259 309.736 200.461 309.733 201.716V265.799C309.736 267.053 310.239 268.256 311.131 269.143C312.024 270.03 313.234 270.53 314.497 270.532H378.991C380.254 270.53 381.464 270.03 382.357 269.143C383.25 268.256 383.752 267.053 383.755 265.799V201.716C383.752 200.461 383.25 199.259 382.357 198.371C381.464 197.484 380.254 196.985 378.991 196.982Z" fill="#E1D6C4"/>
<path d="M494.787 196.982H430.293C429.03 196.985 427.82 197.484 426.927 198.371C426.034 199.259 425.532 200.461 425.529 201.716V265.799C425.532 267.053 426.034 268.256 426.927 269.143C427.82 270.03 429.03 270.53 430.293 270.532H494.787C496.05 270.53 497.26 270.03 498.153 269.143C499.046 268.256 499.548 267.053 499.551 265.799V201.716C499.548 200.461 499.046 199.259 498.153 198.371C497.26 197.484 496.05 196.985 494.787 196.982Z" fill="#E6E6E6"/>
<path d="M247.438 207.541H182.944C181.681 207.54 180.47 207.04 179.577 206.153C178.684 205.266 178.182 204.062 178.18 202.808V138.725C178.182 137.47 178.684 136.267 179.577 135.379C180.47 134.492 181.681 133.993 182.944 133.991H247.438C248.701 133.993 249.912 134.492 250.805 135.379C251.698 136.267 252.2 137.47 252.202 138.725V202.808C252.2 204.062 251.698 205.266 250.805 206.153C249.912 207.04 248.701 207.54 247.438 207.541Z" fill="#A14141"/>
<path d="M148.589 358.346L157.179 355.727L151.099 321.561L138.421 325.426L148.589 358.346Z" fill="#FFB6B6"/>
<path d="M176.192 358.601L149.196 366.833L145.996 356.469L162.561 351.417C163.931 351 165.37 350.854 166.796 350.989C168.223 351.124 169.608 351.537 170.874 352.204C172.14 352.871 173.261 353.779 174.173 354.877C175.086 355.974 175.772 357.24 176.192 358.601Z" fill="#641E21"/>
<path d="M75.3022 358.543L84.2874 358.542L88.5616 324.106L75.3008 324.107L75.3022 358.543Z" fill="#FFB6B6"/>
<path d="M101.616 366.831L73.3771 366.832L73.3766 355.991L90.7048 355.991C92.1376 355.991 93.5564 356.271 94.8801 356.816C96.2038 357.36 97.4066 358.159 98.4198 359.166C99.433 360.172 100.237 361.367 100.785 362.682C101.333 363.998 101.616 365.407 101.616 366.831Z" fill="#641E21"/>
<path d="M74.658 258.721C73.9198 258.078 73.3325 257.282 72.9375 256.389C72.5424 255.496 72.3491 254.528 72.3713 253.553C72.3936 252.577 72.6307 251.619 73.0661 250.745C73.5014 249.87 74.1244 249.102 74.8911 248.493L81.8574 161.329L96.0247 164.846L84.6814 249.871C85.6259 251.219 86.0401 252.864 85.8455 254.495C85.6509 256.126 84.861 257.629 83.6255 258.72C82.3899 259.811 80.7947 260.413 79.1419 260.413C77.4891 260.413 75.8938 259.811 74.658 258.721Z" fill="#FFB6B6"/>
<path d="M103.028 127.522C112.97 127.522 121.029 119.515 121.029 109.637C121.029 99.7587 112.97 91.751 103.028 91.751C93.0869 91.751 85.0278 99.7587 85.0278 109.637C85.0278 119.515 93.0869 127.522 103.028 127.522Z" fill="#FFB6B6"/>
<path d="M87.3763 158.648C83.3147 153.107 83.1895 145.476 87.5647 140.177C90.4199 136.719 95.1958 133.951 103.17 133.951C124.423 133.951 132.485 150.7 132.485 150.7C132.485 150.7 141.28 166.721 136.149 181.285C131.019 195.849 131.019 197.306 131.019 197.306L97.3065 194.393C97.3065 194.393 102.994 179.951 87.3763 158.648Z" fill="#3A3D3D"/>
<path d="M76.9805 173.145L84.2431 149.536C84.7295 147.955 85.5595 146.5 86.6742 145.273C87.789 144.045 89.1614 143.077 90.6944 142.434C92.2275 141.792 93.8838 141.492 95.5462 141.556C97.2087 141.62 98.8368 142.046 100.315 142.804C102.881 144.124 104.845 146.364 105.809 149.07C106.774 151.776 106.667 154.745 105.51 157.375L96.2769 178.269L76.9805 173.145Z" fill="#3A3D3D"/>
<path d="M130.287 193.665L158.869 340.764L143.478 345.134L106.101 248.281L89.245 347.318L73.1215 349.503C73.1215 349.503 66.049 218.464 97.3067 194.393L130.287 193.665Z" fill="#A14141"/>
<path d="M171.424 186.771C171.163 187.079 170.927 187.408 170.719 187.753L134.415 189.502L127.425 168.297L115.287 174.029L126.711 205.613L171.609 196.888C172.664 198.033 174.044 198.831 175.567 199.177C177.09 199.522 178.682 199.399 180.133 198.824C181.584 198.248 182.824 197.248 183.688 195.955C184.552 194.662 185 193.139 184.972 191.587C184.944 190.035 184.441 188.529 183.53 187.268C182.619 186.007 181.343 185.052 179.872 184.529C178.402 184.006 176.806 183.941 175.296 184.341C173.787 184.741 172.437 185.589 171.424 186.771Z" fill="#FFB6B6"/>
<path d="M110.208 152.815C110.013 151.173 110.184 149.509 110.708 147.94C111.232 146.371 112.097 144.936 113.241 143.735C114.385 142.535 115.78 141.599 117.328 140.993C118.876 140.387 120.539 140.127 122.199 140.23C125.083 140.414 127.787 141.68 129.765 143.773C131.744 145.865 132.847 148.626 132.852 151.497V174.315L113.111 177.333L110.208 152.815Z" fill="#3A3D3D"/>
<path d="M106.987 127.684C104.285 127.673 102.201 124.846 102.322 122.165C102.443 119.483 104.256 117.123 106.44 115.543C108.624 113.963 111.185 113 113.621 111.838C116.056 110.677 118.471 109.227 119.974 106.997C120.883 105.537 121.425 103.882 121.556 102.171C121.686 100.459 121.401 98.742 120.724 97.1629C119.325 94.0047 116.922 91.3894 113.884 89.7175C109.371 87.0927 104.029 86.2534 98.921 87.3668C93.8133 88.4802 89.315 91.4646 86.3224 95.7256L83.2384 104.069C80.0959 107.824 79.5974 113.4 81.5292 117.891C83.461 122.381 87.5741 125.76 92.2155 127.366C96.9245 128.869 101.965 129.02 106.757 127.799" fill="#2F2E41"/>
<path d="M90.5362 99.8957C89.2105 97.7844 86.9125 96.4416 84.5369 95.6535C81.7848 94.7406 78.8577 94.4711 75.9836 94.8661C73.1095 95.2611 70.366 96.31 67.9665 97.9309C65.5672 99.5519 63.5767 101.701 62.1501 104.212C60.7235 106.722 59.8993 109.526 59.7416 112.405C59.4898 117.003 60.9389 121.499 61.7904 126.026C62.6418 130.553 62.8112 135.552 60.2993 139.422C58.3861 142.37 55.1956 144.226 52.0465 145.81C49.4218 147.131 46.5828 148.371 43.6526 148.108C40.7225 147.844 37.7775 145.538 37.8553 142.616C36.8743 144.711 36.212 146.94 35.8899 149.228C35.6838 151.527 36.2539 154.006 37.9245 155.609C40.3526 157.938 44.1998 157.768 47.5368 157.265C54.7608 156.177 62.0759 154.137 67.7831 149.604C73.4903 145.071 77.2774 137.607 75.7744 130.502C75.1466 127.534 73.6711 124.825 72.4788 122.033C71.2865 119.242 70.3557 116.188 70.9034 113.204C71.2276 111.667 71.8873 110.22 72.8362 108.964C73.785 107.708 74.9997 106.674 76.3946 105.936C79.2155 104.478 82.4433 103.992 85.5722 104.553C87.6236 104.887 90.185 105.407 91.4017 103.732C91.7242 103.201 91.8889 102.591 91.8767 101.971C91.8646 101.351 91.6761 100.748 91.3331 100.23C90.6311 99.2059 89.7372 98.3259 88.7001 97.6378" fill="#2F2E41"/>
</svg>
