<svg width="27" height="27" viewBox="0 0 27 27" fill="none" xmlns="http://www.w3.org/2000/svg">
<g clip-path="url(#clip0_1873_9610)">
<path d="M13.5 27C20.9558 27 27 20.9558 27 13.5C27 6.04415 20.9558 0 13.5 0C6.04415 0 0 6.04415 0 13.5C0.00806836 20.9525 6.04747 26.9919 13.5 27ZM12.375 6.75C12.375 6.12868 12.8787 5.62502 13.5 5.62502C14.1213 5.62502 14.625 6.12868 14.625 6.75V15.75C14.625 16.3713 14.1213 16.875 13.5 16.875C12.8787 16.875 12.375 16.3713 12.375 15.75V6.75ZM13.5 20.25C14.1213 20.25 14.625 20.7537 14.625 21.375C14.625 21.9963 14.1213 22.5 13.5 22.5C12.8787 22.5 12.375 21.9963 12.375 21.375C12.375 20.7537 12.8787 20.25 13.5 20.25Z" fill="white"/>
</g>
<defs>
<clipPath id="clip0_1873_9610">
<rect width="27" height="27" fill="white"/>
</clipPath>
</defs>
</svg>
