<svg width="24" height="24" viewBox="0 0 24 24" fill="none" xmlns="http://www.w3.org/2000/svg">
<path d="M4 14H10" stroke="#FFF3F3" stroke-width="2" stroke-linecap="round" stroke-linejoin="round"/>
<path d="M4 2H14" stroke="#FFF3F3" stroke-width="2" stroke-linecap="round" stroke-linejoin="round"/>
<path d="M19 18H5C4.44772 18 4 18.4477 4 19V21C4 21.5523 4.44772 22 5 22H19C19.5523 22 20 21.5523 20 21V19C20 18.4477 19.5523 18 19 18Z" stroke="#FFF3F3" stroke-width="2" stroke-linecap="round" stroke-linejoin="round"/>
<path d="M19 6H5C4.44772 6 4 6.44772 4 7V9C4 9.55228 4.44772 10 5 10H19C19.5523 10 20 9.55228 20 9V7C20 6.44772 19.5523 6 19 6Z" stroke="#FFF3F3" stroke-width="2" stroke-linecap="round" stroke-linejoin="round"/>
</svg>
