<svg width="27" height="26" viewBox="0 0 27 26" fill="none" xmlns="http://www.w3.org/2000/svg">
<path d="M26.9999 9.1869V21.6669C26.9999 21.9542 26.8814 22.2298 26.6704 22.4329C26.4594 22.6361 26.1733 22.7502 25.8749 22.7502C25.5765 22.7502 25.2904 22.6361 25.0794 22.4329C24.8684 22.2298 24.7499 21.9542 24.7499 21.6669V12.7316L16.4249 16.5622C15.5471 17.0612 14.545 17.321 13.5258 17.3141C12.4569 17.3157 11.4074 17.0391 10.4883 16.5135L2.18578 12.7077C1.53314 12.3698 0.986311 11.8698 0.602024 11.2597C0.217736 10.6496 0.0099937 9.95158 0.000351636 9.23807C-0.00929043 8.52457 0.179519 7.82158 0.54719 7.20204C0.91486 6.58251 1.448 6.06901 2.09127 5.71482C2.12165 5.69749 2.15427 5.68124 2.18578 5.66607L10.5749 1.81157C11.4806 1.3107 12.5085 1.05121 13.5529 1.05978C14.5973 1.06834 15.6204 1.34467 16.5172 1.86032L24.814 5.66607C25.4687 6.01488 26.0158 6.52438 26.3997 7.14279C26.7837 7.7612 26.9907 8.46646 26.9999 9.1869ZM13.5247 19.4786C12.0853 19.4816 10.6707 19.1184 9.42403 18.4256L4.4999 16.1625V19.0875C4.50057 20.244 4.88506 21.37 5.59726 22.3012C6.30945 23.2323 7.31207 23.92 8.45878 24.2637C10.0971 24.7166 11.7955 24.9367 13.4999 24.9169C15.2046 24.9353 16.9029 24.7138 18.541 24.2593C19.6877 23.9156 20.6903 23.228 21.4025 22.2968C22.1147 21.3656 22.4992 20.2396 22.4999 19.0832V16.1679L17.4835 18.4754C16.2794 19.1416 14.9134 19.4885 13.5247 19.4807V19.4786Z" fill="white"/>
</svg>
