<svg width="55" height="56" viewBox="0 0 55 56" fill="none" xmlns="http://www.w3.org/2000/svg">
<ellipse cx="27.5" cy="28" rx="27.5" ry="28" fill="#EC933A"/>
<g clip-path="url(#clip0_4667_136)">
<path d="M27.0766 15.75C24.7337 15.75 22.4433 16.4685 20.4953 17.8145C18.5472 19.1605 17.0288 21.0737 16.1322 23.3121C15.2356 25.5505 15.001 28.0136 15.4581 30.3899C15.9152 32.7661 17.0434 34.9489 18.7001 36.6621C20.3568 38.3753 22.4676 39.542 24.7656 40.0146C27.0635 40.4873 29.4454 40.2447 31.61 39.3175C33.7746 38.3904 35.6247 36.8202 36.9263 34.8057C38.228 32.7912 38.9228 30.4228 38.9228 28C38.9194 24.7522 37.6702 21.6384 35.4494 19.3418C33.2285 17.0453 30.2174 15.7535 27.0766 15.75ZM32.0125 29.0208H28.0638V33.1042H26.0894V29.0208H22.1407V26.9792H26.0894V22.8958H28.0638V26.9792H32.0125V29.0208Z" fill="white"/>
</g>
<defs>
<clipPath id="clip0_4667_136">
<rect width="23.6923" height="24.5" fill="white" transform="translate(15.2305 15.75)"/>
</clipPath>
</defs>
</svg>
