<svg width="24" height="27" viewBox="0 0 24 27" fill="none" xmlns="http://www.w3.org/2000/svg">
<g clip-path="url(#clip0_3123_9240)">
<path d="M12 20.25V18.5625C12 17.0111 13.121 15.75 14.5 15.75H15V15.1875C15 14.2571 15.673 13.5 16.5 13.5H19.5C20.327 13.5 21 14.2571 21 15.1875V15.75H21.5C22.879 15.75 24 17.0111 24 18.5625V20.25H12ZM19 22.5V23.625H17V22.5H12V27H24V22.5H19ZM10 27H0V3.375C0 1.51425 1.346 0 3 0H13C14.654 0 16 1.51425 16 3.375V11.2928C14.758 11.4941 13.724 12.4279 13.261 13.6957C11.38 14.3021 10 16.254 10 18.5625V27ZM9 7.875H12V5.625H9V7.875ZM9 12.375H12V10.125H9V12.375ZM7 19.125H4V21.375H7V19.125ZM7 14.625H4V16.875H7V14.625ZM7 10.125H4V12.375H7V10.125ZM7 5.625H4V7.875H7V5.625Z" fill="white"/>
</g>
<defs>
<clipPath id="clip0_3123_9240">
<rect width="24" height="27" fill="white"/>
</clipPath>
</defs>
</svg>
