<svg width="132" height="144" viewBox="0 0 132 144" fill="none" xmlns="http://www.w3.org/2000/svg">
<g clip-path="url(#clip0_1778_9494)">
<path d="M66.6974 144C93.7055 144 115.6 139.951 115.6 134.957C115.6 129.962 93.7055 125.913 66.6974 125.913C39.6893 125.913 17.7949 129.962 17.7949 134.957C17.7949 139.951 39.6893 144 66.6974 144Z" fill="#3A3D3D"/>
<path d="M25.9424 49.7743C25.9424 36.5994 44.4193 25.9189 67.2117 25.9189C90.0042 25.9189 108.481 36.5994 108.481 49.7743" stroke="#3A3D3D" stroke-width="2" stroke-miterlimit="10"/>
<path d="M80.1881 35.1045H46.6133C39.9727 23.403 39.9727 11.7015 46.6133 0H80.1881C70.903 11.7015 70.903 23.403 80.1881 35.1045Z" fill="#641E20"/>
<path d="M70.3283 4.17871H51.4092V6.68617H70.3283V4.17871Z" fill="#EC933A"/>
<path d="M70.3291 12.3984H45.2812V13.2343H70.3291V12.3984Z" fill="white"/>
<path d="M70.3291 16.7168H45.2812V17.5526H70.3291V16.7168Z" fill="white"/>
<path d="M70.3291 21.0352H45.2812V21.871H70.3291V21.0352Z" fill="white"/>
<path d="M93.5928 112.811C93.5928 123.944 100.273 132.953 108.528 132.953L93.5928 112.811Z" fill="#3A3D3D"/>
<path d="M108.528 132.952C108.528 121.694 115.983 112.584 125.195 112.584L108.528 132.952Z" fill="#EC933A"/>
<path d="M99.0039 113.819C99.0039 124.395 103.264 132.952 108.528 132.952L99.0039 113.819Z" fill="#EC933A"/>
<path d="M108.528 132.952C108.528 118.566 117.145 106.926 127.793 106.926L108.528 132.952Z" fill="#3A3D3D"/>
<path d="M105.386 133.094C105.386 133.094 107.504 133.026 108.142 132.551C108.78 132.075 111.4 131.508 111.559 132.27C111.717 133.032 114.742 136.061 112.35 136.081C109.959 136.101 106.794 135.692 106.157 135.286C105.52 134.88 105.386 133.094 105.386 133.094Z" fill="#A8A8A8"/>
<path opacity="0.2" d="M112.393 135.816C110.002 135.837 106.837 135.427 106.2 135.021C105.714 134.712 105.521 133.603 105.456 133.092C105.412 133.094 105.386 133.095 105.386 133.095C105.386 133.095 105.52 134.881 106.157 135.287C106.794 135.692 109.959 136.102 112.35 136.082C113.041 136.076 113.279 135.819 113.266 135.439C113.17 135.669 112.907 135.812 112.393 135.816Z" fill="black"/>
<path d="M59.5192 27.4227C59.7136 27.5159 59.9475 27.377 60.0622 27.1881C60.4986 26.4691 59.695 25.5419 59.869 24.71C60.0084 24.0435 60.7328 23.6478 60.8809 22.9834C61.0249 22.3377 60.5814 21.61 60.8811 21.0258C61.116 20.5681 61.7025 20.4476 62.1933 20.5278C62.6841 20.608 63.15 20.8336 63.6458 20.8652C64.3065 20.9073 64.9363 20.6032 65.5823 20.4525C66.2284 20.3019 67.0164 20.3609 67.3965 20.9275C67.8845 21.6551 67.3895 22.6682 67.5594 23.5389C67.6943 24.2303 68.2479 24.8028 68.2598 25.5083C68.264 25.7591 67.6335 25.5571 67.667 25.8054C67.7005 26.0538 67.4025 25.8351 67.6408 25.8056C67.738 25.7807 67.8252 25.7241 67.8896 25.6439C67.9541 25.5638 67.9925 25.4643 67.9992 25.3598C68.0276 25.1529 68.3994 25.084 68.3951 24.8751C68.385 24.3855 69.2316 24.7156 69.3711 24.2481C69.6917 23.1582 69.6259 21.984 69.1857 20.9407C68.9959 20.4953 68.7373 20.0738 68.6457 19.5956C68.5213 18.9465 68.717 18.2496 68.5119 17.6232C68.2354 16.7791 67.3207 16.3488 66.4714 16.2614C65.6222 16.174 64.7592 16.3304 63.9147 16.2015C63.1583 16.0861 62.426 15.7433 61.663 15.793C60.7475 15.8526 59.9508 16.4693 59.3162 17.1618C58.6815 17.8543 58.1432 18.6508 57.4224 19.244C57.2018 19.4028 56.9982 19.586 56.8152 19.7906C56.4481 20.2583 56.4109 20.9247 56.513 21.5202C56.6151 22.1158 56.8373 22.6839 56.9312 23.281C57.0193 23.842 56.9921 24.4153 57.0301 24.9825C57.0681 25.5497 57.1807 26.1342 57.5074 26.5887C57.6383 26.7744 57.8079 26.9264 58.0034 27.0332C58.1989 27.14 58.4151 27.1987 58.6356 27.205C58.7884 27.2086 58.9174 27.0651 59.0716 27.1025C59.2643 27.1493 59.3481 27.3407 59.5192 27.4227Z" fill="#3A3D3D"/>
<path d="M52.9854 68.6446L53.5516 72.2815L54.6841 70.6744L54.0369 68.2217L52.9854 68.6446Z" fill="#A0616A"/>
<path d="M53.7132 41.1562L52.8216 43.613C52.8216 43.613 51.9336 56.1266 51.9336 57.057C51.9336 57.9874 52.5807 69.9129 52.8234 70.4204C52.8234 70.4204 53.875 68.8134 55.2502 69.0672C56.6254 69.3209 56.0591 64.8382 56.0591 64.8382L57.3534 53.7585L57.1107 48.1763L53.7132 41.1562Z" fill="#A14141"/>
<path opacity="0.1" d="M53.7132 41.1562L52.8216 43.613C52.8216 43.613 51.9336 56.1266 51.9336 57.057C51.9336 57.9874 52.5807 69.9129 52.8234 70.4204C52.8234 70.4204 53.875 68.8134 55.2502 69.0672C56.6254 69.3209 56.0591 64.8382 56.0591 64.8382L57.3534 53.7585L57.1107 48.1763L53.7132 41.1562Z" fill="black"/>
<path d="M59.2139 27.6237C59.2139 27.6237 61.8833 34.7283 60.3464 36.0815C58.8094 37.4348 68.921 33.7979 68.921 33.7979L68.6783 32.8676C68.6783 32.8676 65.3617 31.5143 66.9796 27.6237C68.5975 23.7331 59.2139 27.6237 59.2139 27.6237Z" fill="#A0616A"/>
<path opacity="0.1" d="M59.2139 27.6237C59.2139 27.6237 61.8833 34.7283 60.3464 36.0815C58.8094 37.4348 68.921 33.7979 68.921 33.7979L68.6783 32.8676C68.6783 32.8676 65.3617 31.5143 66.9796 27.6237C68.5975 23.7331 59.2139 27.6237 59.2139 27.6237Z" fill="black"/>
<path d="M55.0079 122.521C55.0079 122.521 53.8754 122.183 53.2283 123.028C52.5811 123.874 50.1544 125.989 50.1544 125.989C50.1544 125.989 45.4626 125.481 44.8154 127.934C44.1683 130.387 52.1767 130.387 54.1181 129.795C56.0595 129.203 56.464 129.795 56.464 129.795C56.464 129.795 62.4501 130.302 62.4501 129.287C62.4501 128.272 61.8838 124.805 61.8838 124.805L55.0079 122.521Z" fill="#A14141"/>
<path d="M74.0179 128.187L72.9663 131.571C72.9663 131.571 69.8114 136.138 71.5911 137.068C73.3707 137.999 79.6804 138.929 79.6804 136.476V131.824C79.6804 131.824 79.0333 128.526 78.3861 128.187C77.739 127.849 74.0179 128.187 74.0179 128.187Z" fill="#A14141"/>
<path d="M56.1534 67.4068C56.1534 67.4068 52.7428 70.5052 52.8237 70.928C52.9046 71.3509 54.5224 98.5006 54.5224 98.5006L55.4123 116.093C55.4123 116.093 54.2798 120.237 54.846 121.168C55.4123 122.098 54.0371 122.352 54.0371 122.352C54.0371 122.352 59.8614 127.849 62.2882 125.481L64.5532 94.7792L70.7819 117.108C70.7819 117.108 71.8335 128.949 73.0469 128.949C74.2603 128.949 79.1948 129.203 79.1139 128.526C79.033 127.849 79.3566 122.69 78.7903 119.645C78.2241 116.6 74.4221 92.4956 74.4221 92.4956C74.4221 92.4956 74.0953 71.8309 74.9463 69.8993C75.7973 67.9678 74.503 65.9379 74.503 65.9379L68.8405 63.6543L62.0455 64.5001L56.1534 67.4068Z" fill="#3A3D3D"/>
<path d="M63.016 30.5002C66.1433 30.5002 68.6785 27.8495 68.6785 24.5797C68.6785 21.3099 66.1433 18.6592 63.016 18.6592C59.8887 18.6592 57.3535 21.3099 57.3535 24.5797C57.3535 27.8495 59.8887 30.5002 63.016 30.5002Z" fill="#A0616A"/>
<path d="M76.7676 37.3511C76.4879 36.5236 76.0164 35.7814 75.3952 35.191C74.7741 34.6007 74.0227 34.1804 73.2083 33.9679C71.5766 33.5388 69.9805 32.9731 68.4356 32.2764C68.4356 32.2764 62.6922 35.152 61.5597 35.152C60.4272 35.152 60.4272 34.3908 60.4272 34.3908C60.4272 34.3908 57.515 37.6048 55.9781 37.9431C54.4411 38.2814 52.1761 42.2566 52.985 44.4557C53.5344 45.8655 54.3299 47.1561 55.3309 48.2617C55.3309 48.2617 55.0073 60.1027 56.059 62.3017C56.059 62.3017 53.4704 67.461 55.8972 67.7993C58.324 68.1376 67.6267 66.9535 69.2445 68.1376C70.8624 69.3217 73.8554 67.8839 74.2599 69.4909C74.6644 71.0979 75.5542 71.4362 75.5542 71.4362C75.5542 71.4362 76.9294 69.1526 76.1204 67.7993C75.3115 66.4461 76.7676 37.3511 76.7676 37.3511Z" fill="#A14141"/>
<path d="M70.7816 69.1523L69.4873 69.9981C69.4873 69.9981 70.8625 74.9883 71.4287 75.1574C71.995 75.3266 73.3278 70.8906 73.3278 70.8906L70.7816 69.1523Z" fill="#A0616A"/>
<path d="M58.5485 26.8309C58.7429 26.9241 58.9768 26.7852 59.0914 26.5963C59.5279 25.8773 58.7243 24.9501 58.8983 24.1182C59.0377 23.4517 59.7621 23.056 59.9102 22.3916C60.0542 21.7459 59.6107 21.0182 59.9104 20.434C60.1452 19.9763 60.7318 19.8558 61.2226 19.936C61.7134 20.0162 62.1792 20.2418 62.6751 20.2734C63.3358 20.3155 63.9656 20.0114 64.6116 19.8607C65.2577 19.7101 66.0457 19.7691 66.4258 20.3357C66.9138 21.0633 66.4188 22.0764 66.5887 22.9471C66.7236 23.6385 68.2609 24.1238 68.4004 23.6563C68.721 22.5664 68.6552 21.3922 68.215 20.3489C68.0252 19.9035 67.7666 19.482 67.675 19.0038C67.5506 18.3547 67.7463 17.6578 67.5412 17.0314C67.2647 16.1873 66.35 15.757 65.5007 15.6696C64.6515 15.5822 63.7885 15.7386 62.944 15.6097C62.1876 15.4943 61.4553 15.1515 60.6923 15.2012C59.7768 15.2608 58.9801 15.8775 58.3455 16.57C57.7108 17.2625 57.1725 18.059 56.4517 18.6522C56.2311 18.811 56.0275 18.9943 55.8445 19.1988C55.4774 19.6665 55.4402 20.3329 55.5423 20.9284C55.6444 21.524 55.8667 22.0921 55.9605 22.6892C56.0486 23.2502 56.0214 23.8235 56.0594 24.3907C56.0974 24.9579 56.21 25.5424 56.5367 25.9969C56.6676 26.1826 56.8372 26.3346 57.0327 26.4414C57.2282 26.5482 57.4444 26.6069 57.6649 26.6132C57.8177 26.6169 57.9467 26.4733 58.1009 26.5108C58.2936 26.5575 58.3774 26.7489 58.5485 26.8309Z" fill="#3A3D3D"/>
<path opacity="0.1" d="M73.5723 38.8307L76.2013 37.3506C76.2013 37.3506 82.5919 53.2513 81.0549 57.6494C79.5179 62.0475 73.6128 71.0974 73.6128 71.0974C73.6128 71.0974 68.921 70.0825 69.4063 69.0675C69.8917 68.0526 73.0465 61.54 73.2892 60.6942C73.5319 59.8485 75.1497 54.3509 74.4217 53.7588C73.6936 53.1668 72.278 39.4228 72.278 39.4228L73.5723 38.8307Z" fill="black"/>
<path d="M73.532 36.4199L76.7677 37.3503C76.7677 37.3503 83.1583 53.251 81.6213 57.6491C80.0843 62.0472 74.1792 71.0971 74.1792 71.0971C74.1792 71.0971 69.4874 70.0822 69.9727 69.0672C70.4581 68.0523 73.6129 61.5397 73.8556 60.6939C74.0983 59.8482 75.7161 54.3506 74.9881 53.7585C74.26 53.1665 70.7816 38.5344 70.7816 38.5344L73.532 36.4199Z" fill="#A14141"/>
<path d="M108.481 49.7744C108.481 63.5875 90.0042 74.7851 67.2117 74.7851C44.4193 74.7851 25.9424 63.5875 25.9424 49.7744" stroke="#3A3D3D" stroke-width="2" stroke-miterlimit="10"/>
<path d="M100.974 75.1406C91.7495 80.3425 79.713 83.4904 66.5461 83.4904C53.9218 83.4904 42.3366 80.5966 33.2725 75.7732" stroke="#3A3D3D" stroke-width="2" stroke-miterlimit="10"/>
<path d="M87.8213 19.4619C105.377 24.2864 117.88 34.8987 119.043 47.3976" stroke="#3A3D3D" stroke-width="2" stroke-miterlimit="10"/>
<path d="M16.4941 39.2733C19.4522 33.5889 24.856 28.5864 31.9361 24.7432" stroke="#3A3D3D" stroke-width="2" stroke-miterlimit="10"/>
<path d="M52.7881 100.123H86.3629C93.0035 88.4215 93.0035 76.72 86.3629 65.0186H52.7881C62.0732 76.72 62.0732 88.4215 52.7881 100.123Z" fill="#641E20"/>
<path d="M82.8156 71.7051H63.8965V74.2125H82.8156V71.7051Z" fill="#EC933A"/>
<path d="M87.4795 79.2275H62.4316V80.0634H87.4795V79.2275Z" fill="white"/>
<path d="M87.4795 83.5459H62.4316V84.3817H87.4795V83.5459Z" fill="white"/>
<path d="M38.5553 76.2959H4.98046C-1.66015 64.5944 -1.66015 52.8929 4.98046 41.1914H38.5553C29.2701 52.8929 29.2701 64.5944 38.5553 76.2959Z" fill="#641E20"/>
<path d="M27.6301 45.3701H8.71094V47.8776H27.6301V45.3701Z" fill="#EC933A"/>
<path d="M29.6289 52.335H4.58105V53.1708H29.6289V52.335Z" fill="white"/>
<path d="M29.6289 56.6533H4.58105V57.4891H29.6289V56.6533Z" fill="white"/>
<path d="M29.6289 60.9727H4.58105V61.8085H29.6289V60.9727Z" fill="white"/>
<path d="M29.6289 65.291H4.58105V66.1268H29.6289V65.291Z" fill="white"/>
<path d="M93.4443 60.125H127.019C133.66 48.4235 133.66 36.722 127.019 25.0205H93.4443C102.729 36.722 102.729 48.4235 93.4443 60.125Z" fill="#641E20"/>
<path d="M123.073 28.5029H104.154V31.0104H123.073V28.5029Z" fill="#EC933A"/>
<path d="M127.203 35.4688H102.155V36.3046H127.203V35.4688Z" fill="white"/>
</g>
<defs>
<clipPath id="clip0_1778_9494">
<rect width="132" height="144" fill="white"/>
</clipPath>
</defs>
</svg>
