<svg width="31" height="29" viewBox="0 0 31 29" fill="none" xmlns="http://www.w3.org/2000/svg">
<path d="M3.83495 15.6117C3.45359 15.826 3.13787 16.1288 2.91837 16.4908C2.69886 16.8528 2.58301 17.2617 2.58203 17.6779V21.5929C2.58301 22.0091 2.69886 22.418 2.91837 22.78C3.13787 23.142 3.45359 23.4448 3.83495 23.6592L7.70995 25.8342C8.11174 26.06 8.57164 26.1793 9.04036 26.1793C9.50909 26.1793 9.96899 26.06 10.3708 25.8342L15.4987 22.9583V16.3125L9.04036 12.6875L3.83495 15.6117Z" stroke="white" stroke-width="2" stroke-linecap="round" stroke-linejoin="round"/>
<path d="M9.04047 19.9379L2.91797 16.4941" stroke="white" stroke-width="2" stroke-linecap="round" stroke-linejoin="round"/>
<path d="M9.04297 19.9375L15.5013 16.3125" stroke="white" stroke-width="2" stroke-linecap="round" stroke-linejoin="round"/>
<path d="M9.04297 19.9375V26.1846" stroke="white" stroke-width="2" stroke-linecap="round" stroke-linejoin="round"/>
<path d="M15.5 16.3125V22.9583L20.6279 25.8342C21.0297 26.06 21.4896 26.1793 21.9583 26.1793C22.4271 26.1793 22.887 26.06 23.2888 25.8342L27.1638 23.6592C27.5451 23.4448 27.8608 23.142 28.0803 22.78C28.2998 22.418 28.4157 22.0091 28.4167 21.5929V17.6779C28.4157 17.2617 28.2998 16.8528 28.0803 16.4908C27.8608 16.1288 27.5451 15.826 27.1638 15.6117L21.9583 12.6875L15.5 16.3125Z" stroke="white" stroke-width="2" stroke-linecap="round" stroke-linejoin="round"/>
<path d="M21.9583 19.9375L15.5 16.3125" stroke="white" stroke-width="2" stroke-linecap="round" stroke-linejoin="round"/>
<path d="M21.957 19.9379L28.0795 16.4941" stroke="white" stroke-width="2" stroke-linecap="round" stroke-linejoin="round"/>
<path d="M21.957 19.9375V26.1846" stroke="white" stroke-width="2" stroke-linecap="round" stroke-linejoin="round"/>
<path d="M10.2959 5.34044C9.91453 5.55477 9.59881 5.85761 9.3793 6.21961C9.1598 6.58161 9.04394 6.9905 9.04297 7.40669V12.6871L15.5013 16.3121L21.9596 12.6871V7.40669C21.9587 6.9905 21.8428 6.58161 21.6233 6.21961C21.4038 5.85761 21.0881 5.55477 20.7067 5.34044L16.8317 3.16544C16.4299 2.93961 15.97 2.82031 15.5013 2.82031C15.0326 2.82031 14.5727 2.93961 14.1709 3.16544L10.2959 5.34044Z" stroke="white" stroke-width="2" stroke-linecap="round" stroke-linejoin="round"/>
<path d="M15.5014 9.66641L9.37891 6.22266" stroke="white" stroke-width="2" stroke-linecap="round" stroke-linejoin="round"/>
<path d="M15.5 9.66641L21.6225 6.22266" stroke="white" stroke-width="2" stroke-linecap="round" stroke-linejoin="round"/>
<path d="M15.5 16.3118V9.66602" stroke="white" stroke-width="2" stroke-linecap="round" stroke-linejoin="round"/>
</svg>
