<svg width="220" height="226" viewBox="0 0 220 226" fill="none" xmlns="http://www.w3.org/2000/svg">
<g clip-path="url(#clip0_2637_10336)">
<path d="M219.998 222.462C219.983 222.804 219.874 223.042 219.76 223.042H114.522C114.411 223.042 114.309 222.811 114.291 222.48C114.269 222.056 114.377 221.691 114.512 221.691H219.778C219.911 221.691 220.017 222.044 219.998 222.462Z" fill="#F2F2F2"/>
<path d="M38.6212 8.46684C39.6009 8.46684 40.395 7.67721 40.395 6.70315C40.395 5.72909 39.6009 4.93945 38.6212 4.93945C37.6416 4.93945 36.8474 5.72909 36.8474 6.70315C36.8474 7.67721 37.6416 8.46684 38.6212 8.46684Z" fill="white"/>
<path d="M45.3547 8.46684C46.3344 8.46684 47.1285 7.67721 47.1285 6.70315C47.1285 5.72909 46.3344 4.93945 45.3547 4.93945C44.3751 4.93945 43.5809 5.72909 43.5809 6.70315C43.5809 7.67721 44.3751 8.46684 45.3547 8.46684Z" fill="white"/>
<path d="M52.0868 8.46684C53.0664 8.46684 53.8606 7.67721 53.8606 6.70315C53.8606 5.72909 53.0664 4.93945 52.0868 4.93945C51.1071 4.93945 50.313 5.72909 50.313 6.70315C50.313 7.67721 51.1071 8.46684 52.0868 8.46684Z" fill="white"/>
<path d="M175.216 110.989L173.179 125.395L164.578 140.7C162.086 142.951 164.35 148.353 164.35 148.353L166.614 146.779L167.067 144.078C167.067 144.078 177.027 132.823 179.517 130.122C182.007 127.42 182.913 112.565 182.913 112.565L175.216 110.989Z" fill="#9F616A"/>
<path d="M182.714 208.679C182.714 208.679 182.262 213.856 182.487 215.207C182.713 216.557 189.505 214.981 189.505 214.981C188.373 212.73 187.694 205.978 187.694 205.978L182.714 208.679Z" fill="#9F616A"/>
<path d="M148.984 210.031C148.984 210.031 148.305 217.235 148.531 218.584C148.757 219.933 155.549 218.358 155.549 218.358C154.417 216.107 153.738 209.354 153.738 209.354L148.984 210.031Z" fill="#9F616A"/>
<path d="M162.857 94.5621C167.404 94.5621 171.09 90.8967 171.09 86.3753C171.09 81.8538 167.404 78.1885 162.857 78.1885C158.309 78.1885 154.623 81.8538 154.623 86.3753C154.623 90.8967 158.309 94.5621 162.857 94.5621Z" fill="#9F616A"/>
<path d="M161.436 94.1116C162.794 95.9126 162.115 99.0637 162.115 99.0637C162.115 99.0637 175.924 115.047 178.414 115.047C180.905 115.047 180.452 103.792 180.452 103.792C180.452 103.792 176.829 99.5166 174.791 98.6142C172.754 97.7119 169.132 88.0352 169.132 88.0352C169.132 88.0352 160.077 92.3106 161.436 94.1116Z" fill="#9F616A"/>
<path d="M152.153 124.724L143.292 139.524C141.675 142.17 144.685 155.56 144.685 155.56L146.042 184.146L148.305 212.949V216.1L155.775 215.874L158.267 185.045L161.889 161.861L167.775 179.642L177.508 201.475C178.34 204.168 179.361 206.8 180.565 209.35L182.376 212.501L189.167 211.712L178.867 177.168L176.83 154.66C176.603 142.055 172.53 135.078 172.53 135.078V132.377L152.153 124.724Z" fill="#090814"/>
<path d="M183.167 214.083C183.167 214.083 182.035 212.282 182.035 212.957C182.035 213.633 179.092 215.435 179.092 215.435C179.092 215.435 176.149 214.985 175.696 218.361C175.243 221.738 179.771 222.413 180.903 222.187C182.035 221.961 184.978 222.413 184.978 222.413C186.929 222.698 188.912 222.698 190.864 222.413C194.486 221.962 191.316 215.885 190.864 214.76C190.411 213.634 188.147 214.534 188.147 214.534C184.073 215.658 183.167 214.083 183.167 214.083Z" fill="#090814"/>
<path d="M149.211 217.458C149.211 217.458 148.079 215.657 148.079 216.332C148.079 217.007 145.136 218.809 145.136 218.809C145.136 218.809 142.193 218.359 141.74 221.736C141.287 225.112 145.815 225.787 146.947 225.562C148.078 225.336 151.022 225.788 151.022 225.788C152.973 226.074 154.956 226.074 156.907 225.788C160.529 225.338 157.36 219.261 156.907 218.135C156.454 217.009 154.191 217.909 154.191 217.909C150.116 219.033 149.211 217.458 149.211 217.458Z" fill="#090814"/>
<path d="M164.831 98.8388C159.172 92.9866 153.06 107.617 153.06 107.617C153.06 107.617 151.022 113.019 152.607 115.945C154.191 118.872 151.022 125.399 151.022 125.399C158.775 131.961 166.5 138.026 173.66 133.727C172.754 128.325 175.697 125.624 177.735 120.448C179.772 115.271 183.62 116.396 183.62 116.396C183.62 116.396 183.393 110.544 182.715 105.817C182.037 101.09 175.924 99.3154 175.924 99.3154C174.816 101.295 170.491 104.69 164.831 98.8388Z" fill="#EC933A"/>
<path d="M154.869 108.292L152.831 122.697L144.23 138.003C141.738 140.254 144.003 145.656 144.003 145.656L146.266 144.081L146.719 141.38C146.719 141.38 156.68 130.126 159.17 127.425C161.66 124.723 162.565 109.868 162.565 109.868L154.869 108.292Z" fill="#9F616A"/>
<path d="M153.512 110.543L163.019 111.668C163.019 111.668 163.699 100.64 162.263 97.8819C160.827 95.1238 155.549 98.1616 155.549 98.1616C154.191 98.3882 153.512 110.543 153.512 110.543Z" fill="#EC933A"/>
<path d="M153.639 81.6356C159.728 84.6615 156.215 92.9235 156.935 96.3901C158.112 102.069 175.47 99.1827 175.47 99.1827C177.582 98.805 178.869 75.4427 167.304 75.6478C161.472 75.7529 157.439 77.5926 153.639 81.6356Z" fill="#090814"/>
<path d="M97.9955 146.471L13.732 146.499C11.6736 146.507 9.64954 145.975 7.86464 144.955C6.07975 143.936 4.59736 142.466 3.56753 140.694C2.53769 138.922 1.99694 136.91 2.00001 134.864C2.00308 132.817 2.54987 130.807 3.58502 129.038L45.6899 52.8252C46.7171 51.0548 48.1948 49.5845 49.9746 48.5619C51.7544 47.5394 53.7736 47.0007 55.8291 47C57.8847 46.9993 59.9042 47.5366 61.6848 48.5579C63.4653 49.5792 64.9441 51.0485 65.9725 52.8181L108.137 129.01C109.163 130.78 109.703 132.787 109.702 134.83C109.701 136.873 109.16 138.88 108.133 140.649C107.105 142.418 105.628 143.887 103.848 144.909C102.069 145.931 100.051 146.469 97.9963 146.469L97.9955 146.471ZM3.05882 134.858C3.05882 136.678 12.3568 132.756 13.32 134.414C15.247 137.73 9.88011 145.449 13.7314 145.448C13.7314 145.448 105.294 143.436 107.219 140.12C108.164 138.513 108.662 136.684 108.661 134.823C108.66 132.961 108.161 131.133 107.215 129.527L65.0514 53.3346C64.1238 51.7196 62.7807 50.3792 61.1601 49.4508C59.5394 48.5224 57.6995 48.0395 55.8292 48.0517C51.9796 48.0517 3.05882 133.039 3.05853 134.86L3.05882 134.858Z" fill="#3F3D56"/>
<path d="M58.0171 136.635C74.2189 136.635 87.3531 123.575 87.3531 107.466C87.3531 91.3562 74.2189 78.2969 58.0171 78.2969C41.8153 78.2969 28.6811 91.3562 28.6811 107.466C28.6811 123.575 41.8153 136.635 58.0171 136.635Z" fill="#EC933A"/>
<path d="M55.696 114.954L55.3883 89.1699H60.6214L60.2878 114.954H55.696ZM58.0304 125.762C57.5745 125.769 57.122 125.684 56.7006 125.51C56.2793 125.337 55.8981 125.08 55.5807 124.754C55.2596 124.437 55.0049 124.059 54.8311 123.643C54.6572 123.227 54.5677 122.782 54.5677 122.331C54.5677 121.881 54.6572 121.435 54.8311 121.019C55.0049 120.603 55.2596 120.226 55.5807 119.908C55.8981 119.583 56.2793 119.326 56.7006 119.152C57.122 118.979 57.5745 118.893 58.0304 118.901C58.4845 118.893 58.9354 118.978 59.3547 119.151C59.7741 119.325 60.1529 119.582 60.4674 119.908C60.7913 120.226 61.047 120.605 61.219 121.024C61.3909 121.443 61.4756 121.892 61.4678 122.344C61.4739 122.792 61.3884 123.237 61.2164 123.651C61.0444 124.066 60.7896 124.441 60.4674 124.755C60.1529 125.08 59.7741 125.338 59.3547 125.511C58.9354 125.685 58.4845 125.77 58.0304 125.762V125.762Z" fill="white"/>
</g>
<defs>
<clipPath id="clip0_2637_10336">
<rect width="220" height="226" fill="white"/>
</clipPath>
</defs>
</svg>
