<svg width="176" height="180" viewBox="0 0 176 180" fill="none" xmlns="http://www.w3.org/2000/svg">
<g clip-path="url(#clip0_1778_9604)">
<path d="M102.904 175.878H98.342L95.6973 150.258H102.747L102.904 175.878Z" fill="#ED9DA0"/>
<path d="M93.9015 179.997C93.4215 179.997 92.9938 179.986 92.673 179.954C91.462 179.837 90.3056 178.896 89.7252 178.348C89.5982 178.227 89.5098 178.069 89.4723 177.893C89.4348 177.718 89.4499 177.534 89.5158 177.368C89.5638 177.249 89.6367 177.142 89.7292 177.056C89.8217 176.969 89.9314 176.906 90.0502 176.871L93.2512 175.909L98.4355 172.232L98.4944 172.343C98.7764 172.871 99.0109 173.425 99.1949 173.999C99.2292 174.099 99.2425 174.206 99.2339 174.312C99.2252 174.418 99.1948 174.521 99.1447 174.614C99.0855 174.706 99.0023 174.78 98.9048 174.824C98.9986 174.928 99.2931 175.136 100.199 175.288C101.523 175.508 101.798 174.068 101.811 174.008L101.82 173.96L101.859 173.932C102.49 173.506 102.876 173.313 103.009 173.355C103.092 173.38 103.232 173.426 103.607 177.348C103.79 177.959 103.832 178.607 103.729 179.239C103.535 180.179 99.6313 179.856 98.8503 179.78C98.8283 179.782 95.9069 180 93.9037 180L93.9015 179.997Z" fill="#641E20"/>
<path d="M90.9676 175.878H86.4074L83.7627 150.258H90.8127L90.9676 175.878Z" fill="#ED9DA0"/>
<path d="M81.1267 179.998C80.606 179.998 80.1421 179.986 79.7942 179.952C78.4806 179.825 77.2262 178.805 76.5965 178.21C76.4587 178.079 76.3628 177.907 76.3221 177.717C76.2814 177.526 76.2979 177.327 76.3693 177.147C76.4214 177.017 76.5006 176.901 76.6009 176.808C76.7013 176.714 76.8204 176.646 76.9493 176.607L80.4216 175.565L86.0451 171.574L86.1091 171.694C86.4149 172.266 86.6693 172.868 86.8688 173.49C86.906 173.599 86.9204 173.715 86.911 173.83C86.9016 173.945 86.8686 174.057 86.8143 174.157C86.7501 174.258 86.6597 174.337 86.5539 174.386C86.6556 174.498 86.9752 174.724 87.9575 174.889C89.3942 175.128 89.6924 173.565 89.7067 173.5L89.7161 173.448L89.7588 173.418C90.4401 172.956 90.8618 172.746 91.0062 172.791C91.0961 172.818 91.2479 172.868 91.6547 177.123C91.8531 177.786 91.8983 178.489 91.7866 179.173C91.5761 180.194 87.3415 179.843 86.4941 179.761C86.4704 179.763 83.3011 180 81.1284 180L81.1267 179.998Z" fill="#641E20"/>
<path d="M175.745 9.64005H0.254712C0.187158 9.64005 0.122368 9.61183 0.0746002 9.56162C0.0268322 9.5114 0 9.44329 0 9.37227C0 9.30125 0.0268322 9.23314 0.0746002 9.18292C0.122368 9.1327 0.187158 9.10449 0.254712 9.10449H175.745C175.813 9.10449 175.878 9.1327 175.925 9.18292C175.973 9.23314 176 9.30125 176 9.37227C176 9.44329 175.973 9.5114 175.925 9.56162C175.878 9.61183 175.813 9.64005 175.745 9.64005Z" fill="#3A3D3D"/>
<path d="M5.98739 5.8911C7.53481 5.8911 8.78924 4.57233 8.78924 2.94555C8.78924 1.31877 7.53481 0 5.98739 0C4.43998 0 3.18555 1.31877 3.18555 2.94555C3.18555 4.57233 4.43998 5.8911 5.98739 5.8911Z" fill="#3A3D3D"/>
<path d="M15.6661 5.8911C17.2135 5.8911 18.4679 4.57233 18.4679 2.94555C18.4679 1.31877 17.2135 0 15.6661 0C14.1187 0 12.8643 1.31877 12.8643 2.94555C12.8643 4.57233 14.1187 5.8911 15.6661 5.8911Z" fill="#3A3D3D"/>
<path d="M25.3453 5.8911C26.8927 5.8911 28.1471 4.57233 28.1471 2.94555C28.1471 1.31877 26.8927 0 25.3453 0C23.7979 0 22.5435 1.31877 22.5435 2.94555C22.5435 4.57233 23.7979 5.8911 25.3453 5.8911Z" fill="#3A3D3D"/>
<path d="M169.946 1.80158H163.069C162.934 1.80158 162.804 1.74515 162.709 1.64472C162.613 1.54428 162.56 1.40806 162.56 1.26603C162.56 1.12399 162.613 0.987765 162.709 0.887329C162.804 0.786893 162.934 0.730469 163.069 0.730469H169.946C170.081 0.730469 170.211 0.786893 170.306 0.887329C170.402 0.987765 170.455 1.12399 170.455 1.26603C170.455 1.40806 170.402 1.54428 170.306 1.64472C170.211 1.74515 170.081 1.80158 169.946 1.80158Z" fill="#3A3D3D"/>
<path d="M169.946 3.81037H163.069C162.934 3.81037 162.804 3.75394 162.709 3.65351C162.613 3.55307 162.56 3.41685 162.56 3.27481C162.56 3.13278 162.613 2.99655 162.709 2.89612C162.804 2.79568 162.934 2.73926 163.069 2.73926H169.946C170.081 2.73926 170.211 2.79568 170.306 2.89612C170.402 2.99655 170.455 3.13278 170.455 3.27481C170.455 3.41685 170.402 3.55307 170.306 3.65351C170.211 3.75394 170.081 3.81037 169.946 3.81037Z" fill="#3A3D3D"/>
<path d="M169.946 5.81818H163.069C162.934 5.81818 162.804 5.76176 162.709 5.66132C162.613 5.56088 162.56 5.42466 162.56 5.28262C162.56 5.14059 162.613 5.00437 162.709 4.90393C162.804 4.80349 162.934 4.74707 163.069 4.74707H169.946C170.081 4.74707 170.211 4.80349 170.306 4.90393C170.402 5.00437 170.455 5.14059 170.455 5.28262C170.455 5.42466 170.402 5.56088 170.306 5.66132C170.211 5.76176 170.081 5.81818 169.946 5.81818Z" fill="#3A3D3D"/>
<path d="M166.109 21.749H5.28662V111.325H166.109V21.749Z" fill="#F0F0F0"/>
<path d="M166.109 38.5147V37.6368H134.803V21.748H133.968V37.6368H102.662V21.748H101.826V37.6368H70.5202V21.748H69.6851V37.6368H38.3789V21.748H37.5438V37.6368H5.28662V38.5147H37.5433V56.0677H5.28662V56.9456H37.5433V74.4986H5.28662V75.3765H37.5433V92.9262H5.28662V93.8042H37.5433V111.322H38.3785V93.807H69.6847V111.325H70.5198V93.807H101.826V111.325H102.661V93.807H133.967V111.325H134.802V93.807H166.108V92.929H134.803V75.3786H166.109V74.5007H134.803V56.9473H166.109V56.0693H134.803V38.5147H166.109ZM69.6847 92.9274H38.3789V75.3786H69.6847V92.9274ZM69.6847 74.4993H38.3789V56.9473H69.6847V74.4993ZM69.6847 56.0679H38.3789V38.5147H69.6847V56.0679ZM101.826 92.9276H70.5202V75.3786H101.826V92.9276ZM101.826 74.4995H70.5202V56.9473H101.826V74.4995ZM101.826 56.0681H70.5202V38.5147H101.826V56.0681ZM133.967 92.9278H102.662V75.3786H133.967V92.9278ZM133.967 74.4997H102.662V56.9473H133.967V74.4997ZM133.967 56.0684H102.662V38.5159H133.967V56.0684Z" fill="white"/>
<path d="M55.366 42.7852H44.6069V53.7354H55.366V42.7852Z" fill="#3A3D3D"/>
<path d="M154.421 78.2422H143.662V89.1924H154.421V78.2422Z" fill="#3A3D3D"/>
<path d="M58.7083 96.4502H47.9492V107.4H58.7083V96.4502Z" fill="#3A3D3D"/>
<path d="M61.888 40.7529H51.1289V51.7032H61.888V40.7529Z" fill="#EC933A"/>
<path d="M112.464 86.2722L125.231 74.3135L128.998 76.2755L113.685 93.1602L112.464 86.2722Z" fill="#ED9DA0"/>
<path d="M126.912 78.4229C128.59 78.4229 129.951 76.9928 129.951 75.2286C129.951 73.4644 128.59 72.0342 126.912 72.0342C125.234 72.0342 123.874 73.4644 123.874 75.2286C123.874 76.9928 125.234 78.4229 126.912 78.4229Z" fill="#ED9DA0"/>
<path d="M103.051 106.256C103.051 106.256 110.647 105.662 108.215 118.724C105.784 131.787 103.859 168.131 103.859 168.131H96.1855L93.4887 120.467L91.4484 168.131L83.8958 167.518L79.9582 116.35C79.9582 116.35 78.133 112.235 79.9582 109.395C81.7834 106.555 103.051 106.256 103.051 106.256Z" fill="#641E20"/>
<path d="M98.189 71.4384L100.299 70.2507C100.299 70.2507 105.495 69.7846 107.616 76.2018L113.239 85.1318L122.355 76.8266L126.305 79.7014L114.816 94.1157C114.816 94.1157 113.816 98.1106 110.039 94.7573C106.262 91.4039 99.7082 80.7021 99.7082 80.7021L98.189 71.4384Z" fill="#3A3D3D"/>
<path d="M90.5363 45.5215C81.8712 45.5215 79.4458 55.5284 79.4458 61.1739C79.4458 66.8194 84.4113 65.9655 90.5363 65.9655C93.1654 65.9655 95.5791 66.1214 97.481 65.8545L98.3952 63.5076L99.131 65.4523C100.691 64.8497 101.628 63.6248 101.628 61.1739C101.627 55.5284 99.5005 45.5215 90.5363 45.5215Z" fill="#2F2E41"/>
<path d="M87.4629 63.4092H93.9021L95.2067 72.3533H87.4629V63.4092Z" fill="#ED9DA0"/>
<path d="M90.4991 65.9561C94.6207 65.9561 97.962 62.4434 97.962 58.1104C97.962 53.7773 94.6207 50.2646 90.4991 50.2646C86.3774 50.2646 83.0361 53.7773 83.0361 58.1104C83.0361 62.4434 86.3774 65.9561 90.4991 65.9561Z" fill="#ED9DA0"/>
<path d="M81.8765 57.3404H84.8282L86.1303 53.5072L86.3908 57.3404H87.8015L88.561 55.1044L88.7128 57.3404H99.1959C99.1959 55.1377 98.3635 53.0253 96.882 51.4677C95.4004 49.9102 93.391 49.0352 91.2958 49.0352H89.7765C87.6813 49.0352 85.6719 49.9102 84.1903 51.4677C82.7088 53.0253 81.8765 55.1377 81.8765 57.3404Z" fill="#2F2E41"/>
<path d="M131.774 63.1133H121.015V74.0635H131.774V63.1133Z" fill="#EC933A"/>
<path d="M105.412 103.366C104.266 103.381 100.815 81.852 100.815 81.852L100.298 70.2491L96.5267 70.1169V69.8563C96.5267 69.3327 96.3288 68.8304 95.9766 68.4602C95.6244 68.0899 95.1466 67.8818 94.6485 67.8818H87.4665C86.9894 67.8821 86.5303 68.0733 86.1826 68.4166C85.8349 68.76 85.6246 69.2296 85.5945 69.7302L82.6372 69.6253L77.5166 86.7323C77.5166 86.7323 82.2362 102.628 79.9582 109.632C79.9582 109.632 102.151 111.636 106.399 107.189C106.398 107.189 106.558 103.35 105.412 103.366Z" fill="#3A3D3D"/>
<path d="M83.9083 71.7573L82.6371 69.6259C82.6371 69.6259 78.5017 68.5511 76.7992 71.432C75.0966 74.3129 65.0566 86.5883 70.0922 89.9227C75.1278 93.2571 75.2568 91.8404 75.2568 91.8404L81.1189 83.1999L83.9083 71.7573Z" fill="#3A3D3D"/>
<path d="M96.8308 82.9189H86.0718V93.8692H96.8308V82.9189Z" fill="#EC933A"/>
<path d="M77.8168 86.8768L74.0737 86.4609C73.8373 86.9911 73.7188 87.5707 73.727 88.1561C73.7352 88.7415 73.8699 89.3173 74.121 89.8399C74.3721 90.3625 74.733 90.8182 75.1763 91.1725C75.6196 91.5268 76.1338 91.7705 76.6799 91.8851L91.4906 94.9926L89.9457 89.9906L77.8168 86.8768Z" fill="#ED9DA0"/>
<path d="M91.5356 95.0489C93.2137 95.0489 94.5741 93.6187 94.5741 91.8545C94.5741 90.0903 93.2137 88.6602 91.5356 88.6602C89.8575 88.6602 88.4971 90.0903 88.4971 91.8545C88.4971 93.6187 89.8575 95.0489 91.5356 95.0489Z" fill="#ED9DA0"/>
<path d="M87.7423 95.1478L76.4588 92.4372C75.6412 92.2384 74.8862 91.821 74.267 91.2256C73.6478 90.6301 73.1853 89.8766 72.9243 89.0381L72.4683 87.5594L75.3967 85.1367L88.8125 89.0788L87.7423 95.1478Z" fill="#3A3D3D"/>
<path d="M119.92 179.999H64.0013C63.9202 179.999 63.8545 179.856 63.8545 179.68C63.8545 179.503 63.9204 179.36 64.0013 179.36H119.92C120.001 179.36 120.067 179.503 120.067 179.68C120.067 179.856 120.001 179.999 119.92 179.999Z" fill="#E6E6E6"/>
</g>
<defs>
<clipPath id="clip0_1778_9604">
<rect width="176" height="180" fill="white"/>
</clipPath>
</defs>
</svg>
