<svg width="24" height="24" viewBox="0 0 24 24" fill="none" xmlns="http://www.w3.org/2000/svg">
<g clip-path="url(#clip0_1861_9462)">
<path d="M15 6C15 9.309 12.309 12 9 12C5.691 12 3 9.309 3 6C3 2.691 5.691 0 9 0C12.309 0 15 2.691 15 6ZM17 22H16C15.448 22 15 21.551 15 21V15C15 14.449 15.448 14 16 14H17C17.553 14 18 13.552 18 13C18 12.448 17.553 12 17 12H16C14.346 12 13 13.346 13 15V21C13 22.654 14.346 24 16 24H17C17.553 24 18 23.552 18 23C18 22.448 17.553 22 17 22ZM23.404 16.755L21.197 14.809C20.786 14.446 20.151 14.483 19.786 14.898C19.421 15.312 19.461 15.944 19.875 16.309L20.658 17H18C17.447 17 17 17.448 17 18C17 18.552 17.447 19 18 19H20.792L19.875 19.809C19.461 20.174 19.421 20.806 19.786 21.22C20.152 21.636 20.785 21.673 21.197 21.309L23.396 19.37C23.78 19.039 24 18.561 24 18.059C24 17.557 23.78 17.079 23.404 16.755ZM11 15C11 14.744 11.038 14.497 11.076 14.251C10.408 14.093 9.716 14 9 14C4.037 14 0 18.038 0 23C0 23.552 0.447 24 1 24H12.026C11.391 23.162 11 22.13 11 21V15Z" fill="white"/>
</g>
<defs>
<clipPath id="clip0_1861_9462">
<rect width="24" height="24" fill="white"/>
</clipPath>
</defs>
</svg>
