<svg width="25" height="23" viewBox="0 0 25 23" fill="none" xmlns="http://www.w3.org/2000/svg">
<g clip-path="url(#clip0_2505_10651)">
<path d="M24.2344 8.02984L23.2104 7.48646C23.3448 7.08588 23.4375 6.669 23.4375 6.22817C23.4375 5.78734 23.3437 5.37046 23.2104 4.96988L24.2344 4.4265C24.7333 4.16296 24.9042 3.57646 24.6167 3.11742C24.3292 2.65934 23.6938 2.50121 23.1938 2.76571L22.176 3.30525C21.5458 2.68042 20.725 2.22617 19.7917 2.03067V0.95638C19.7917 0.42738 19.325 -0.00195312 18.75 -0.00195312C18.175 -0.00195312 17.7083 0.42738 17.7083 0.95638V2.03067C16.775 2.22713 15.9531 2.68042 15.324 3.30525L14.3062 2.76571C13.8062 2.50121 13.1708 2.65838 12.8833 3.11742C12.5958 3.57646 12.7667 4.162 13.2656 4.4265L14.2896 4.96988C14.1552 5.37046 14.0625 5.78734 14.0625 6.22817C14.0625 6.669 14.1562 7.08588 14.2896 7.48646L13.2656 8.02984C12.7667 8.29338 12.5958 8.87988 12.8833 9.33892C13.1719 9.80084 13.8156 9.95225 14.3062 9.69063L15.324 9.15109C15.9542 9.77592 16.775 10.2302 17.7083 10.4257V11.5C17.7083 12.029 18.175 12.4583 18.75 12.4583C19.325 12.4583 19.7917 12.029 19.7917 11.5V10.4257C20.725 10.2292 21.5469 9.77592 22.176 9.15109L23.1938 9.69063C23.6833 9.95225 24.3271 9.8018 24.6167 9.33892C24.9042 8.87988 24.7333 8.29434 24.2344 8.02984ZM18.75 7.66663C17.8885 7.66663 17.1875 7.02167 17.1875 6.22913C17.1875 5.43659 17.8885 4.79163 18.75 4.79163C19.6115 4.79163 20.3125 5.43659 20.3125 6.22913C20.3125 7.02167 19.6115 7.66663 18.75 7.66663ZM25 11.9983V14.375C25 17.0171 22.6635 19.1666 19.7917 19.1666H13.5417V21.0833H17.7083C18.2833 21.0833 18.75 21.5126 18.75 22.0416C18.75 22.5706 18.2833 23 17.7083 23H7.29167C6.71667 23 6.25 22.5706 6.25 22.0416C6.25 21.5126 6.71667 21.0833 7.29167 21.0833H11.4583V19.1666H5.20833C2.33646 19.1666 0 17.0171 0 14.375V6.7083C0 4.06617 2.33646 1.91663 5.20833 1.91663H11.2479C10.3958 3.16821 9.89583 4.64309 9.89583 6.22913C9.89583 10.7275 13.8604 14.375 18.75 14.375C21.1896 14.375 23.399 13.4665 25 11.9983Z" fill="white"/>
</g>
<defs>
<clipPath id="clip0_2505_10651">
<rect width="25" height="23" fill="white"/>
</clipPath>
</defs>
</svg>
