<svg width="66" height="63" viewBox="0 0 66 63" fill="none" xmlns="http://www.w3.org/2000/svg">
<g clip-path="url(#clip0_3696_288)">
<path d="M33 0C41.7521 0 50.1458 3.31874 56.3345 9.22614C62.5232 15.1335 66 23.1457 66 31.5C66 39.8543 62.5232 47.8665 56.3345 53.7739C50.1458 59.6813 41.7521 63 33 63C24.2479 63 15.8542 59.6813 9.66547 53.7739C3.47678 47.8665 0 39.8543 0 31.5C0 23.1457 3.47678 15.1335 9.66547 9.22614C15.8542 3.31874 24.2479 0 33 0ZM18.5625 29.5312C18.0155 29.5312 17.4909 29.7387 17.1041 30.1079C16.7173 30.4771 16.5 30.9779 16.5 31.5C16.5 32.0221 16.7173 32.5229 17.1041 32.8921C17.4909 33.2613 18.0155 33.4688 18.5625 33.4688H42.4586L33.6022 41.9186C33.4105 42.1017 33.2584 42.319 33.1546 42.5581C33.0508 42.7973 32.9974 43.0536 32.9974 43.3125C32.9974 43.5714 33.0508 43.8277 33.1546 44.0669C33.2584 44.306 33.4105 44.5233 33.6022 44.7064C33.794 44.8894 34.0217 45.0346 34.2722 45.1337C34.5228 45.2327 34.7913 45.2837 35.0625 45.2837C35.3337 45.2837 35.6022 45.2327 35.8528 45.1337C36.1033 45.0346 36.331 44.8894 36.5228 44.7064L48.8978 32.8939C49.0898 32.711 49.2422 32.4937 49.3462 32.2546C49.4502 32.0154 49.5037 31.759 49.5037 31.5C49.5037 31.241 49.4502 30.9846 49.3462 30.7454C49.2422 30.5063 49.0898 30.289 48.8978 30.1061L36.5228 18.2936C36.1355 17.9239 35.6102 17.7163 35.0625 17.7163C34.5148 17.7163 33.9895 17.9239 33.6022 18.2936C33.215 18.6633 32.9974 19.1647 32.9974 19.6875C32.9974 20.2103 33.215 20.7117 33.6022 21.0814L42.4586 29.5312H18.5625Z" fill="#EC933A"/>
</g>
<defs>
<clipPath id="clip0_3696_288">
<rect width="66" height="63" fill="white" transform="matrix(-1 0 0 1 66 0)"/>
</clipPath>
</defs>
</svg>
