<svg width="39" height="42" viewBox="0 0 39 42" fill="none" xmlns="http://www.w3.org/2000/svg">
<path fill-rule="evenodd" clip-rule="evenodd" d="M18.5936 42C22.6987 42 26.1338 38.9883 26.9245 35H10.2627C11.0518 38.9883 14.4886 42 18.5936 42ZM33.2939 15.7386C33.3478 15.7349 33.4021 15.7311 33.4563 15.729L36.5257 24.4615C37.7297 27.8845 35.2656 31.4983 31.7285 31.4983H5.10503C1.66995 31.4983 -0.78391 28.0752 0.231306 24.6978L4.22755 11.403C5.6662 4.74075 11.4089 0 18.0427 0C20.4404 0 22.7259 0.623 24.7359 1.73425C24.0744 3.052 23.6952 4.543 23.6952 6.125C23.6952 11.4328 27.8904 15.75 33.0481 15.75C33.1309 15.75 33.2125 15.7443 33.2939 15.7386Z" fill="#3A3D3D"/>
<path d="M33.0481 12.25C36.3302 12.25 39 9.5025 39 6.125C39 2.7475 36.3302 0 33.0481 0C29.7661 0 27.0963 2.7475 27.0963 6.125C27.0963 9.5025 29.7661 12.25 33.0481 12.25Z" fill="#EC933A"/>
</svg>
