<svg width="87" height="84" viewBox="0 0 87 84" fill="none" xmlns="http://www.w3.org/2000/svg">
<g clip-path="url(#clip0_5537_289)">
<path d="M59.8125 31.5C59.8125 35.6772 58.0939 39.6832 55.0347 42.6369C51.9755 45.5906 47.8263 47.25 43.5 47.25C39.1737 47.25 35.0245 45.5906 31.9653 42.6369C28.9061 39.6832 27.1875 35.6772 27.1875 31.5C27.1875 27.3228 28.9061 23.3168 31.9653 20.3631C35.0245 17.4094 39.1737 15.75 43.5 15.75C47.8263 15.75 51.9755 17.4094 55.0347 20.3631C58.0939 23.3168 59.8125 27.3228 59.8125 31.5Z" fill="#EC933A"/>
<path fill-rule="evenodd" clip-rule="evenodd" d="M0 42C0 30.8609 4.58302 20.178 12.7409 12.3015C20.8987 4.42499 31.9631 0 43.5 0C55.0369 0 66.1013 4.42499 74.2591 12.3015C82.417 20.178 87 30.8609 87 42C87 53.1391 82.417 63.822 74.2591 71.6985C66.1013 79.575 55.0369 84 43.5 84C31.9631 84 20.8987 79.575 12.7409 71.6985C4.58302 63.822 0 53.1391 0 42ZM43.5 5.25C36.3322 5.25037 29.3101 7.2049 23.2421 10.8886C17.174 14.5724 12.3066 19.8356 9.20006 26.0725C6.09351 32.3094 4.8741 39.2665 5.68218 46.1431C6.49026 53.0196 9.29298 59.5361 13.7678 64.9425C17.6284 58.9365 26.1272 52.5 43.5 52.5C60.8728 52.5 69.3662 58.9312 73.2323 64.9425C77.707 59.5361 80.5097 53.0196 81.3178 46.1431C82.1259 39.2665 80.9065 32.3094 77.7999 26.0725C74.6934 19.8356 69.826 14.5724 63.7579 10.8886C57.6899 7.2049 50.6678 5.25037 43.5 5.25Z" fill="#EC933A"/>
</g>
<defs>
<clipPath id="clip0_5537_289">
<rect width="87" height="84" fill="white"/>
</clipPath>
</defs>
</svg>
