<svg width="24" height="26" viewBox="0 0 24 26" fill="none" xmlns="http://www.w3.org/2000/svg">
<g clip-path="url(#clip0_2505_10632)">
<path d="M2 2.70833C2 1.21225 3.119 0 4.5 0C5.881 0 7 1.21225 7 2.70833C7 4.20442 5.881 5.41667 4.5 5.41667C3.119 5.41667 2 4.20442 2 2.70833ZM15 6.5H3C1.346 6.5 0 7.95817 0 9.75V18.4167H2V26H4V18.4167H6V26H8V8.66667H15V6.5ZM21 0H7.599C8.154 0.74425 8.5 1.67808 8.5 2.70833C8.5 3.28358 8.391 3.83067 8.203 4.33333H17V10.8333H10V16.25H18V14.0833H22V16.25H24V3.25C24 1.45492 22.657 0 21 0Z" fill="white"/>
</g>
<defs>
<clipPath id="clip0_2505_10632">
<rect width="24" height="26" fill="white"/>
</clipPath>
</defs>
</svg>
