<svg width="25" height="22" viewBox="0 0 25 22" fill="none" xmlns="http://www.w3.org/2000/svg">
<g clip-path="url(#clip0_2505_10658)">
<path d="M24.1149 7.95758C23.5785 7.52767 22.8795 7.30492 22.1587 7.33608C21.4326 7.36542 20.7639 7.64225 20.2899 8.1015L16.6014 11.5271C16.6347 11.7196 16.6691 11.9121 16.6691 12.1119C16.6691 14.0213 15.0493 15.6649 12.9014 15.9344L8.48369 16.4899L8.1889 14.6758L12.6066 14.1203C13.7358 13.9783 14.5858 13.1148 14.5858 12.1119C14.5858 10.9936 13.5514 10.0833 12.2806 10.0833H9.37536V8.57817C10.1181 8.40858 10.7837 8.07308 11.3056 7.60467L12.7785 8.35175L13.8181 6.76408L12.3337 6.0115C12.4316 5.70075 12.5004 5.37992 12.5004 5.04167C12.5004 4.70342 12.4316 4.38258 12.3337 4.07183L13.8181 3.31925L12.7785 1.73158L11.3056 2.47867C10.7837 2.01025 10.1181 1.67567 9.37536 1.50517V0H7.29202V1.50517C6.54932 1.67475 5.88369 2.01025 5.36182 2.47867L3.8889 1.73158L2.84932 3.31925L4.33369 4.07183C4.23577 4.38258 4.16702 4.70342 4.16702 5.04167C4.16702 5.37992 4.23577 5.70075 4.33369 6.0115L2.84932 6.76408L3.8889 8.35175L5.36182 7.60467C5.88369 8.07308 6.54932 8.40767 7.29202 8.57817V10.0833H3.12744C1.40348 10.0833 0.00244141 11.3172 0.00244141 12.8333V19.25C0.00244141 20.7662 1.40452 22 3.12744 22H13.1931L24.3118 11.3163C25.2993 10.3428 25.2097 8.83575 24.1149 7.95758ZM6.25036 5.04167C6.25036 4.03058 7.18473 3.20833 8.33369 3.20833C9.48265 3.20833 10.417 4.03058 10.417 5.04167C10.417 6.05275 9.48265 6.875 8.33369 6.875C7.18473 6.875 6.25036 6.05275 6.25036 5.04167Z" fill="#EDEDED"/>
</g>
<defs>
<clipPath id="clip0_2505_10658">
<rect width="25" height="22" fill="white"/>
</clipPath>
</defs>
</svg>
