<svg width="166" height="157" viewBox="0 0 166 157" fill="none" xmlns="http://www.w3.org/2000/svg">
<g clip-path="url(#clip0_1778_9563)">
<path d="M79.5921 156.085L0.393272 156.159C0.17602 156.159 -0.000976562 156.031 -0.000976562 155.873C-0.000976562 155.716 0.17519 155.588 0.393272 155.588L79.5921 155.514C79.8093 155.514 79.9863 155.642 79.9863 155.799C79.9863 155.957 79.8093 156.085 79.5921 156.085Z" fill="#3A3D3D"/>
<path d="M22.6423 137.491L17.7734 135.511L14.0962 145.658L19.7875 146.899L22.6423 137.491Z" fill="#9F616A"/>
<path d="M13.395 150.592L23.9317 154.877C24.8382 155.244 25.8106 155.392 26.778 155.309L29.078 155.11C29.3314 155.088 29.5725 154.985 29.769 154.814C29.9656 154.643 30.1083 154.413 30.178 154.154C30.2477 153.895 30.2411 153.619 30.1592 153.364C30.0773 153.109 29.9238 152.887 29.7194 152.727L26.138 149.922L20.6655 143.318L20.6508 143.343C20.2733 143.979 19.6982 144.937 19.65 144.99C18.6378 145.557 17.7732 145.657 17.0796 145.287C15.8694 144.64 15.5916 142.761 15.5889 142.742L15.5868 142.727L15.5735 142.724C15.4437 142.677 15.3055 142.663 15.1697 142.682C15.0338 142.701 14.9039 142.753 14.79 142.834C14.3368 143.175 14.2561 143.953 14.2463 144.071C13.7742 144.287 12.8982 146.214 12.8279 146.37C12.1287 146.726 11.6981 147.166 11.5481 147.679C11.417 148.127 11.4989 148.626 11.7909 149.162C12.1558 149.819 12.7217 150.324 13.3947 150.593L13.395 150.592Z" fill="#3A3D3D"/>
<path d="M159.353 102.713H86.2297C84.4672 102.711 82.7775 101.968 81.5313 100.648C80.285 99.3281 79.584 97.5383 79.582 95.6713V21.2758C79.5841 19.409 80.2851 17.6192 81.5313 16.2991C82.7775 14.9791 84.4671 14.2365 86.2295 14.2344H159.353C161.115 14.2365 162.805 14.9791 164.051 16.2991C165.297 17.6192 165.998 19.409 166 21.2758V95.6713C165.998 97.5382 165.297 99.328 164.051 100.648C162.805 101.968 161.115 102.711 159.353 102.713Z" fill="white"/>
<path d="M159.353 102.713H86.2297C84.4672 102.711 82.7775 101.968 81.5313 100.648C80.285 99.3281 79.584 97.5383 79.582 95.6713V21.2758C79.5841 19.409 80.2851 17.6192 81.5313 16.2991C82.7775 14.9791 84.4671 14.2365 86.2295 14.2344H159.353C161.115 14.2365 162.805 14.9791 164.051 16.2991C165.297 17.6192 165.998 19.409 166 21.2758V95.6713C165.998 97.5382 165.297 99.328 164.051 100.648C162.805 101.968 161.115 102.711 159.353 102.713ZM86.2297 14.8465C84.6205 14.8484 83.0777 15.5264 81.9399 16.7317C80.802 17.9371 80.1619 19.5713 80.1601 21.2758V95.6713C80.1619 97.3759 80.802 99.0101 81.9399 100.215C83.0777 101.421 84.6205 102.099 86.2297 102.101H159.353C160.962 102.099 162.505 101.421 163.643 100.215C164.78 99.0101 165.42 97.3759 165.422 95.6713V21.2758C165.421 19.5713 164.781 17.937 163.643 16.7317C162.505 15.5263 160.962 14.8484 159.353 14.8465H86.2297Z" fill="#3F3D56"/>
<path d="M121.841 41.3404H109.558C109.403 41.3426 109.249 41.3121 109.105 41.2506C108.96 41.1892 108.829 41.098 108.719 40.9824C108.608 40.8668 108.52 40.7291 108.46 40.5773C108.4 40.4255 108.37 40.2626 108.37 40.098C108.37 39.9334 108.4 39.7705 108.46 39.6187C108.52 39.4669 108.608 39.3292 108.719 39.2136C108.829 39.098 108.96 39.0068 109.105 38.9454C109.249 38.8839 109.403 38.8534 109.558 38.8556H121.841C121.996 38.8534 122.15 38.8839 122.294 38.9454C122.439 39.0068 122.57 39.098 122.68 39.2136C122.791 39.3292 122.879 39.4669 122.939 39.6187C122.999 39.7705 123.029 39.9334 123.029 40.098C123.029 40.2626 122.999 40.4255 122.939 40.5773C122.879 40.7291 122.791 40.8668 122.68 40.9824C122.57 41.098 122.439 41.1892 122.294 41.2506C122.15 41.3121 121.996 41.3426 121.841 41.3404Z" fill="#641E20"/>
<path d="M149.299 90.6314H137.016C136.707 90.6271 136.413 90.4943 136.196 90.2617C135.98 90.0292 135.858 89.7157 135.858 89.389C135.858 89.0623 135.98 88.7488 136.196 88.5163C136.413 88.2838 136.707 88.1509 137.016 88.1466H149.298C149.454 88.1444 149.608 88.1749 149.752 88.2364C149.896 88.2978 150.027 88.389 150.138 88.5046C150.248 88.6202 150.336 88.7579 150.396 88.9097C150.456 89.0615 150.487 89.2245 150.487 89.389C150.487 89.5536 150.456 89.7165 150.396 89.8683C150.336 90.0201 150.248 90.1578 150.138 90.2734C150.027 90.389 149.896 90.4802 149.752 90.5416C149.608 90.6031 149.454 90.6336 149.298 90.6314H149.299Z" fill="#641E20"/>
<path d="M149.374 46.4214H109.558C109.25 46.417 108.956 46.2842 108.739 46.0517C108.522 45.8191 108.401 45.5056 108.401 45.1789C108.401 44.8523 108.522 44.5387 108.739 44.3062C108.956 44.0737 109.25 43.9409 109.558 43.9365H149.374C149.683 43.9409 149.977 44.0737 150.194 44.3062C150.41 44.5387 150.532 44.8523 150.532 45.1789C150.532 45.5056 150.41 45.8191 150.194 46.0517C149.977 46.2842 149.683 46.417 149.374 46.4214Z" fill="#E6E6E6"/>
<path d="M99.4433 46.0633C101.399 46.0633 102.984 44.3839 102.984 42.3124C102.984 40.2408 101.399 38.5615 99.4433 38.5615C97.4877 38.5615 95.9023 40.2408 95.9023 42.3124C95.9023 44.3839 97.4877 46.0633 99.4433 46.0633Z" fill="#641E20"/>
<path d="M87.5937 27.0818C89.5494 27.0818 91.1347 25.4025 91.1347 23.3309C91.1347 21.2594 89.5494 19.5801 87.5937 19.5801C85.6381 19.5801 84.0527 21.2594 84.0527 23.3309C84.0527 25.4025 85.6381 27.0818 87.5937 27.0818Z" fill="#F2F2F2"/>
<path d="M98.9605 44.2666C98.8994 44.2666 98.839 44.2515 98.7843 44.2225C98.7296 44.1935 98.682 44.1514 98.6453 44.0996L97.6792 42.7353C97.6219 42.6465 97.5991 42.5377 97.6156 42.4315C97.6322 42.3253 97.6868 42.23 97.768 42.1654C97.8493 42.1008 97.951 42.072 98.0518 42.0849C98.1527 42.0978 98.245 42.1514 98.3094 42.2346L98.9414 43.1272L100.565 40.5481C100.624 40.4604 100.713 40.4004 100.814 40.3809C100.914 40.3614 101.017 40.3838 101.103 40.4433C101.188 40.5029 101.247 40.5951 101.27 40.7005C101.292 40.8059 101.275 40.9163 101.222 41.0086L101.22 41.011L99.2882 44.0809C99.2532 44.1364 99.2062 44.1823 99.1511 44.2146C99.0959 44.2469 99.0343 44.2648 98.9713 44.2666H98.9605Z" fill="white"/>
<path d="M149.374 59.893H109.558C109.25 59.8887 108.956 59.7559 108.739 59.5233C108.522 59.2908 108.401 58.9773 108.401 58.6506C108.401 58.3239 108.522 58.0104 108.739 57.7779C108.956 57.5454 109.25 57.4125 109.558 57.4082H149.374C149.683 57.4125 149.977 57.5454 150.194 57.7779C150.41 58.0104 150.532 58.3239 150.532 58.6506C150.532 58.9773 150.41 59.2908 150.194 59.5233C149.977 59.7559 149.683 59.8887 149.374 59.893Z" fill="#E6E6E6"/>
<path d="M99.4433 62.5955C98.6858 62.5955 97.9453 62.3576 97.3155 61.9118C96.6856 61.466 96.1947 60.8324 95.9048 60.0911C95.6149 59.3497 95.5391 58.534 95.6869 57.747C95.8347 56.96 96.1994 56.2371 96.7351 55.6697C97.2707 55.1023 97.9532 54.7159 98.6961 54.5594C99.4391 54.4029 100.209 54.4832 100.909 54.7903C101.609 55.0973 102.207 55.6173 102.628 56.2845C103.049 56.9517 103.273 57.7361 103.273 58.5385C103.273 59.6145 102.87 60.6464 102.152 61.4073C101.433 62.1681 100.459 62.5955 99.4433 62.5955ZM99.4433 55.0938C98.8001 55.0938 98.1714 55.2958 97.6366 55.6743C97.1019 56.0528 96.6851 56.5908 96.4389 57.2203C96.1928 57.8497 96.1284 58.5423 96.2539 59.2105C96.3793 59.8787 96.6891 60.4925 97.1439 60.9743C97.5986 61.456 98.1781 61.7841 98.8089 61.917C99.4397 62.0499 100.094 61.9817 100.688 61.721C101.282 61.4602 101.79 61.0187 102.147 60.4523C102.505 59.8858 102.695 59.2198 102.695 58.5385C102.695 57.6249 102.353 56.7488 101.743 56.1029C101.133 55.4569 100.306 55.094 99.4433 55.094V55.0938Z" fill="#E6E6E6"/>
<path d="M121.841 73.7926H109.558C109.403 73.7947 109.249 73.7642 109.105 73.7028C108.96 73.6413 108.829 73.5501 108.719 73.4346C108.608 73.319 108.52 73.1813 108.46 73.0294C108.4 72.8776 108.37 72.7147 108.37 72.5501C108.37 72.3856 108.4 72.2227 108.46 72.0708C108.52 71.919 108.608 71.7813 108.719 71.6657C108.829 71.5501 108.96 71.459 109.105 71.3975C109.249 71.3361 109.403 71.3055 109.558 71.3077H121.841C121.996 71.3055 122.15 71.3361 122.294 71.3975C122.439 71.459 122.57 71.5501 122.68 71.6657C122.791 71.7813 122.879 71.919 122.939 72.0708C122.999 72.2227 123.029 72.3856 123.029 72.5501C123.029 72.7147 122.999 72.8776 122.939 73.0294C122.879 73.1813 122.791 73.319 122.68 73.4346C122.57 73.5501 122.439 73.6413 122.294 73.7028C122.15 73.7642 121.996 73.7947 121.841 73.7926Z" fill="#E6E6E6"/>
<path d="M149.374 78.8746H109.558C109.403 78.8768 109.249 78.8463 109.105 78.7848C108.96 78.7233 108.829 78.6322 108.719 78.5166C108.608 78.401 108.52 78.2633 108.46 78.1115C108.4 77.9597 108.37 77.7967 108.37 77.6322C108.37 77.4676 108.4 77.3047 108.46 77.1529C108.52 77.001 108.608 76.8633 108.719 76.7477C108.829 76.6322 108.96 76.541 109.105 76.4795C109.249 76.4181 109.403 76.3876 109.558 76.3898H149.374C149.683 76.3941 149.977 76.5269 150.194 76.7594C150.41 76.992 150.532 77.3055 150.532 77.6322C150.532 77.9588 150.41 78.2724 150.194 78.5049C149.977 78.7374 149.683 78.8702 149.374 78.8746Z" fill="#E6E6E6"/>
<path d="M99.4432 78.8225C98.6857 78.8226 97.9451 78.5847 97.3152 78.1389C96.6853 77.693 96.1943 77.0594 95.9044 76.318C95.6145 75.5766 95.5386 74.7608 95.6864 73.9738C95.8342 73.1867 96.199 72.4638 96.7346 71.8964C97.2703 71.3289 97.9528 70.9425 98.6958 70.786C99.4389 70.6294 100.209 70.7098 100.909 71.0169C101.609 71.324 102.207 71.8441 102.628 72.5113C103.049 73.1786 103.273 73.963 103.273 74.7655C103.273 75.8415 102.87 76.8734 102.151 77.6342C101.433 78.395 100.459 78.8225 99.4432 78.8225ZM99.4432 71.3206C98.8 71.3205 98.1712 71.5225 97.6364 71.9011C97.1016 72.2796 96.6847 72.8176 96.4385 73.447C96.1923 74.0765 96.1279 74.7692 96.2534 75.4374C96.3788 76.1057 96.6885 76.7195 97.1434 77.2013C97.5982 77.6831 98.1776 78.0112 98.8085 78.1442C99.4394 78.2771 100.093 78.2089 100.688 77.9482C101.282 77.6875 101.79 77.2459 102.147 76.6794C102.504 76.1129 102.695 75.4468 102.695 74.7655C102.695 73.8519 102.353 72.9757 101.743 72.3297C101.133 71.6836 100.306 71.3206 99.4432 71.3206Z" fill="#E6E6E6"/>
<path d="M89.2028 23.0289H86.5986L87.5865 21.9591C87.6318 21.9101 87.6569 21.844 87.6562 21.7754C87.6554 21.7068 87.629 21.6413 87.5827 21.5933C87.5364 21.5453 87.474 21.5188 87.4092 21.5195C87.3445 21.5203 87.2826 21.5483 87.2373 21.5974L85.8436 23.1065C85.7989 23.1548 85.7739 23.2198 85.7739 23.2874C85.7739 23.355 85.7989 23.4199 85.8436 23.4683L87.2373 24.9776C87.2826 25.0267 87.3445 25.0547 87.4092 25.0554C87.474 25.0562 87.5364 25.0297 87.5827 24.9817C87.629 24.9337 87.6554 24.8682 87.6562 24.7996C87.6569 24.731 87.6318 24.6649 87.5865 24.6158L86.5988 23.5463H89.2026C89.2673 23.5463 89.3295 23.5191 89.3753 23.4705C89.4211 23.422 89.4468 23.3562 89.4468 23.2876C89.4468 23.219 89.4211 23.1532 89.3753 23.1047C89.3295 23.0562 89.2675 23.0289 89.2028 23.0289Z" fill="#3F3D56"/>
<path d="M53.4897 139.22H48.2744V150.089L54.0074 149.087L53.4897 139.22Z" fill="#9F616A"/>
<path d="M59.2284 17.582L61.4985 44.8795L39.9932 45.2575L42.0636 18.1049L59.2284 17.582Z" fill="#3A3D3D"/>
<path d="M38.3677 63.582C38.3677 63.582 47.7152 67.8277 57.0492 65.7361C57.0492 65.7361 60.3025 81.9537 58.3948 109.181C56.487 136.408 55.5203 143.332 55.5203 143.332C55.5203 143.332 55.01 146.287 45.658 141.567V116.686L44.7467 88.7877L24.032 141.568C24.032 141.568 17.7306 141.495 14.7256 138.472L21.8181 109.181C21.8181 109.181 31.7078 79.7062 31.8937 79.4612L38.3677 63.5825V63.582Z" fill="#3A3D3D"/>
<path d="M80.009 56.9176L64.1104 64.1331L68.0427 68.7753L81.724 60.8748C82.2629 61.0801 82.835 61.1697 83.4069 61.1384C83.9788 61.1071 84.5392 60.9554 85.0552 60.6924C87.0497 59.7224 88.0523 57.5187 87.2945 55.7702C86.5367 54.0217 84.3065 53.3904 82.311 54.3604C81.7863 54.6036 81.3126 54.9549 80.9174 55.3939C80.5221 55.8329 80.2134 56.3509 80.009 56.9176Z" fill="#9F616A"/>
<path d="M42.9326 22.7413C42.9332 21.1692 43.345 19.628 44.1224 18.2888C44.8999 16.9496 46.0124 15.8649 47.3366 15.155C48.6609 14.445 50.1449 14.1377 51.624 14.2672C53.1031 14.3966 54.5194 14.9577 55.7157 15.8882C56.912 16.8187 57.8414 18.0821 58.4008 19.5383C58.9603 20.9945 59.1278 22.5864 58.8847 24.1373C58.6417 25.6882 57.9977 27.1374 57.0242 28.324C56.0507 29.5107 54.7858 30.3884 53.3699 30.8596L51.8174 41.7282L43.9027 34.7417C43.9027 34.7417 45.6125 32.4338 46.5294 29.8336C45.4232 29.0585 44.5156 28.005 43.8879 26.7674C43.2602 25.5297 42.932 24.1465 42.9326 22.7415V22.7413Z" fill="#9F616A"/>
<path d="M45.2029 33.416C45.2029 33.416 48.2374 40.0482 52.5692 34.3368L59.5086 35.5628C59.5086 35.5628 60.1631 61.4289 57.5062 65.3917C57.5062 65.3917 47.0096 71.3854 38.3691 63.5816L39.8806 35.001L45.2029 33.416Z" fill="#641E20"/>
<path d="M56.7584 84.4964L40.2337 76.4357C39.6772 76.1635 39.2455 75.6686 39.0331 75.0596C38.8207 74.4505 38.845 73.7771 39.1007 73.1871L41.8756 66.8044C42.1327 66.215 42.5999 65.7577 43.1748 65.5327C43.7498 65.3078 44.3855 65.3336 44.9425 65.6045L61.4672 73.6652C62.0236 73.9374 62.4554 74.4323 62.6678 75.0413C62.8802 75.6504 62.8558 76.3238 62.6001 76.9138L59.8252 83.2965C59.5682 83.8859 59.1009 84.3432 58.526 84.5682C57.951 84.7931 57.3154 84.7673 56.7584 84.4964Z" fill="white"/>
<path d="M56.6635 84.7149L40.1388 76.6542C39.5276 76.3554 39.0532 75.8119 38.8198 75.1431C38.5864 74.4742 38.613 73.7345 38.8938 73.0864L41.6685 66.7039C41.9506 66.0564 42.4637 65.5539 43.0951 65.3066C43.7266 65.0594 44.4248 65.0876 45.0367 65.3851L61.5614 73.4458C62.1726 73.7446 62.6469 74.288 62.8803 74.9568C63.1138 75.6257 63.0871 76.3653 62.8064 77.0134L60.0315 83.397C59.7494 84.0444 59.2364 84.5469 58.605 84.7941C57.9735 85.0414 57.2753 85.0132 56.6635 84.7158V84.7149ZM44.8476 65.823C44.3454 65.5787 43.7721 65.5554 43.2536 65.7582C42.7352 65.9611 42.3138 66.3735 42.0821 66.905L39.3074 73.2878C39.0768 73.8198 39.0548 74.4271 39.2463 74.9762C39.4378 75.5254 39.8271 75.9717 40.3289 76.2172L56.8536 84.2779C57.3559 84.5222 57.9292 84.5454 58.4477 84.3425C58.9661 84.1396 59.3874 83.7272 59.6192 83.1956L62.3938 76.8131C62.6245 76.2811 62.6464 75.6738 62.4549 75.1246C62.2634 74.5754 61.8741 74.1291 61.3723 73.8836L44.8476 65.823Z" fill="#3F3D56"/>
<path d="M51.9816 74.781L51.8903 74.7371C51.8413 74.7144 51.7971 74.6815 51.7603 74.6405C51.7234 74.5995 51.6946 74.5511 51.6757 74.4982C51.6567 74.4453 51.6478 74.3889 51.6496 74.3323C51.6515 74.2757 51.6639 74.2201 51.6863 74.1687C51.7086 74.1173 51.7405 74.0711 51.7799 74.0328C51.8193 73.9946 51.8655 73.965 51.9158 73.9459C51.9661 73.9268 52.0195 73.9185 52.0728 73.9215C52.1262 73.9245 52.1785 73.9387 52.2266 73.9634L52.3179 74.0073C52.3669 74.0301 52.4111 74.0629 52.4479 74.1039C52.4848 74.1449 52.5135 74.1933 52.5325 74.2462C52.5515 74.2991 52.5603 74.3555 52.5585 74.4121C52.5567 74.4687 52.5442 74.5243 52.5219 74.5757C52.4995 74.6272 52.4677 74.6733 52.4283 74.7116C52.3889 74.7498 52.3427 74.7794 52.2924 74.7985C52.2421 74.8176 52.1887 74.8259 52.1353 74.8229C52.0819 74.8199 52.0297 74.8057 51.9816 74.781Z" fill="#CCCCCC"/>
<path d="M55.8952 79.2695L50.8737 76.8201C50.8247 76.7974 50.7805 76.7645 50.7437 76.7235C50.7068 76.6825 50.6781 76.6342 50.6591 76.5812C50.6401 76.5283 50.6312 76.4719 50.633 76.4153C50.6349 76.3587 50.6473 76.3031 50.6697 76.2517C50.692 76.2003 50.7239 76.1541 50.7633 76.1158C50.8027 76.0776 50.8489 76.048 50.8992 76.0289C50.9495 76.0098 51.0029 76.0015 51.0563 76.0045C51.1096 76.0075 51.1619 76.0217 51.21 76.0464L56.2315 78.4958C56.2805 78.5185 56.3247 78.5513 56.3615 78.5924C56.3984 78.6334 56.4271 78.6817 56.4461 78.7347C56.4651 78.7876 56.4739 78.844 56.4721 78.9006C56.4703 78.9571 56.4578 79.0128 56.4355 79.0642C56.4131 79.1156 56.3813 79.1618 56.3419 79.2001C56.3025 79.2383 56.2563 79.2679 56.206 79.287C56.1557 79.3061 56.1023 79.3144 56.0489 79.3114C55.9955 79.3084 55.9433 79.2942 55.8952 79.2695Z" fill="#CCCCCC"/>
<path d="M47.2581 76.1542C48.7469 76.1542 49.9538 74.8758 49.9538 73.2988C49.9538 71.7218 48.7469 70.4434 47.2581 70.4434C45.7694 70.4434 44.5625 71.7218 44.5625 73.2988C44.5625 74.8758 45.7694 76.1542 47.2581 76.1542Z" fill="#641E20"/>
<path d="M56.9365 36.5529L59.5095 35.5625C59.5095 35.5625 62.775 36.0843 63.4267 38.8714C64.0785 41.6584 67.8817 61.5634 67.8817 61.5634L74.236 59.7566L75.9597 65.5441C75.9597 65.5441 66.0281 72.1111 63.7712 68.8319C61.5142 65.5527 57.9429 50.5029 57.9429 50.5029L56.9365 36.5529Z" fill="#641E20"/>
<path d="M40.2311 62.9791L25.4913 53.3926L24.1826 59.4735L38.1704 66.7471C38.3233 67.3317 38.5845 67.8782 38.9388 68.3548C39.2931 68.8314 39.7334 69.2286 40.234 69.5232C42.133 70.6881 44.4105 70.2837 45.3211 68.6189C46.2316 66.9542 45.4302 64.6599 43.5312 63.4945C43.041 63.1811 42.4969 62.9741 41.9304 62.8856C41.364 62.7971 40.7866 62.8289 40.2319 62.9791H40.2311Z" fill="#9F616A"/>
<path d="M41.7783 33.8934L36.129 34.245C36.129 34.245 19.1258 56.4816 23.5953 59.3836L34.3187 66.1418L37.4196 60.593L30.5779 56.4388L43.5996 41.6892L41.7783 33.8916V33.8934Z" fill="#641E20"/>
<path d="M53.915 15.7292C53.915 15.7292 50.4222 24.035 45.698 25.2245L46.2765 28.462C46.2765 28.462 49.073 36.3543 46.2765 39.8475C43.48 43.3408 35.0908 42.4376 35.0908 42.4376C35.0908 42.4376 37.6115 2.52065 53.0865 11.5073C62.9662 17.2469 59.4553 22.8206 59.4553 22.8206L53.915 15.7292Z" fill="#3A3D3D"/>
<path d="M49.2785 155.513H60.5225C61.4893 155.512 62.4436 155.281 63.3155 154.839L65.3884 153.784C65.6167 153.668 65.806 153.48 65.9311 153.247C66.0563 153.014 66.1112 152.745 66.0887 152.478C66.0661 152.211 65.9671 151.957 65.8049 151.751C65.6427 151.545 65.425 151.396 65.1809 151.325L60.9046 150.072L53.5879 145.997L53.5825 146.026C53.4458 146.76 53.2337 147.869 53.2067 147.936C52.4564 148.847 51.6857 149.266 50.9159 149.184C49.5732 149.04 48.6807 147.397 48.6718 147.381L48.665 147.369L48.6513 147.37C48.5149 147.376 48.3816 147.415 48.2618 147.484C48.1419 147.554 48.0387 147.651 47.9601 147.769C47.6538 148.259 47.8406 149.012 47.8713 149.126C47.5044 149.506 47.3399 151.629 47.3272 151.8C46.7968 152.396 46.5447 152.968 46.5781 153.502C46.6074 153.969 46.8516 154.402 47.3044 154.79C47.865 155.263 48.5615 155.518 49.2781 155.514L49.2785 155.513Z" fill="#3A3D3D"/>
<path d="M81.4172 3.03234C82.2077 3.03234 82.8485 2.35353 82.8485 1.51617C82.8485 0.678813 82.2077 0 81.4172 0C80.6267 0 79.9858 0.678813 79.9858 1.51617C79.9858 2.35353 80.6267 3.03234 81.4172 3.03234Z" fill="#3F3D56"/>
<path d="M86.362 3.03234C87.1525 3.03234 87.7933 2.35353 87.7933 1.51617C87.7933 0.678813 87.1525 0 86.362 0C85.5715 0 84.9307 0.678813 84.9307 1.51617C84.9307 2.35353 85.5715 3.03234 86.362 3.03234Z" fill="#3F3D56"/>
<path d="M91.3068 3.03234C92.0973 3.03234 92.7382 2.35353 92.7382 1.51617C92.7382 0.678813 92.0973 0 91.3068 0C90.5163 0 89.8755 0.678813 89.8755 1.51617C89.8755 2.35353 90.5163 3.03234 91.3068 3.03234Z" fill="#3F3D56"/>
<path d="M165.776 4.96118H80.2104C80.0859 4.96118 79.9858 4.89941 79.9858 4.82336C79.9858 4.74731 80.0865 4.68555 80.2104 4.68555H165.776C165.9 4.68555 166 4.74731 166 4.82336C166 4.89941 165.9 4.96118 165.776 4.96118Z" fill="#CACACA"/>
</g>
<defs>
<clipPath id="clip0_1778_9563">
<rect width="166" height="157" fill="white"/>
</clipPath>
</defs>
</svg>
