<svg width="40" height="42" viewBox="0 0 40 42" fill="none" xmlns="http://www.w3.org/2000/svg">
<g clip-path="url(#clip0_4408_152)">
<path d="M20 12.25V0.805C21.5217 1.4105 22.9217 2.34325 24.1083 3.5875L29.915 9.688C31.1017 10.9323 31.99 12.4023 32.5667 14H21.6667C20.7467 14 20 13.2142 20 12.25ZM30 21C24.4767 21 20 25.7005 20 31.5C20 37.2995 24.4767 42 30 42C35.5233 42 40 37.2995 40 31.5C40 25.7005 35.5233 21 30 21ZM34.8867 30.5532C34.66 31.1272 34.1267 31.5 33.5333 31.5H31.665V36.75C31.665 37.716 30.92 38.5 29.9983 38.5C29.0767 38.5 28.3317 37.716 28.3317 36.75V31.5H26.4633C25.8717 31.5 25.3367 31.1272 25.11 30.5532C24.88 29.9775 25.0067 29.3178 25.4267 28.8785L27.9267 26.2535C29.0683 25.0548 30.9267 25.0548 32.0683 26.2535L34.5683 28.8785C34.99 29.3195 35.1133 29.9845 34.8867 30.5532ZM16.6667 31.5C16.6667 23.7808 22.6483 17.5 30 17.5H21.6667C18.91 17.5 16.6667 15.1445 16.6667 12.25V0.042C16.3983 0.02275 16.13 0 15.8583 0H8.33333C3.73833 0 0 3.92525 0 8.75V33.25C0 38.0747 3.73833 42 8.33333 42H21.21C18.4317 39.4328 16.6667 35.6825 16.6667 31.5Z" fill="white"/>
</g>
<defs>
<clipPath id="clip0_4408_152">
<rect width="40" height="42" fill="white"/>
</clipPath>
</defs>
</svg>
