<svg width="25" height="27" viewBox="0 0 25 27" fill="none" xmlns="http://www.w3.org/2000/svg">
<g clip-path="url(#clip0_3123_9236)">
<path d="M12.5 7.875V0.5175C13.451 0.90675 14.326 1.50637 15.0677 2.30625L18.6969 6.228C19.4385 7.02787 19.9937 7.97288 20.3542 9H13.5417C12.9667 9 12.5 8.49487 12.5 7.875ZM18.75 13.5C15.2979 13.5 12.5 16.5217 12.5 20.25C12.5 23.9783 15.2979 27 18.75 27C22.2021 27 25 23.9783 25 20.25C25 16.5217 22.2021 13.5 18.75 13.5ZM21.8042 19.6414C21.6625 20.0104 21.3292 20.25 20.9583 20.25H19.7906V23.625C19.7906 24.246 19.325 24.75 18.749 24.75C18.1729 24.75 17.7073 24.246 17.7073 23.625V20.25H16.5396C16.1698 20.25 15.8354 20.0104 15.6937 19.6414C15.55 19.2712 15.6292 18.8471 15.8917 18.5648L17.4542 16.8773C18.1677 16.1066 19.3292 16.1066 20.0427 16.8773L21.6052 18.5648C21.8687 18.8483 21.9458 19.2757 21.8042 19.6414ZM10.4167 20.25C10.4167 15.2876 14.1552 11.25 18.75 11.25H13.5417C11.8187 11.25 10.4167 9.73575 10.4167 7.875V0.027C10.249 0.014625 10.0813 0 9.91146 0H5.20833C2.33646 0 0 2.52338 0 5.625V21.375C0 24.4766 2.33646 27 5.20833 27H13.2562C11.5198 25.3496 10.4167 22.9387 10.4167 20.25Z" fill="white"/>
</g>
<defs>
<clipPath id="clip0_3123_9236">
<rect width="25" height="27" fill="white"/>
</clipPath>
</defs>
</svg>
