<svg width="22" height="23" viewBox="0 0 22 23" fill="none" xmlns="http://www.w3.org/2000/svg">
<g clip-path="url(#clip0_4408_156)">
<path d="M11 6.70833V0.440833C11.8369 0.772417 12.6069 1.28321 13.2596 1.96458L16.4532 5.30533C17.1059 5.98671 17.5945 6.79171 17.9117 7.66667H11.9167C11.4107 7.66667 11 7.23637 11 6.70833ZM16.5 11.5C13.4622 11.5 11 14.0741 11 17.25C11 20.4259 13.4622 23 16.5 23C19.5378 23 22 20.4259 22 17.25C22 14.0741 19.5378 11.5 16.5 11.5ZM19.1877 16.7315C19.063 17.0459 18.7697 17.25 18.4433 17.25H17.4158V20.125C17.4158 20.654 17.006 21.0833 16.4991 21.0833C15.9922 21.0833 15.5824 20.654 15.5824 20.125V17.25H14.5548C14.2294 17.25 13.9352 17.0459 13.8105 16.7315C13.684 16.4163 13.7537 16.055 13.9847 15.8144L15.3597 14.3769C15.9876 13.7205 17.0097 13.7205 17.6376 14.3769L19.0126 15.8144C19.2445 16.0559 19.3123 16.4201 19.1877 16.7315ZM9.16667 17.25C9.16667 13.0228 12.4566 9.58333 16.5 9.58333H11.9167C10.4005 9.58333 9.16667 8.29342 9.16667 6.70833V0.023C9.01908 0.0124583 8.8715 0 8.72208 0H4.58333C2.05608 0 0 2.14954 0 4.79167V18.2083C0 20.8505 2.05608 23 4.58333 23H11.6655C10.1374 21.5941 9.16667 19.5404 9.16667 17.25Z" fill="white"/>
</g>
<defs>
<clipPath id="clip0_4408_156">
<rect width="22" height="23" fill="white"/>
</clipPath>
</defs>
</svg>
