<svg width="25" height="23" viewBox="0 0 25 23" fill="none" xmlns="http://www.w3.org/2000/svg">
<g clip-path="url(#clip0_2863_10084)">
<path d="M10.2896 16.4086C11.4708 17.4944 13.5292 17.4944 14.7094 16.4086L21.875 9.81621V3.83333C21.875 1.71925 20.0062 0 17.7083 0H7.29167C4.99375 0 3.125 1.71925 3.125 3.83333V9.81621L10.2896 16.4086ZM8.33333 3.83333H16.6667C18.0292 3.83908 18.0281 5.74521 16.6667 5.75H8.33333C6.97083 5.74425 6.97187 3.83908 8.33333 3.83333ZM8.33333 7.66667H14.5833C15.9458 7.67242 15.9448 9.57854 14.5833 9.58333H8.33333C6.97083 9.57758 6.97187 7.67242 8.33333 7.66667ZM24.4792 10.1296C24.8083 10.7669 25 11.4636 25 12.1775V18.2074C25 20.8495 22.6635 22.999 19.7917 22.999H5.20833C2.33646 22.999 0 20.8495 0 18.2074V12.1775C0 11.4626 0.191667 10.7669 0.520833 10.1296L8.81771 17.7637C10.7573 19.6219 14.2448 19.6228 16.1833 17.7637L24.4792 10.1296Z" fill="white"/>
</g>
<defs>
<clipPath id="clip0_2863_10084">
<rect width="25" height="23" fill="white"/>
</clipPath>
</defs>
</svg>
