<svg width="43" height="42" viewBox="0 0 43 42" fill="none" xmlns="http://www.w3.org/2000/svg">
<g clip-path="url(#clip0_2863_10063)">
<path d="M21.5 42C33.3741 42 43 32.598 43 21C43 9.40201 33.3741 0 21.5 0C9.62587 0 0 9.40201 0 21C0.0128496 32.5928 9.63116 41.9874 21.5 42ZM19.7084 10.5C19.7084 9.53351 20.5105 8.75003 21.5 8.75003C22.4895 8.75003 23.2916 9.53351 23.2916 10.5V24.5C23.2916 25.4665 22.4895 26.25 21.5 26.25C20.5105 26.25 19.7084 25.4665 19.7084 24.5V10.5ZM21.5 31.5C22.4895 31.5 23.2916 32.2835 23.2916 33.25C23.2916 34.2165 22.4895 34.9999 21.5 34.9999C20.5105 34.9999 19.7084 34.2165 19.7084 33.25C19.7084 32.2835 20.5105 31.5 21.5 31.5Z" fill="white"/>
</g>
<defs>
<clipPath id="clip0_2863_10063">
<rect width="43" height="42" fill="white"/>
</clipPath>
</defs>
</svg>
