<svg width="494" height="237" viewBox="0 0 494 237" fill="none" xmlns="http://www.w3.org/2000/svg">
<g filter="url(#filter0_d_2863_10819)">
<rect x="2" width="490" height="225" rx="20" fill="#641E21"/>
</g>
<path d="M222.728 121.456V111.28H240.456V158H229.064V121.456H222.728ZM247.559 149.232C249.009 148.08 249.671 147.547 249.543 147.632C253.724 144.176 257.009 141.339 259.399 139.12C261.831 136.901 263.879 134.576 265.543 132.144C267.207 129.712 268.039 127.344 268.039 125.04C268.039 123.291 267.633 121.925 266.823 120.944C266.012 119.963 264.796 119.472 263.175 119.472C261.553 119.472 260.273 120.091 259.335 121.328C258.439 122.523 257.991 124.229 257.991 126.448H247.431C247.516 122.821 248.284 119.792 249.735 117.36C251.228 114.928 253.169 113.136 255.559 111.984C257.991 110.832 260.679 110.256 263.623 110.256C268.7 110.256 272.519 111.557 275.079 114.16C277.681 116.763 278.983 120.155 278.983 124.336C278.983 128.901 277.425 133.147 274.311 137.072C271.196 140.955 267.228 144.752 262.407 148.464H279.687V157.36H247.559V149.232ZM284.505 134C284.505 126.661 285.913 120.88 288.729 116.656C291.588 112.432 296.174 110.32 302.489 110.32C308.804 110.32 313.369 112.432 316.185 116.656C319.044 120.88 320.473 126.661 320.473 134C320.473 141.424 319.044 147.248 316.185 151.472C313.369 155.696 308.804 157.808 302.489 157.808C296.174 157.808 291.588 155.696 288.729 151.472C285.913 147.248 284.505 141.424 284.505 134ZM309.721 134C309.721 129.691 309.252 126.384 308.313 124.08C307.374 121.733 305.433 120.56 302.489 120.56C299.545 120.56 297.604 121.733 296.665 124.08C295.726 126.384 295.257 129.691 295.257 134C295.257 136.901 295.428 139.312 295.769 141.232C296.11 143.109 296.793 144.645 297.817 145.84C298.884 146.992 300.441 147.568 302.489 147.568C304.537 147.568 306.073 146.992 307.097 145.84C308.164 144.645 308.868 143.109 309.209 141.232C309.55 139.312 309.721 136.901 309.721 134Z" fill="white"/>
<path d="M234.464 76.288C234.464 77.136 234.264 77.936 233.864 78.688C233.464 79.44 232.824 80.056 231.944 80.536C231.064 81 229.936 81.232 228.56 81.232H225.536V88H222.8V71.32H228.56C229.84 71.32 230.92 71.544 231.8 71.992C232.696 72.424 233.36 73.016 233.792 73.768C234.24 74.52 234.464 75.36 234.464 76.288ZM228.56 79C229.6 79 230.376 78.768 230.888 78.304C231.4 77.824 231.656 77.152 231.656 76.288C231.656 74.464 230.624 73.552 228.56 73.552H225.536V79H228.56ZM249.193 81.064C249.193 81.56 249.161 82.008 249.097 82.408H238.993C239.073 83.464 239.465 84.312 240.169 84.952C240.873 85.592 241.737 85.912 242.761 85.912C244.233 85.912 245.273 85.296 245.881 84.064H248.833C248.433 85.28 247.705 86.28 246.649 87.064C245.609 87.832 244.313 88.216 242.761 88.216C241.497 88.216 240.361 87.936 239.353 87.376C238.361 86.8 237.577 86 237.001 84.976C236.441 83.936 236.161 82.736 236.161 81.376C236.161 80.016 236.433 78.824 236.977 77.8C237.537 76.76 238.313 75.96 239.305 75.4C240.313 74.84 241.465 74.56 242.761 74.56C244.009 74.56 245.121 74.832 246.097 75.376C247.073 75.92 247.833 76.688 248.377 77.68C248.921 78.656 249.193 79.784 249.193 81.064ZM246.337 80.2C246.321 79.192 245.961 78.384 245.257 77.776C244.553 77.168 243.681 76.864 242.641 76.864C241.697 76.864 240.889 77.168 240.217 77.776C239.545 78.368 239.145 79.176 239.017 80.2H246.337ZM254.622 76.696C255.022 76.024 255.55 75.504 256.206 75.136C256.878 74.752 257.67 74.56 258.582 74.56V77.392H257.886C256.814 77.392 255.998 77.664 255.438 78.208C254.894 78.752 254.622 79.696 254.622 81.04V88H251.886V74.776H254.622V76.696ZM263.833 76.72C264.297 76.112 264.929 75.6 265.729 75.184C266.529 74.768 267.433 74.56 268.441 74.56C269.593 74.56 270.641 74.848 271.585 75.424C272.545 75.984 273.297 76.776 273.841 77.8C274.385 78.824 274.657 80 274.657 81.328C274.657 82.656 274.385 83.848 273.841 84.904C273.297 85.944 272.545 86.76 271.585 87.352C270.641 87.928 269.593 88.216 268.441 88.216C267.433 88.216 266.537 88.016 265.753 87.616C264.969 87.2 264.329 86.688 263.833 86.08V94.288H261.097V74.776H263.833V76.72ZM271.873 81.328C271.873 80.416 271.681 79.632 271.297 78.976C270.929 78.304 270.433 77.8 269.809 77.464C269.201 77.112 268.545 76.936 267.841 76.936C267.153 76.936 266.497 77.112 265.873 77.464C265.265 77.816 264.769 78.328 264.385 79C264.017 79.672 263.833 80.464 263.833 81.376C263.833 82.288 264.017 83.088 264.385 83.776C264.769 84.448 265.265 84.96 265.873 85.312C266.497 85.664 267.153 85.84 267.841 85.84C268.545 85.84 269.201 85.664 269.809 85.312C270.433 84.944 270.929 84.416 271.297 83.728C271.681 83.04 271.873 82.24 271.873 81.328ZM278.755 73.024C278.259 73.024 277.843 72.856 277.507 72.52C277.171 72.184 277.003 71.768 277.003 71.272C277.003 70.776 277.171 70.36 277.507 70.024C277.843 69.688 278.259 69.52 278.755 69.52C279.235 69.52 279.643 69.688 279.979 70.024C280.315 70.36 280.483 70.776 280.483 71.272C280.483 71.768 280.315 72.184 279.979 72.52C279.643 72.856 279.235 73.024 278.755 73.024ZM280.099 74.776V88H277.363V74.776H280.099ZM290.363 74.56C291.403 74.56 292.331 74.776 293.147 75.208C293.979 75.64 294.627 76.28 295.091 77.128C295.555 77.976 295.787 79 295.787 80.2V88H293.075V80.608C293.075 79.424 292.779 78.52 292.187 77.896C291.595 77.256 290.787 76.936 289.763 76.936C288.739 76.936 287.923 77.256 287.315 77.896C286.723 78.52 286.427 79.424 286.427 80.608V88H283.691V74.776H286.427V76.288C286.875 75.744 287.443 75.32 288.131 75.016C288.835 74.712 289.579 74.56 290.363 74.56ZM298.365 81.328C298.365 80 298.637 78.824 299.181 77.8C299.741 76.776 300.493 75.984 301.437 75.424C302.397 74.848 303.461 74.56 304.629 74.56C305.493 74.56 306.341 74.752 307.173 75.136C308.021 75.504 308.693 76 309.189 76.624V70.24H311.949V88H309.189V86.008C308.741 86.648 308.117 87.176 307.317 87.592C306.533 88.008 305.629 88.216 304.605 88.216C303.453 88.216 302.397 87.928 301.437 87.352C300.493 86.76 299.741 85.944 299.181 84.904C298.637 83.848 298.365 82.656 298.365 81.328ZM309.189 81.376C309.189 80.464 308.997 79.672 308.613 79C308.245 78.328 307.757 77.816 307.149 77.464C306.541 77.112 305.885 76.936 305.181 76.936C304.477 76.936 303.821 77.112 303.213 77.464C302.605 77.8 302.109 78.304 301.725 78.976C301.357 79.632 301.173 80.416 301.173 81.328C301.173 82.24 301.357 83.04 301.725 83.728C302.109 84.416 302.605 84.944 303.213 85.312C303.837 85.664 304.493 85.84 305.181 85.84C305.885 85.84 306.541 85.664 307.149 85.312C307.757 84.96 308.245 84.448 308.613 83.776C308.997 83.088 309.189 82.288 309.189 81.376ZM314.63 81.328C314.63 80 314.902 78.824 315.446 77.8C316.006 76.776 316.758 75.984 317.702 75.424C318.662 74.848 319.718 74.56 320.87 74.56C321.91 74.56 322.814 74.768 323.582 75.184C324.366 75.584 324.99 76.088 325.454 76.696V74.776H328.214V88H325.454V86.032C324.99 86.656 324.358 87.176 323.558 87.592C322.758 88.008 321.846 88.216 320.822 88.216C319.686 88.216 318.646 87.928 317.702 87.352C316.758 86.76 316.006 85.944 315.446 84.904C314.902 83.848 314.63 82.656 314.63 81.328ZM325.454 81.376C325.454 80.464 325.262 79.672 324.878 79C324.51 78.328 324.022 77.816 323.414 77.464C322.806 77.112 322.15 76.936 321.446 76.936C320.742 76.936 320.086 77.112 319.478 77.464C318.87 77.8 318.374 78.304 317.99 78.976C317.622 79.632 317.438 80.416 317.438 81.328C317.438 82.24 317.622 83.04 317.99 83.728C318.374 84.416 318.87 84.944 319.478 85.312C320.102 85.664 320.758 85.84 321.446 85.84C322.15 85.84 322.806 85.664 323.414 85.312C324.022 84.96 324.51 84.448 324.878 83.776C325.262 83.088 325.454 82.288 325.454 81.376ZM338.648 74.56C339.656 74.56 340.552 74.776 341.336 75.208C342.136 75.64 342.76 76.28 343.208 77.128C343.672 77.976 343.904 79 343.904 80.2V88H341.192V80.608C341.192 79.424 340.896 78.52 340.304 77.896C339.712 77.256 338.904 76.936 337.88 76.936C336.856 76.936 336.04 77.256 335.432 77.896C334.84 78.52 334.544 79.424 334.544 80.608V88H331.808V70.24H334.544V76.312C335.008 75.752 335.592 75.32 336.296 75.016C337.016 74.712 337.8 74.56 338.648 74.56ZM346.482 81.328C346.482 80 346.754 78.824 347.298 77.8C347.858 76.776 348.61 75.984 349.554 75.424C350.514 74.848 351.57 74.56 352.722 74.56C353.762 74.56 354.666 74.768 355.434 75.184C356.218 75.584 356.842 76.088 357.306 76.696V74.776H360.066V88H357.306V86.032C356.842 86.656 356.21 87.176 355.41 87.592C354.61 88.008 353.698 88.216 352.674 88.216C351.538 88.216 350.498 87.928 349.554 87.352C348.61 86.76 347.858 85.944 347.298 84.904C346.754 83.848 346.482 82.656 346.482 81.328ZM357.306 81.376C357.306 80.464 357.114 79.672 356.73 79C356.362 78.328 355.874 77.816 355.266 77.464C354.658 77.112 354.002 76.936 353.298 76.936C352.594 76.936 351.938 77.112 351.33 77.464C350.722 77.8 350.226 78.304 349.842 78.976C349.474 79.632 349.29 80.416 349.29 81.328C349.29 82.24 349.474 83.04 349.842 83.728C350.226 84.416 350.722 84.944 351.33 85.312C351.954 85.664 352.61 85.84 353.298 85.84C354.002 85.84 354.658 85.664 355.266 85.312C355.874 84.96 356.362 84.448 356.73 83.776C357.114 83.088 357.306 82.288 357.306 81.376ZM370.331 74.56C371.371 74.56 372.299 74.776 373.115 75.208C373.947 75.64 374.595 76.28 375.059 77.128C375.523 77.976 375.755 79 375.755 80.2V88H373.043V80.608C373.043 79.424 372.747 78.52 372.155 77.896C371.563 77.256 370.755 76.936 369.731 76.936C368.707 76.936 367.891 77.256 367.283 77.896C366.691 78.52 366.395 79.424 366.395 80.608V88H363.659V74.776H366.395V76.288C366.843 75.744 367.411 75.32 368.099 75.016C368.803 74.712 369.547 74.56 370.331 74.56ZM397.144 76.288C397.144 77.136 396.944 77.936 396.544 78.688C396.144 79.44 395.504 80.056 394.624 80.536C393.744 81 392.616 81.232 391.24 81.232H388.216V88H385.48V71.32H391.24C392.52 71.32 393.6 71.544 394.48 71.992C395.376 72.424 396.04 73.016 396.472 73.768C396.92 74.52 397.144 75.36 397.144 76.288ZM391.24 79C392.28 79 393.056 78.768 393.568 78.304C394.08 77.824 394.336 77.152 394.336 76.288C394.336 74.464 393.304 73.552 391.24 73.552H388.216V79H391.24ZM408.945 88L402.489 80.536V88H399.753V71.32H402.489V78.928L408.969 71.32H412.401L405.153 79.672L412.521 88H408.945ZM417.677 85.792H423.317V88H414.941V71.32H417.677V85.792Z" fill="white"/>
<rect x="75" y="70" width="111" height="92" rx="15" fill="#EC933A"/>
<g clip-path="url(#clip0_2863_10819)">
<path d="M139.5 116C134.253 116 130 120.701 130 126.5C130 132.299 134.253 137 139.5 137C144.747 137 149 132.299 149 126.5C149 120.701 144.747 116 139.5 116ZM144.247 128.674L141.872 131.299C141.606 131.593 141.25 131.748 140.889 131.748C140.71 131.748 140.529 131.711 140.357 131.631C139.837 131.393 139.5 130.833 139.5 130.21V128.248H134.75C133.876 128.248 133.167 127.466 133.167 126.498C133.167 125.531 133.876 124.748 134.75 124.748H139.5V122.787C139.5 122.165 139.837 121.604 140.357 121.365C140.878 121.124 141.474 121.257 141.872 121.698L144.247 124.323C145.331 125.522 145.331 127.473 144.247 128.672V128.674ZM126.833 126.5C126.833 124.642 127.167 122.872 127.763 121.25H126.833C125.959 121.25 125.25 120.466 125.25 119.5C125.25 118.534 125.959 117.75 126.833 117.75H128.417C128.781 117.75 129.104 117.899 129.364 118.13C131.064 115.618 133.504 113.765 136.333 112.958V103.75C136.333 98.9253 132.782 95 128.417 95H118.917C114.551 95 111 98.9253 111 103.75V128.25C111 133.075 114.551 137 118.917 137H128.417C129.227 137 130.003 136.851 130.738 136.594C128.336 134.046 126.833 130.469 126.833 126.5ZM126.833 103.75H128.417C129.291 103.75 130 104.534 130 105.5C130 106.466 129.291 107.25 128.417 107.25H126.833C125.959 107.25 125.25 106.466 125.25 105.5C125.25 104.534 125.959 103.75 126.833 103.75ZM126.833 110.75H128.417C129.291 110.75 130 111.534 130 112.5C130 113.466 129.291 114.25 128.417 114.25H126.833C125.959 114.25 125.25 113.466 125.25 112.5C125.25 111.534 125.959 110.75 126.833 110.75ZM120.5 128.25H118.917C118.043 128.25 117.333 127.466 117.333 126.5C117.333 125.534 118.043 124.75 118.917 124.75H120.5C121.374 124.75 122.083 125.534 122.083 126.5C122.083 127.466 121.374 128.25 120.5 128.25ZM120.5 121.25H118.917C118.043 121.25 117.333 120.466 117.333 119.5C117.333 118.534 118.043 117.75 118.917 117.75H120.5C121.374 117.75 122.083 118.534 122.083 119.5C122.083 120.466 121.374 121.25 120.5 121.25ZM120.5 114.25H118.917C118.043 114.25 117.333 113.466 117.333 112.5C117.333 111.534 118.043 110.75 118.917 110.75H120.5C121.374 110.75 122.083 111.534 122.083 112.5C122.083 113.466 121.374 114.25 120.5 114.25ZM120.5 107.25H118.917C118.043 107.25 117.333 106.466 117.333 105.5C117.333 104.534 118.043 103.75 118.917 103.75H120.5C121.374 103.75 122.083 104.534 122.083 105.5C122.083 106.466 121.374 107.25 120.5 107.25Z" fill="white"/>
</g>
<defs>
<filter id="filter0_d_2863_10819" x="0" y="0" width="494" height="237" filterUnits="userSpaceOnUse" color-interpolation-filters="sRGB">
<feFlood flood-opacity="0" result="BackgroundImageFix"/>
<feColorMatrix in="SourceAlpha" type="matrix" values="0 0 0 0 0 0 0 0 0 0 0 0 0 0 0 0 0 0 127 0" result="hardAlpha"/>
<feOffset dy="10"/>
<feGaussianBlur stdDeviation="1"/>
<feComposite in2="hardAlpha" operator="out"/>
<feColorMatrix type="matrix" values="0 0 0 0 0.92854 0 0 0 0 0.92854 0 0 0 0 0.92854 0 0 0 1 0"/>
<feBlend mode="normal" in2="BackgroundImageFix" result="effect1_dropShadow_2863_10819"/>
<feBlend mode="normal" in="SourceGraphic" in2="effect1_dropShadow_2863_10819" result="shape"/>
</filter>
<clipPath id="clip0_2863_10819">
<rect width="38" height="42" fill="white" transform="translate(111 95)"/>
</clipPath>
</defs>
</svg>
