<svg width="27" height="28" viewBox="0 0 27 28" fill="none" xmlns="http://www.w3.org/2000/svg">
<path d="M20.25 14C16.5217 14 13.5 17.1337 13.5 21C13.5 24.8663 16.5217 28 20.25 28C23.9783 28 27 24.8663 27 21C27 17.1337 23.9783 14 20.25 14ZM23.6227 22.449L21.9352 24.199C21.7462 24.395 21.4931 24.4988 21.2366 24.4988C21.1095 24.4988 20.9813 24.4743 20.8586 24.4207C20.4896 24.262 20.25 23.8887 20.25 23.4733V22.1655H16.875C16.254 22.1655 15.75 21.644 15.75 20.9988C15.75 20.3537 16.254 19.8322 16.875 19.8322H20.25V18.5243C20.25 18.1102 20.4896 17.7357 20.8586 17.577C21.2288 17.416 21.6529 17.5047 21.9352 17.7987L23.6227 19.5487C24.3934 20.3478 24.3934 21.6487 23.6227 22.4478V22.449ZM11.25 21C11.25 19.761 11.4874 18.5815 11.9104 17.5H11.25C10.629 17.5 10.125 16.9773 10.125 16.3333C10.125 15.6893 10.629 15.1667 11.25 15.1667H12.375C12.6337 15.1667 12.8632 15.2658 13.0477 15.4198C14.256 13.7457 15.9896 12.5102 18 11.9723V5.83333C18 2.61683 15.4766 0 12.375 0H5.625C2.52338 0 0 2.61683 0 5.83333V22.1667C0 25.3832 2.52338 28 5.625 28H12.375C12.951 28 13.5022 27.9008 14.0243 27.7293C12.3176 26.0307 11.25 23.646 11.25 21ZM11.25 5.83333H12.375C12.996 5.83333 13.5 6.356 13.5 7C13.5 7.644 12.996 8.16667 12.375 8.16667H11.25C10.629 8.16667 10.125 7.644 10.125 7C10.125 6.356 10.629 5.83333 11.25 5.83333ZM11.25 10.5H12.375C12.996 10.5 13.5 11.0227 13.5 11.6667C13.5 12.3107 12.996 12.8333 12.375 12.8333H11.25C10.629 12.8333 10.125 12.3107 10.125 11.6667C10.125 11.0227 10.629 10.5 11.25 10.5ZM6.75 22.1667H5.625C5.004 22.1667 4.5 21.644 4.5 21C4.5 20.356 5.004 19.8333 5.625 19.8333H6.75C7.371 19.8333 7.875 20.356 7.875 21C7.875 21.644 7.371 22.1667 6.75 22.1667ZM6.75 17.5H5.625C5.004 17.5 4.5 16.9773 4.5 16.3333C4.5 15.6893 5.004 15.1667 5.625 15.1667H6.75C7.371 15.1667 7.875 15.6893 7.875 16.3333C7.875 16.9773 7.371 17.5 6.75 17.5ZM6.75 12.8333H5.625C5.004 12.8333 4.5 12.3107 4.5 11.6667C4.5 11.0227 5.004 10.5 5.625 10.5H6.75C7.371 10.5 7.875 11.0227 7.875 11.6667C7.875 12.3107 7.371 12.8333 6.75 12.8333ZM6.75 8.16667H5.625C5.004 8.16667 4.5 7.644 4.5 7C4.5 6.356 5.004 5.83333 5.625 5.83333H6.75C7.371 5.83333 7.875 6.356 7.875 7C7.875 7.644 7.371 8.16667 6.75 8.16667Z" fill="white"/>
</svg>
