<svg width="38" height="42" viewBox="0 0 38 42" fill="none" xmlns="http://www.w3.org/2000/svg">
<g clip-path="url(#clip0_2863_10825)">
<path d="M28.5 21C23.2528 21 19 25.7005 19 31.5C19 37.2995 23.2528 42 28.5 42C33.7472 42 38 37.2995 38 31.5C38 25.7005 33.7472 21 28.5 21ZM33.2468 33.6735L30.8718 36.2985C30.6058 36.5925 30.2496 36.7483 29.8886 36.7483C29.7097 36.7483 29.5292 36.7115 29.3566 36.631C28.8373 36.393 28.5 35.833 28.5 35.21V33.2483H23.75C22.876 33.2483 22.1667 32.466 22.1667 31.4983C22.1667 30.5305 22.876 29.7483 23.75 29.7483H28.5V27.7865C28.5 27.1653 28.8373 26.6035 29.3566 26.3655C29.8775 26.124 30.4744 26.257 30.8718 26.698L33.2468 29.323C34.3314 30.5218 34.3314 32.473 33.2468 33.6717V33.6735ZM15.8333 31.5C15.8333 29.6415 16.1674 27.8722 16.7628 26.25H15.8333C14.9593 26.25 14.25 25.466 14.25 24.5C14.25 23.534 14.9593 22.75 15.8333 22.75H17.4167C17.7808 22.75 18.1038 22.8988 18.3635 23.1297C20.064 20.6185 22.5039 18.7652 25.3333 17.9585V8.75C25.3333 3.92525 21.7819 0 17.4167 0H7.91667C3.55142 0 0 3.92525 0 8.75V33.25C0 38.0747 3.55142 42 7.91667 42H17.4167C18.2273 42 19.0032 41.8512 19.7378 41.594C17.3359 39.046 15.8333 35.469 15.8333 31.5ZM15.8333 8.75H17.4167C18.2907 8.75 19 9.534 19 10.5C19 11.466 18.2907 12.25 17.4167 12.25H15.8333C14.9593 12.25 14.25 11.466 14.25 10.5C14.25 9.534 14.9593 8.75 15.8333 8.75ZM15.8333 15.75H17.4167C18.2907 15.75 19 16.534 19 17.5C19 18.466 18.2907 19.25 17.4167 19.25H15.8333C14.9593 19.25 14.25 18.466 14.25 17.5C14.25 16.534 14.9593 15.75 15.8333 15.75ZM9.5 33.25H7.91667C7.04267 33.25 6.33333 32.466 6.33333 31.5C6.33333 30.534 7.04267 29.75 7.91667 29.75H9.5C10.374 29.75 11.0833 30.534 11.0833 31.5C11.0833 32.466 10.374 33.25 9.5 33.25ZM9.5 26.25H7.91667C7.04267 26.25 6.33333 25.466 6.33333 24.5C6.33333 23.534 7.04267 22.75 7.91667 22.75H9.5C10.374 22.75 11.0833 23.534 11.0833 24.5C11.0833 25.466 10.374 26.25 9.5 26.25ZM9.5 19.25H7.91667C7.04267 19.25 6.33333 18.466 6.33333 17.5C6.33333 16.534 7.04267 15.75 7.91667 15.75H9.5C10.374 15.75 11.0833 16.534 11.0833 17.5C11.0833 18.466 10.374 19.25 9.5 19.25ZM9.5 12.25H7.91667C7.04267 12.25 6.33333 11.466 6.33333 10.5C6.33333 9.534 7.04267 8.75 7.91667 8.75H9.5C10.374 8.75 11.0833 9.534 11.0833 10.5C11.0833 11.466 10.374 12.25 9.5 12.25Z" fill="white"/>
</g>
<defs>
<clipPath id="clip0_2863_10825">
<rect width="38" height="42" fill="white"/>
</clipPath>
</defs>
</svg>
