<svg width="231" height="233" viewBox="0 0 231 233" fill="none" xmlns="http://www.w3.org/2000/svg">
<path d="M61.8258 70.9992C60.1776 71.5446 58.4945 72.0068 56.7849 72.3838C54.5267 72.8618 53.2517 73.0833 51.0722 72.3486C50.9956 72.3228 50.9225 72.2973 50.8536 72.2722C46.7223 70.7467 43.1908 68.211 40.6889 64.9738C38.187 61.7365 36.8226 57.9374 36.7618 54.0389C36.7509 53.9052 36.7509 53.7646 36.7509 53.6274C36.7488 52.9667 36.7851 52.3063 36.8599 51.6488C36.9554 50.7531 37.1203 49.864 37.3537 48.9876L37.3319 48.9842C35.5672 47.4171 34.8882 45.2703 35.1134 43.1133C35.2676 41.651 35.8019 40.2381 36.6762 38.9812C37.5504 37.7243 38.7418 36.656 40.1604 35.8571C42.3837 34.6431 44.8905 33.8746 47.4986 33.6075C48.1989 33.5373 48.9032 33.5018 49.6082 33.5012H56.2311C57.5989 33.223 58.9885 33.0328 60.3885 32.9319H60.3994C73.7287 31.9717 84.2404 39.6464 83.26 48.9842C83.2527 48.9945 83.2419 49.0048 83.2346 49.0151C82.9514 49.4163 82.7008 49.7969 82.4793 50.1604C82.2651 50.4999 82.0836 50.8257 81.9275 51.1344C80.7111 53.5211 86.4916 90.5516 84.4183 91.114C83.2382 91.4329 78.4816 63.8775 79.3349 69.1173C80.4097 75.6912 67.9665 69.0278 61.8258 70.9992Z" fill="#2F2E41"/>
<path d="M81.9056 137.94L100.383 172.127L29.3058 165.875L44.1427 133.056L81.9056 137.94Z" fill="#FFB6B6"/>
<path d="M118.997 206.483C106.637 210.056 93.6117 211.572 80.6048 210.949L74.9488 202.983C74.9488 202.983 74.712 205.95 74.3587 210.486C68.1671 209.862 62.0562 208.737 56.1061 207.125C44.8221 204.06 34.2447 199.312 23.5227 194.933C21.351 183.689 20.5361 166.352 32.5426 156.259L97.1675 166.544C97.1675 166.544 107.536 173.279 104.762 175.692C101.989 178.101 101.559 177.728 103.381 179.311C105.204 180.893 109.142 183.01 109.182 184.394C109.198 184.934 113.618 194.734 118.997 206.483Z" fill="#2F2E41"/>
<path d="M70.6206 71.877L55.0074 72.823L44.9161 81.2921L41.3819 81.84C38.205 82.3319 35.3465 83.8192 33.3483 86.0199C31.3501 88.2205 30.3512 90.9815 30.541 93.7792C31.268 104.476 32.8957 120.46 36.2977 125.645C41.5729 133.686 45.93 131.163 41.5728 133.686C37.2157 136.209 34.2904 134.226 36.2977 138.213C38.305 142.2 33.5847 147.314 33.5847 147.314L31.7057 148.946L33.6986 149.656L97.2021 156.832C97.2021 156.832 91.7111 135.39 95.1451 130.123C98.5791 124.856 106.905 108.934 99.4742 102.704L92.2086 80.4982L79.7108 77.2969L70.6206 71.877Z" fill="#EC933A"/>
<path d="M165.134 159.881C164.09 159.852 163.064 159.626 162.13 159.22C161.195 158.813 160.373 158.235 159.721 157.525C159.069 156.815 158.602 155.991 158.353 155.109C158.104 154.228 158.078 153.309 158.278 152.418L128.49 134.897L132.044 126.55L167.249 147.584C168.951 147.988 170.424 148.919 171.388 150.203C172.352 151.486 172.741 153.033 172.48 154.548C172.22 156.064 171.328 157.444 169.974 158.427C168.62 159.41 166.898 159.927 165.134 159.881Z" fill="#FFB6B6"/>
<path d="M80.9977 79.4492L76.6692 80.9377L99.7596 120.105L147.561 148.403L154.451 138.289L118.064 110.992L103.497 86.7278C101.447 83.3131 98.0124 80.6792 93.8571 79.3349C89.7019 77.9907 85.1204 78.0314 80.9977 79.4492Z" fill="#EC933A"/>
<path d="M62.0016 68.4327C70.6602 68.4327 77.6794 62.3365 77.6794 54.8164C77.6794 47.2964 70.6602 41.2002 62.0016 41.2002C53.3429 41.2002 46.3237 47.2964 46.3237 54.8164C46.3237 62.3365 53.3429 68.4327 62.0016 68.4327Z" fill="#FFB6B6"/>
<path d="M75.635 49.0583C75.3736 49.1781 75.1158 49.2885 74.8543 49.3988C74.582 49.5124 74.3097 49.6259 74.0338 49.7331C68.787 51.7987 64.5134 52.0289 61.9208 49.0583C61.8499 47.4954 61.4448 45.9577 60.7263 44.5235C60.8532 46.1262 60.3669 47.7204 59.3429 49.0583H54.1215C48.7441 52.1582 45.9845 55.0058 49.7172 65.1822C49.9604 65.8507 51.627 89.603 52.1027 91.4289C43.9621 88.7168 36.9398 59.9221 36.7619 52.3348C36.7509 52.2118 36.751 52.0825 36.751 51.9563C36.7488 51.3485 36.7852 50.7411 36.8599 50.1368C36.9557 49.3117 37.1207 48.4938 37.3537 47.6896L37.3319 47.6865C36.5037 46.9988 35.8718 46.1525 35.4866 45.2152C35.1015 44.2779 34.9736 43.2755 35.1134 42.2877C36.479 40.7347 38.169 39.4189 40.0951 38.4089C41.8465 37.6723 43.672 37.0769 45.5488 36.6303C45.596 36.6208 45.6359 36.6114 45.6831 36.6019C46.2568 36.4663 46.8451 36.3433 47.4333 36.2361C48.6455 36.0153 49.8711 35.8542 51.1042 35.7536C51.195 35.7505 51.2821 35.7441 51.362 35.7441C51.8552 35.7444 52.3393 35.8599 52.7635 36.0784C52.7672 36.0784 52.7672 36.0816 52.7744 36.0816C53.182 36.2931 53.5201 36.5922 53.756 36.9501C53.992 37.308 54.1178 37.7126 54.1215 38.125H59.9383C60.1525 38.125 60.3668 38.1314 60.581 38.1408C68.6817 38.4215 75.1921 41.4299 75.6096 48.3456C75.6278 48.5853 75.635 48.8186 75.635 49.0583Z" fill="#2F2E41"/>
<path d="M41.2449 49.606C46.9493 49.606 51.5736 45.5898 51.5736 40.6355C51.5736 35.6813 46.9493 31.665 41.2449 31.665C35.5406 31.665 30.9163 35.6813 30.9163 40.6355C30.9163 45.5898 35.5406 49.606 41.2449 49.606Z" fill="#2F2E41"/>
<path d="M55.425 36.4862C54.2516 41.3345 48.4623 44.2342 42.9239 43.0481C40.2642 42.4784 37.974 41.0146 36.5571 38.9784C35.1402 36.9423 34.7127 34.5007 35.3685 32.1908C36.7343 27.3806 43.4559 28.7673 47.8697 25.6289C54.1136 21.1892 57.0075 29.9479 55.425 36.4862Z" fill="#2F2E41"/>
<path d="M32.4763 171.444C41.2792 140.266 58.7213 113.469 87.6078 92.4731C88.7258 90.8758 90.5276 89.7289 92.618 89.284C94.7084 88.839 96.9166 89.1324 98.7582 90.0997L167.429 126.261C169.268 127.232 170.588 128.797 171.101 130.612C171.613 132.428 171.275 134.346 170.161 135.945C159.136 167.937 142.622 195.697 115.03 214.916C113.912 216.514 112.11 217.66 110.02 218.105C107.93 218.55 105.721 218.257 103.88 217.29L35.2091 181.128C33.37 180.157 32.0494 178.592 31.5371 176.777C31.0248 174.961 31.3625 173.044 32.4763 171.444Z" fill="#F2F2F2"/>
<path opacity="0.2" d="M44.6818 181.951C42.8427 180.98 41.5221 179.416 41.0098 177.6C40.4975 175.785 40.8353 173.867 41.9491 172.267C50.752 141.09 68.1941 114.292 97.0805 93.2962C97.8205 92.2507 98.8654 91.3935 100.109 90.8113L98.7582 90.0997C96.9165 89.1324 94.7083 88.839 92.618 89.2839C90.5276 89.7289 88.7258 90.8757 87.6078 92.4729C58.7214 113.469 41.2792 140.266 32.4764 171.444C31.3626 173.044 31.0248 174.961 31.5371 176.777C32.0494 178.592 33.37 180.157 35.2091 181.128L103.879 217.29C105.102 217.928 106.497 218.275 107.923 218.295C109.349 218.314 110.756 218.006 112.001 217.401L44.6818 181.951Z" fill="black"/>
<path d="M125.215 164.532L79.12 140.411C78.3877 140.026 77.861 139.405 77.6555 138.684C77.4501 137.962 77.5827 137.2 78.0243 136.563C78.4659 135.927 79.1803 135.468 80.0107 135.289C80.841 135.11 81.7194 135.224 82.4529 135.607L128.548 159.728C129.278 160.113 129.803 160.734 130.008 161.455C130.212 162.176 130.079 162.937 129.638 163.573C129.197 164.209 128.484 164.667 127.655 164.846C126.826 165.026 125.948 164.913 125.215 164.532Z" fill="white"/>
<path d="M98.3997 132.544L88.2589 127.237C87.524 126.855 86.9938 126.236 86.7851 125.514C86.5763 124.793 86.706 124.029 87.1456 123.391C87.5853 122.753 88.2989 122.292 89.1294 122.111C89.9599 121.93 90.8394 122.042 91.5743 122.424L91.5917 122.433L101.733 127.74C102.463 128.125 102.989 128.746 103.193 129.467C103.398 130.188 103.265 130.949 102.824 131.585C102.382 132.221 101.669 132.679 100.84 132.859C100.011 133.038 99.1331 132.925 98.3997 132.544Z" fill="white"/>
<path d="M117.889 175.092L71.7939 150.97C71.0607 150.587 70.5328 149.966 70.3262 149.245C70.1196 148.524 70.2512 147.761 70.692 147.124C71.1328 146.486 71.8468 146.027 72.6771 145.847C73.5074 145.667 74.3861 145.781 75.1201 146.163L75.1267 146.166L121.222 170.288C121.952 170.673 122.477 171.294 122.681 172.015C122.886 172.735 122.753 173.497 122.312 174.133C121.871 174.768 121.158 175.226 120.328 175.406C119.499 175.586 118.622 175.473 117.889 175.092Z" fill="white"/>
<path d="M131.069 119.05C138.504 119.05 144.532 113.815 144.532 107.357C144.532 100.899 138.504 95.6641 131.069 95.6641C123.633 95.6641 117.605 100.899 117.605 107.357C117.605 113.815 123.633 119.05 131.069 119.05Z" fill="#3F3D56"/>
<path d="M107.861 232.651C123.754 232.651 136.637 221.462 136.637 207.659C136.637 193.856 123.754 182.667 107.861 182.667C91.9687 182.667 79.0853 193.856 79.0853 207.659C79.0853 221.462 91.9687 232.651 107.861 232.651Z" fill="white"/>
<path d="M107.861 233C102.09 233 96.4493 231.513 91.6511 228.729C86.853 225.945 83.1132 221.987 80.9049 217.356C78.6965 212.726 78.1187 207.631 79.2445 202.715C80.3703 197.8 83.1491 193.284 87.2296 189.741C91.3101 186.197 96.509 183.783 102.169 182.805C107.829 181.828 113.695 182.329 119.027 184.247C124.358 186.165 128.915 189.413 132.121 193.58C135.327 197.748 137.038 202.647 137.039 207.659C137.03 214.377 133.953 220.818 128.483 225.569C123.013 230.32 115.597 232.992 107.861 233ZM107.861 183.016C102.249 183.016 96.7633 184.461 92.0971 187.169C87.431 189.877 83.7941 193.725 81.6465 198.228C79.499 202.731 78.9371 207.686 80.0319 212.467C81.1268 217.247 83.8292 221.638 87.7975 225.085C91.7657 228.531 96.8216 230.878 102.326 231.829C107.83 232.78 113.535 232.292 118.72 230.426C123.905 228.561 128.336 225.403 131.454 221.35C134.572 217.297 136.236 212.533 136.236 207.659C136.227 201.125 133.235 194.861 127.916 190.242C122.596 185.622 115.384 183.023 107.861 183.016Z" fill="#3F3D56"/>
<path d="M103.936 220.666C103.439 220.666 102.949 220.566 102.504 220.373C102.06 220.18 101.673 219.899 101.375 219.554L93.5246 210.463C93.272 210.171 93.0881 209.838 92.9835 209.485C92.8788 209.131 92.8555 208.763 92.9148 208.401C92.9741 208.039 93.1149 207.691 93.3291 207.377C93.5433 207.063 93.8268 206.788 94.1632 206.569C94.4997 206.35 94.8826 206.19 95.29 206.1C95.6975 206.009 96.1215 205.989 96.5378 206.041C96.9541 206.093 97.3546 206.216 97.7163 206.402C98.0781 206.588 98.394 206.835 98.6461 207.127L103.782 213.074L116.973 195.889C117.207 195.586 117.506 195.325 117.856 195.122C118.205 194.918 118.597 194.777 119.009 194.705C119.421 194.634 119.846 194.633 120.258 194.704C120.67 194.775 121.063 194.916 121.412 195.118C121.762 195.321 122.063 195.581 122.296 195.885C122.53 196.188 122.693 196.528 122.776 196.886C122.858 197.244 122.859 197.613 122.777 197.971C122.695 198.329 122.533 198.67 122.3 198.974L106.599 219.428C106.315 219.798 105.933 220.103 105.485 220.319C105.037 220.534 104.536 220.653 104.025 220.665C103.995 220.666 103.965 220.666 103.936 220.666Z" fill="#EC933A"/>
<path d="M200.793 81.0112C201.937 80.9263 202.809 80.2974 202.741 79.6065C202.673 78.9156 201.691 78.4244 200.547 78.5093C199.404 78.5942 198.532 79.2231 198.6 79.914C198.668 80.6049 199.65 81.0961 200.793 81.0112Z" fill="white"/>
<path d="M147.675 29.3523C147.871 28.6802 147.128 27.9368 146.016 27.6919C144.903 27.4471 143.843 27.7935 143.646 28.4656C143.45 29.1377 144.193 29.8811 145.306 30.126C146.418 30.3708 147.479 30.0244 147.675 29.3523Z" fill="white"/>
<path d="M36.7582 171.775C35.7321 171.409 34.8096 170.855 34.0545 170.15C33.2994 169.445 32.7297 168.605 32.3848 167.69C32.0398 166.775 31.9279 165.805 32.0568 164.849C32.1857 163.892 32.5523 162.972 33.1312 162.15L11.0107 135.145L18.1071 127.994L44.1099 160.236C45.6294 161.185 46.6951 162.585 47.1052 164.171C47.5153 165.757 47.2413 167.419 46.3351 168.841C45.4289 170.264 43.9535 171.348 42.1884 171.888C40.4233 172.429 38.4912 172.389 36.7582 171.775Z" fill="#FFB6B6"/>
<path d="M37.2664 86.194C36.1473 85.6221 34.8302 85.4154 33.5514 85.6109C32.2726 85.8064 31.116 86.3914 30.289 87.2608L0.401367 123.564L28.0994 157.73L38.9378 147.62L22.0781 124.61L44.4848 106.081C46.3261 102.578 46.6073 98.6063 45.2742 94.9334C43.9411 91.2605 41.0881 88.1469 37.2664 86.194Z" fill="#EC933A"/>
</svg>
