<svg width="61" height="58" viewBox="0 0 61 58" fill="none" xmlns="http://www.w3.org/2000/svg">
<ellipse cx="30.5" cy="29" rx="30.5" ry="29" fill="#EC933A"/>
<g clip-path="url(#clip0_1369_9496)">
<path d="M30 35.5V33.875C30 32.3811 31.0276 31.1667 32.2917 31.1667H32.75V30.625C32.75 29.7291 33.3669 29 34.125 29H36.875C37.6331 29 38.25 29.7291 38.25 30.625V31.1667H38.7083C39.9724 31.1667 41 32.3811 41 33.875V35.5H30ZM36.4167 37.6667V38.75H34.5833V37.6667H30V42H41V37.6667H36.4167ZM28.1667 42H19V19.25C19 17.4582 20.2338 16 21.75 16H30.9167C32.4328 16 33.6667 17.4582 33.6667 19.25V26.8745C32.5282 27.0684 31.5803 27.9676 31.1559 29.1885C29.4317 29.7724 28.1667 31.652 28.1667 33.875V42ZM27.25 23.5833H30V21.4167H27.25V23.5833ZM27.25 27.9167H30V25.75H27.25V27.9167ZM25.4167 34.4167H22.6667V36.5833H25.4167V34.4167ZM25.4167 30.0833H22.6667V32.25H25.4167V30.0833ZM25.4167 25.75H22.6667V27.9167H25.4167V25.75ZM25.4167 21.4167H22.6667V23.5833H25.4167V21.4167Z" fill="white"/>
</g>
<defs>
<clipPath id="clip0_1369_9496">
<rect width="22" height="26" fill="white" transform="translate(19 16)"/>
</clipPath>
</defs>
</svg>
