<svg width="61" height="58" viewBox="0 0 61 58" fill="none" xmlns="http://www.w3.org/2000/svg">
<ellipse cx="30.5" cy="29" rx="30.5" ry="29" fill="#EC933A"/>
<g clip-path="url(#clip0_1373_9499)">
<path d="M25.4375 30.0833C24.4362 30.0833 23.4574 29.7974 22.6249 29.2618C21.7924 28.7261 21.1435 27.9647 20.7604 27.0739C20.3772 26.1831 20.2769 25.2029 20.4723 24.2573C20.6676 23.3116 21.1498 22.443 21.8578 21.7612C22.5658 21.0794 23.4678 20.6151 24.4499 20.427C25.4319 20.2389 26.4498 20.3354 27.3748 20.7044C28.2999 21.0734 29.0905 21.6982 29.6468 22.4999C30.2031 23.3016 30.5 24.2442 30.5 25.2083C30.4985 26.5008 29.9647 27.74 29.0156 28.6539C28.0665 29.5678 26.7797 30.0819 25.4375 30.0833ZM32.75 42H18.125C17.8266 42 17.5405 41.8859 17.3295 41.6827C17.1185 41.4795 17 41.204 17 40.9167V40.375C17 38.2201 17.8889 36.1535 19.4713 34.6298C21.0536 33.106 23.1997 32.25 25.4375 32.25C27.6753 32.25 29.8214 33.106 31.4037 34.6298C32.9861 36.1535 33.875 38.2201 33.875 40.375V40.9167C33.875 41.204 33.7565 41.4795 33.5455 41.6827C33.3345 41.8859 33.0484 42 32.75 42ZM36.6875 25.75C35.6862 25.75 34.7074 25.4641 33.8749 24.9284C33.0424 24.3927 32.3935 23.6314 32.0104 22.7406C31.6272 21.8498 31.5269 20.8696 31.7223 19.9239C31.9176 18.9783 32.3998 18.1096 33.1078 17.4279C33.8158 16.7461 34.7178 16.2818 35.6999 16.0937C36.6819 15.9056 37.6998 16.0021 38.6248 16.3711C39.5499 16.7401 40.3405 17.3649 40.8968 18.1666C41.4531 18.9683 41.75 19.9108 41.75 20.875C41.7485 22.1675 41.2147 23.4066 40.2656 24.3206C39.3165 25.2345 38.0297 25.7486 36.6875 25.75ZM35.0889 27.9394C34.0411 28.0748 33.0336 28.4171 32.1296 28.9448C31.2255 29.4725 30.4444 30.1744 29.8351 31.0063C32.3561 32.1088 34.3369 34.1071 35.3634 36.5833H42.875C43.1734 36.5833 43.4595 36.4692 43.6705 36.266C43.8815 36.0629 44 35.7873 44 35.5V35.4588C43.9988 34.379 43.7585 33.3118 43.2949 32.3285C42.8314 31.3452 42.1553 30.4685 41.3119 29.7568C40.4685 29.0451 39.4772 28.5149 38.4041 28.2015C37.3309 27.8881 36.2007 27.7987 35.0889 27.9394Z" fill="white"/>
</g>
<defs>
<clipPath id="clip0_1373_9499">
<rect width="27" height="26" fill="white" transform="translate(17 16)"/>
</clipPath>
</defs>
</svg>
