<svg width="61" height="58" viewBox="0 0 61 58" fill="none" xmlns="http://www.w3.org/2000/svg">
<ellipse cx="30.5" cy="29" rx="30.5" ry="29" fill="#EC933A"/>
<path d="M30 25.75C26.8988 25.75 24.375 23.5628 24.375 20.875C24.375 18.1873 26.8988 16 30 16C33.1012 16 35.625 18.1873 35.625 20.875C35.625 23.5628 33.1012 25.75 30 25.75ZM43.6525 26.4878C42.795 25.8681 41.6788 25.6124 40.5075 25.7988L35.355 26.8853C32.9763 27.2602 31.25 29.0531 31.25 31.1493V39.6015L30 39.7987L28.75 39.6015V31.1493C28.75 29.0531 27.0237 27.2613 24.7162 26.8994L19.42 25.7858C18.3188 25.6103 17.2025 25.8692 16.3475 26.4878C15.49 27.1074 15 28.0163 15 28.9827V39.6362L30 42L45 39.6362V28.9827C45 28.0163 44.5088 27.1074 43.6525 26.4878Z" fill="white"/>
</svg>
