<svg width="61" height="58" viewBox="0 0 61 58" fill="none" xmlns="http://www.w3.org/2000/svg">
<ellipse cx="30.5" cy="29" rx="30.5" ry="29" fill="#EC933A"/>
<g clip-path="url(#clip0_1373_9497)">
<path d="M25.6667 17H21.875C19.1829 17 17 19.099 17 21.6875V25.3333C17 26.4844 17.9696 27.4167 19.1667 27.4167H25.6667C26.8638 27.4167 27.8333 26.4844 27.8333 25.3333V19.0833C27.8333 17.9323 26.8638 17 25.6667 17ZM32.1667 27.4167H38.6667C39.8638 27.4167 40.8333 26.4844 40.8333 25.3333V21.6875C40.8333 19.099 38.6504 17 35.9583 17H32.1667C30.9696 17 30 17.9323 30 19.0833V25.3333C30 26.4844 30.9696 27.4167 32.1667 27.4167ZM25.6667 29.5H19.1667C17.9696 29.5 17 30.4323 17 31.5833V35.2292C17 37.8177 19.1829 39.9167 21.875 39.9167H25.6667C26.8638 39.9167 27.8333 38.9844 27.8333 37.8333V31.5833C27.8333 30.4323 26.8638 29.5 25.6667 29.5ZM42.6826 40.2219L39.9309 37.576C40.4986 36.7521 40.8333 35.7677 40.8333 34.7083C40.8333 31.8365 38.4034 29.5 35.4167 29.5C32.4299 29.5 30 31.8365 30 34.7083C30 37.5802 32.4299 39.9167 35.4167 39.9167C36.5184 39.9167 37.5422 39.5948 38.3991 39.049L41.1508 41.6948C41.362 41.8979 41.6393 42 41.9167 42C42.194 42 42.4713 41.8979 42.6826 41.6948C43.1062 41.2875 43.1062 40.6292 42.6826 40.2219Z" fill="white"/>
</g>
<defs>
<clipPath id="clip0_1373_9497">
<rect width="26" height="25" fill="white" transform="translate(17 17)"/>
</clipPath>
</defs>
</svg>
