<svg width="61" height="58" viewBox="0 0 61 58" fill="none" xmlns="http://www.w3.org/2000/svg">
<ellipse cx="30.5" cy="29" rx="30.5" ry="29" fill="#EC933A"/>
<path d="M43.9999 25.1867V37.6667C43.9999 37.954 43.8814 38.2295 43.6704 38.4327C43.4594 38.6359 43.1733 38.75 42.8749 38.75C42.5765 38.75 42.2904 38.6359 42.0794 38.4327C41.8684 38.2295 41.7499 37.954 41.7499 37.6667V28.7313L33.4249 32.562C32.5471 33.0609 31.545 33.3208 30.5258 33.3138C29.4569 33.3154 28.4074 33.0388 27.4883 32.5132L19.1858 28.7075C18.5331 28.3695 17.9863 27.8696 17.602 27.2595C17.2177 26.6494 17.01 25.9513 17.0004 25.2378C16.9907 24.5243 17.1795 23.8213 17.5472 23.2018C17.9149 22.5823 18.448 22.0688 19.0913 21.7146C19.1217 21.6972 19.1543 21.681 19.1858 21.6658L27.5749 17.8113C28.4806 17.3105 29.5085 17.051 30.5529 17.0595C31.5973 17.0681 32.6204 17.3444 33.5172 17.8601L41.814 21.6658C42.4687 22.0146 43.0158 22.5241 43.3997 23.1425C43.7837 23.761 43.9907 24.4662 43.9999 25.1867ZM30.5247 35.4783C29.0853 35.4814 27.6707 35.1181 26.424 34.4253L21.4999 32.1622V35.0872C21.5006 36.2437 21.8851 37.3697 22.5973 38.3009C23.3095 39.2321 24.3121 39.9197 25.4588 40.2634C27.0971 40.7164 28.7955 40.9365 30.4999 40.9167C32.2046 40.9351 33.9029 40.7135 35.541 40.2591C36.6877 39.9154 37.6903 39.2278 38.4025 38.2966C39.1147 37.3654 39.4992 36.2394 39.4999 35.0829V32.1677L34.4835 34.4752C33.2794 35.1413 31.9134 35.4882 30.5247 35.4805V35.4783Z" fill="white"/>
</svg>
