<svg width="61" height="58" viewBox="0 0 61 58" fill="none" xmlns="http://www.w3.org/2000/svg">
<ellipse cx="30.5" cy="29" rx="30.5" ry="29" fill="#EC933A"/>
<g clip-path="url(#clip0_1373_9500)">
<path d="M32.3333 40.9167C32.3333 41.5147 31.8107 42 31.1667 42H17.1667C16.5227 42 16 41.5147 16 40.9167C16 36.7285 19.6563 33.3333 24.1667 33.3333C28.677 33.3333 32.3333 36.7285 32.3333 40.9167ZM24.1667 22.5C21.5895 22.5 19.5 24.4403 19.5 26.8333C19.5 29.2264 21.5895 31.1667 24.1667 31.1667C26.7438 31.1667 28.8333 29.2264 28.8333 26.8333C28.8333 24.4403 26.7438 22.5 24.1667 22.5ZM44 21.4167V30.0833C44 33.0744 41.3878 35.5 38.1667 35.5H32.8863C31.7838 33.9768 30.2322 32.7559 28.4075 32.0041C30.084 30.8168 31.1667 28.9426 31.1667 26.8333C31.1667 23.2432 28.033 20.3333 24.1667 20.3333C22.902 20.3333 21.7143 20.6453 20.6912 21.1903C20.8218 18.3107 23.3675 16 26.5 16H38.1667C41.3878 16 44 18.4256 44 21.4167ZM39.3333 32.25C39.3333 31.6509 38.8107 31.1667 38.1667 31.1667H34.0833C33.4393 31.1667 32.9167 31.6509 32.9167 32.25C32.9167 32.8491 33.4393 33.3333 34.0833 33.3333H38.1667C38.8107 33.3333 39.3333 32.8491 39.3333 32.25Z" fill="white"/>
</g>
<defs>
<clipPath id="clip0_1373_9500">
<rect width="28" height="26" fill="white" transform="translate(16 16)"/>
</clipPath>
</defs>
</svg>
