<svg width="21" height="20" viewBox="0 0 21 20" fill="none" xmlns="http://www.w3.org/2000/svg">
<ellipse cx="10.5" cy="10" rx="10.5" ry="10" fill="white"/>
<path d="M14.683 6.18299C14.5658 6.06582 14.4068 6 14.2411 6C14.0754 6 13.9164 6.06582 13.7992 6.18299L10.933 9.04924L8.06674 6.18299C7.94954 6.06582 7.79059 6 7.62487 6C7.45914 6 7.3002 6.06582 7.18299 6.18299C7.06582 6.3002 7 6.45914 7 6.62487C7 6.79059 7.06582 6.94954 7.18299 7.06674L10.0492 9.93299L7.18299 12.7992C7.06582 12.9164 7 13.0754 7 13.2411C7 13.4068 7.06582 13.5658 7.18299 13.683C7.3002 13.8002 7.45914 13.866 7.62487 13.866C7.79059 13.866 7.94954 13.8002 8.06674 13.683L10.933 10.8167L13.7992 13.683C13.9164 13.8002 14.0754 13.866 14.2411 13.866C14.4068 13.866 14.5658 13.8002 14.683 13.683C14.8002 13.5658 14.866 13.4068 14.866 13.2411C14.866 13.0754 14.8002 12.9164 14.683 12.7992L11.8167 9.93299L14.683 7.06674C14.8002 6.94954 14.866 6.79059 14.866 6.62487C14.866 6.45914 14.8002 6.3002 14.683 6.18299Z" fill="#641E21"/>
</svg>
