<svg width="27" height="23" viewBox="0 0 27 23" fill="none" xmlns="http://www.w3.org/2000/svg">
<path d="M20.25 23H5.625C2.52 23 0 20.6582 0 17.7727V6.27273C0 5.69773 0.50625 5.22727 1.125 5.22727C1.74375 5.22727 2.25 5.69773 2.25 6.27273V17.7727C2.25 19.4977 3.76875 20.9091 5.625 20.9091H20.25C20.8687 20.9091 21.375 21.3795 21.375 21.9545C21.375 22.5295 20.8687 23 20.25 23ZM13.365 8.48909C14.6812 9.71227 16.8188 9.71227 18.135 8.48909L25.47 1.67273C24.4462 0.648182 22.995 0 21.375 0H10.125C8.505 0 7.05375 0.648182 6.03 1.67273L13.365 8.48909ZM19.7325 9.96318C18.6413 10.9773 17.19 11.4895 15.75 11.4895C14.31 11.4895 12.87 10.9773 11.7675 9.96318L4.8375 3.52318C4.635 4.05636 4.5 4.63136 4.5 5.22727V13.5909C4.5 16.4764 7.02 18.8182 10.125 18.8182H21.375C24.48 18.8182 27 16.4764 27 13.5909V5.22727C27 4.63136 26.865 4.05636 26.6625 3.52318L19.7213 9.97364L19.7325 9.96318Z" fill="white"/>
</svg>
