<svg width="25" height="21" viewBox="0 0 25 21" fill="none" xmlns="http://www.w3.org/2000/svg">
<g clip-path="url(#clip0_2505_10648)">
<path d="M24.9521 4.84912L16.1833 12.2149C15.2056 13.0341 13.881 13.4942 12.5 13.4942C11.119 13.4942 9.7944 13.0341 8.81667 12.2149L0.0479167 4.84912C0.0333333 4.98737 0 5.1125 0 5.24987V15.7499C0.00165402 16.9098 0.550919 18.0218 1.52731 18.8419C2.50371 19.6621 3.82751 20.1235 5.20833 20.1249H19.7917C21.1725 20.1235 22.4963 19.6621 23.4727 18.8419C24.4491 18.0218 24.9983 16.9098 25 15.7499V5.24987C25 5.1125 24.9667 4.98737 24.9521 4.84912Z" fill="white"/>
<path d="M14.7103 10.9777L24.2249 2.98463C23.764 2.34265 23.1139 1.81128 22.3374 1.44176C21.5608 1.07225 20.684 0.877048 19.7916 0.875H5.20824C4.31576 0.877048 3.43897 1.07225 2.66243 1.44176C1.88589 1.81128 1.23582 2.34265 0.774902 2.98463L10.2895 10.9777C10.8765 11.4689 11.6713 11.7447 12.4999 11.7447C13.3285 11.7447 14.1233 11.4689 14.7103 10.9777Z" fill="white"/>
</g>
<defs>
<clipPath id="clip0_2505_10648">
<rect width="25" height="21" fill="white"/>
</clipPath>
</defs>
</svg>
