<svg width="47" height="43" viewBox="0 0 47 43" fill="none" xmlns="http://www.w3.org/2000/svg">
<path d="M33.2916 7.16667V3.58333C33.2916 2.63297 32.879 1.72154 32.1445 1.04953C31.4099 0.377529 30.4137 0 29.375 0L17.625 0C16.5862 0 15.59 0.377529 14.8555 1.04953C14.1209 1.72154 13.7083 2.63297 13.7083 3.58333V7.16667H3.91663V10.75H7.83329V37.625C7.83329 39.0505 8.45226 40.4177 9.55404 41.4257C10.6558 42.4337 12.1501 43 13.7083 43H33.2916C34.8498 43 36.3441 42.4337 37.4459 41.4257C38.5477 40.4177 39.1666 39.0505 39.1666 37.625V10.75H43.0833V7.16667H33.2916ZM21.5416 30.4583H17.625V19.7083H21.5416V30.4583ZM29.375 30.4583H25.4583V19.7083H29.375V30.4583ZM29.375 7.16667H17.625V3.58333H29.375V7.16667Z" fill="#EC933A"/>
</svg>
