<svg width="141" height="125" viewBox="0 0 141 125" fill="none" xmlns="http://www.w3.org/2000/svg">
<g clip-path="url(#clip0_5543_7)">
<path d="M139.876 123.213C139.629 123.56 139.381 123.905 139.134 124.247C138.426 124.739 137.586 125.002 136.726 125H4.27194C3.45047 125.001 2.64641 124.761 1.95713 124.311C1.72837 124.006 1.50219 123.7 1.27344 123.393L1.50219 123.266L68.5564 85.7711C69.1513 85.4391 69.8199 85.2646 70.4998 85.2637C71.1797 85.2628 71.8488 85.4356 72.4446 85.766L139.649 123.086L139.876 123.213Z" fill="#EC933A"/>
<path d="M136.727 44.3702L78.6136 10.5137C76.1693 9.08966 73.3968 8.3393 70.5742 8.33789C67.7516 8.33649 64.9783 9.08409 62.5327 10.5057L4.27273 44.3702C3.14002 44.3719 2.05417 44.8265 1.25323 45.6345C0.452281 46.4425 0.00160237 47.5379 0 48.6806V120.689C0.00131973 121.831 0.451905 122.927 1.25291 123.735C2.05392 124.543 3.13993 124.998 4.27273 124.999H136.727C137.86 124.997 138.946 124.542 139.746 123.734C140.547 122.927 140.998 121.831 141 120.689V48.6806C140.998 47.5379 140.548 46.4425 139.747 45.6345C138.946 44.8265 137.86 44.3719 136.727 44.3702ZM140.497 120.689C140.495 121.697 140.097 122.663 139.39 123.375C138.684 124.088 137.726 124.49 136.727 124.492H4.27273C3.2734 124.49 2.31552 124.089 1.60888 123.376C0.902252 122.663 0.504472 121.697 0.502674 120.689V48.6806C0.50389 47.6723 0.901481 46.7056 1.60824 45.9926C2.315 45.2797 3.27322 44.8786 4.27273 44.8773L62.5327 11.0128C64.9783 9.59119 67.7516 8.84359 70.5742 8.84499C73.3968 8.8464 76.1693 9.59676 78.6136 11.0208L136.727 44.8773C137.727 44.8786 138.685 45.2797 139.392 45.9926C140.099 46.7056 140.496 47.6723 140.497 48.6806V120.689Z" fill="#641E21"/>
<path d="M70.5736 85.1118C70.1358 85.1133 69.701 85.0397 69.2877 84.8941L69.2117 84.867L69.1963 84.6965C69.1489 84.7201 69.1011 84.7426 69.0532 84.7639L69.0027 84.7863L68.9521 84.7638C68.8461 84.7169 68.741 84.6637 68.6395 84.606L22.3672 58.3755V4.81762C22.3686 3.57401 22.8589 2.38173 23.7306 1.50236C24.6023 0.622992 25.7842 0.128349 27.0169 0.126953H113.979C115.212 0.128349 116.394 0.622992 117.266 1.50236C118.138 2.38173 118.628 3.57401 118.629 4.81762V58.444L118.565 58.4804L72.5077 84.6062C71.9164 84.9387 71.2505 85.1128 70.5736 85.1118Z" fill="white"/>
<path d="M70.5742 85.2384C70.1223 85.2399 69.6734 85.1639 69.2467 85.0136L69.0945 84.9594L69.088 84.887L69.0033 84.9245L68.9022 84.8797C68.7925 84.8311 68.6836 84.7761 68.5785 84.7163L22.2422 58.4496V4.81744C22.2436 3.54022 22.7472 2.31573 23.6425 1.41259C24.5377 0.509462 25.7515 0.00144551 27.0176 0H113.98C115.246 0.00145087 116.46 0.509467 117.355 1.4126C118.251 2.31573 118.754 3.54022 118.756 4.81744V58.518L72.5699 84.7164C71.9598 85.0597 71.2727 85.2394 70.5742 85.2384ZM69.5655 84.5851C70.4895 84.8528 71.481 84.7411 72.3238 84.2743L118.253 58.2213V4.81744C118.252 3.67466 117.801 2.57906 117 1.77099C116.199 0.962923 115.113 0.508386 113.98 0.507099H27.0176C25.8848 0.508381 24.7987 0.962918 23.9977 1.77099C23.1967 2.57906 22.7461 3.67466 22.7449 4.81744V58.1528L25.7583 59.86L68.825 84.2744C68.8836 84.3077 68.9431 84.3391 69.0034 84.3684C69.0638 84.3391 69.1232 84.3078 69.1817 84.2746L69.5202 84.0822L69.5655 84.5851Z" fill="#641E21"/>
<path d="M139.887 46.2433L121.647 56.5882L118.505 58.3706L72.4479 84.4964C71.8755 84.8184 71.2308 84.9869 70.5754 84.9857C70.1519 84.987 69.7312 84.9158 69.3313 84.7753C69.2201 84.7394 69.1109 84.6971 69.0045 84.6485C68.9016 84.6029 68.801 84.5522 68.703 84.4964L25.6364 60.0821L22.4947 58.3022L1.15116 46.2028C1.09312 46.1692 1.05055 46.1139 1.03268 46.0489C1.0148 45.9838 1.02307 45.9143 1.05568 45.8554C1.08838 45.797 1.14274 45.754 1.20682 45.7359C1.2709 45.7178 1.33946 45.7262 1.39746 45.7591L22.4947 57.719L25.6364 59.4989L68.9493 84.0527C69.093 84.134 69.2425 84.2044 69.3966 84.2631C69.462 84.2885 69.5299 84.3113 69.5978 84.3316C70.028 84.4648 70.4804 84.5087 70.9279 84.4608C71.3754 84.4129 71.8087 84.274 72.2016 84.0527L118.505 57.79L121.647 56.0075L139.64 45.8022C139.669 45.7858 139.701 45.7754 139.733 45.7714C139.766 45.7674 139.799 45.77 139.831 45.7789C139.863 45.7879 139.892 45.803 139.918 45.8235C139.944 45.8441 139.966 45.8695 139.982 45.8985C139.998 45.9275 140.009 45.9594 140.013 45.9924C140.016 46.0254 140.014 46.0589 140.005 46.0909C139.996 46.1229 139.981 46.1528 139.961 46.179C139.941 46.2052 139.915 46.227 139.887 46.2433Z" fill="#641E21"/>
<path d="M41.2395 16.7345H34.2021C33.6688 16.7345 33.1574 16.5208 32.7803 16.1404C32.4032 15.76 32.1914 15.2441 32.1914 14.7061C32.1914 14.1682 32.4032 13.6522 32.7803 13.2718C33.1574 12.8914 33.6688 12.6777 34.2021 12.6777H41.2395C41.7728 12.6777 42.2842 12.8914 42.6613 13.2718C43.0384 13.6522 43.2502 14.1682 43.2502 14.7061C43.2502 15.2441 43.0384 15.76 42.6613 16.1404C42.2842 16.5208 41.7728 16.7345 41.2395 16.7345Z" fill="#EC933A"/>
<path d="M49.5337 23.5802H34.2021C33.6688 23.5802 33.1574 23.3665 32.7803 22.9861C32.4032 22.6057 32.1914 22.0898 32.1914 21.5518C32.1914 21.0139 32.4032 20.4979 32.7803 20.1175C33.1574 19.7371 33.6688 19.5234 34.2021 19.5234H49.5337C50.0669 19.5234 50.5783 19.7371 50.9554 20.1175C51.3325 20.4979 51.5444 21.0139 51.5444 21.5518C51.5444 22.0898 51.3325 22.6057 50.9554 22.9861C50.5783 23.3665 50.0669 23.5802 49.5337 23.5802Z" fill="#E6E6E6"/>
<path d="M92.367 41.8361H48.8857C48.3524 41.8361 47.841 41.6224 47.4639 41.242C47.0868 40.8616 46.875 40.3457 46.875 39.8077C46.875 39.2697 47.0868 38.7538 47.4639 38.3734C47.841 37.993 48.3524 37.7793 48.8857 37.7793H92.367C92.9002 37.7793 93.4117 37.993 93.7888 38.3734C94.1658 38.7538 94.3777 39.2697 94.3777 39.8077C94.3777 40.3457 94.1658 40.8616 93.7888 41.242C93.4117 41.6224 92.9002 41.8361 92.367 41.8361Z" fill="#EC933A"/>
<path d="M96.3877 49.6955H44.6123C44.079 49.6955 43.5676 49.4818 43.1905 49.1014C42.8134 48.721 42.6016 48.205 42.6016 47.6671C42.6016 47.1291 42.8134 46.6132 43.1905 46.2328C43.5676 45.8524 44.079 45.6387 44.6123 45.6387H96.3877C96.9209 45.6387 97.4324 45.8524 97.8094 46.2328C98.1865 46.6132 98.3984 47.1291 98.3984 47.6671C98.3984 48.205 98.1865 48.721 97.8094 49.1014C97.4324 49.4818 96.9209 49.6955 96.3877 49.6955Z" fill="#E6E6E6"/>
<path d="M96.3877 57.3029H44.6123C44.079 57.3029 43.5676 57.0892 43.1905 56.7088C42.8134 56.3284 42.6016 55.8125 42.6016 55.2745C42.6016 54.7365 42.8134 54.2206 43.1905 53.8402C43.5676 53.4598 44.079 53.2461 44.6123 53.2461H96.3877C96.9209 53.2461 97.4324 53.4598 97.8094 53.8402C98.1865 54.2206 98.3984 54.7365 98.3984 55.2745C98.3984 55.8125 98.1865 56.3284 97.8094 56.7088C97.4324 57.0892 96.9209 57.3029 96.3877 57.3029Z" fill="#E6E6E6"/>
</g>
<defs>
<clipPath id="clip0_5543_7">
<rect width="141" height="125" fill="white"/>
</clipPath>
</defs>
</svg>
