<svg width="44" height="40" viewBox="0 0 44 40" fill="none" xmlns="http://www.w3.org/2000/svg">
<path d="M32.9523 11.91C32.3455 11.8 31.8487 11.455 31.592 10.9617C28.7503 5.51002 22.1632 2.46169 15.5797 3.56502C9.581 4.56502 4.8785 8.91835 3.87567 14.4C3.57867 16.0184 3.60067 17.6384 3.93617 19.2167C4.04617 19.7317 3.80233 20.305 3.30183 20.7184C1.20267 22.4534 0 24.925 0 27.5017C0 32.555 4.52283 36.6684 10.0833 36.6684H30.25C37.8327 36.6684 44 31.0617 44 24.1684C44 18.2267 39.3543 13.07 32.9523 11.91ZM27.7218 22.8467C27.3643 23.1717 26.895 23.335 26.4257 23.335C25.9563 23.335 25.487 23.1717 25.1295 22.8467L22 20.0017V28.335C22 29.2567 21.1787 30.0017 20.1667 30.0017C19.1547 30.0017 18.3333 29.2567 18.3333 28.335V20.0017L15.2038 22.8467C14.487 23.4984 13.3283 23.4984 12.6115 22.8467C11.8947 22.195 11.8947 21.1417 12.6115 20.49L17.5743 15.9784C18.282 15.335 19.2115 15.0117 20.141 15.0067L20.1667 15.0017L20.1923 15.0067C21.1237 15.0117 22.0513 15.335 22.759 15.9784L27.7218 20.49C28.4387 21.1417 28.4387 22.195 27.7218 22.8467Z" fill="#EC933A"/>
</svg>
