<svg width="82" height="74" viewBox="0 0 82 74" fill="none" xmlns="http://www.w3.org/2000/svg">
<path d="M61.4112 22.0337C60.2803 21.8302 59.3543 21.1919 58.876 20.2793C53.5802 10.1937 41.3041 4.55426 29.0348 6.59543C17.8555 8.44543 9.09175 16.4991 7.22283 26.6402C6.66933 29.6341 6.71033 32.6311 7.33558 35.551C7.54058 36.5038 7.08617 37.5644 6.15342 38.3291C2.24133 41.5388 0 46.1114 0 50.8783C0 60.2269 8.42892 67.8366 18.7917 67.8366H56.375C70.5063 67.8366 82 57.4643 82 44.7116C82 33.7195 73.3422 24.1797 61.4112 22.0337ZM51.6634 42.2665C50.9972 42.8678 50.1225 43.1699 49.2478 43.1699C48.3732 43.1699 47.4985 42.8678 46.8322 42.2665L41 37.0033V52.4199C41 54.125 39.4693 55.5033 37.5833 55.5033C35.6973 55.5033 34.1667 54.125 34.1667 52.4199V37.0033L28.3344 42.2665C26.9985 43.4721 24.8392 43.4721 23.5033 42.2665C22.1673 41.0609 22.1673 39.1123 23.5033 37.9067L32.7522 29.5601C34.071 28.3699 35.8032 27.7718 37.5355 27.7625L37.5833 27.7533L37.6312 27.7625C39.3668 27.7718 41.0957 28.3699 42.4145 29.5601L51.6634 37.9067C52.9993 39.1123 52.9993 41.0609 51.6634 42.2665Z" fill="#3A3D3D" fill-opacity="0.5"/>
</svg>
