<svg width="27" height="26" viewBox="0 0 27 26" fill="none" xmlns="http://www.w3.org/2000/svg">
<g clip-path="url(#clip0_1303_9460)">
<path d="M8.4375 14.0833C7.43623 14.0833 6.45745 13.7974 5.62493 13.2618C4.7924 12.7261 4.14353 11.9647 3.76036 11.0739C3.37719 10.1831 3.27694 9.20293 3.47227 8.25727C3.66761 7.31161 4.14977 6.44297 4.85777 5.76119C5.56577 5.07941 6.46783 4.61511 7.44986 4.42701C8.43188 4.2389 9.44978 4.33545 10.3748 4.70442C11.2999 5.0734 12.0905 5.69824 12.6468 6.49993C13.2031 7.30162 13.5 8.24415 13.5 9.20834C13.4985 10.5008 12.9647 11.74 12.0156 12.6539C11.0665 13.5678 9.7797 14.0819 8.4375 14.0833ZM15.75 26H1.125C0.826631 26 0.540483 25.8859 0.329505 25.6827C0.118526 25.4795 0 25.204 0 24.9167V24.375C0 22.2201 0.888948 20.1535 2.47129 18.6298C4.05362 17.106 6.19974 16.25 8.4375 16.25C10.6753 16.25 12.8214 17.106 14.4037 18.6298C15.9861 20.1535 16.875 22.2201 16.875 24.375V24.9167C16.875 25.204 16.7565 25.4795 16.5455 25.6827C16.3345 25.8859 16.0484 26 15.75 26ZM19.6875 9.75C18.6862 9.75 17.7074 9.46409 16.8749 8.92842C16.0424 8.39275 15.3935 7.63137 15.0104 6.74058C14.6272 5.84979 14.5269 4.86959 14.7223 3.92394C14.9176 2.97828 15.3998 2.10964 16.1078 1.42786C16.8158 0.746076 17.7178 0.281777 18.6999 0.093674C19.6819 -0.094429 20.6998 0.00211227 21.6248 0.371089C22.5499 0.740067 23.3405 1.36491 23.8968 2.1666C24.4531 2.96829 24.75 3.91082 24.75 4.875C24.7485 6.16749 24.2147 7.40663 23.2656 8.32056C22.3165 9.23449 21.0297 9.74857 19.6875 9.75ZM18.0889 11.9394C17.0411 12.0748 16.0336 12.4171 15.1296 12.9448C14.2255 13.4725 13.4444 14.1744 12.8351 15.0063C15.3561 16.1088 17.3369 18.1071 18.3634 20.5833H25.875C26.1734 20.5833 26.4595 20.4692 26.6705 20.266C26.8815 20.0629 27 19.7873 27 19.5V19.4588C26.9988 18.379 26.7585 17.3118 26.2949 16.3285C25.8314 15.3452 25.1553 14.4685 24.3119 13.7568C23.4685 13.0451 22.4772 12.5149 21.4041 12.2015C20.3309 11.8881 19.2007 11.7987 18.0889 11.9394Z" fill="white"/>
</g>
<defs>
<clipPath id="clip0_1303_9460">
<rect width="27" height="26" fill="white"/>
</clipPath>
</defs>
</svg>
