<svg width="234" height="146" viewBox="0 0 234 146" fill="none" xmlns="http://www.w3.org/2000/svg">
<path d="M216.833 70.466H65.275C63.2435 70.466 61.5908 68.4956 61.5908 66.0734V4.3923C61.5908 1.97037 63.2435 0 65.275 0H216.833C218.865 0 220.517 1.97037 220.517 4.3923V66.0734C220.517 68.4956 218.865 70.466 216.833 70.466ZM65.275 0.52366C63.4858 0.52366 62.0301 2.25918 62.0301 4.3923V66.0734C62.0301 68.2067 63.4858 69.9423 65.275 69.9423H216.833C218.623 69.9423 220.078 68.2067 220.078 66.0734V4.3923C220.078 2.25918 218.623 0.52366 216.833 0.52366H65.275Z" fill="#3A3D3D"/>
<path d="M233.991 144.338H61.5908V144.6H233.991V144.338Z" fill="#3A3D3D"/>
<path d="M233.991 121.81H61.5908V122.072H233.991V121.81Z" fill="#3A3D3D"/>
<path d="M106.641 72.769C106.809 74.7808 108.035 76.3289 109.379 76.2268C110.723 76.1247 111.676 74.4113 111.507 72.3988C111.452 71.594 111.194 70.8136 110.757 70.1229L109.932 61.6074L105.746 62.0614L107.004 70.408C106.687 71.1561 106.562 71.9657 106.641 72.769Z" fill="#FFB6B6"/>
<path d="M101.64 33.041C101.64 33.041 105.553 31.0675 107.537 34.0167C109.521 36.9659 110.891 68.8623 110.891 68.8623L105.391 69.4217L104.349 46.9452L101.64 33.041Z" fill="#3A3D3D"/>
<path d="M93.5182 120.029L96.7043 120.028L98.2199 108.32L93.5176 108.321L93.5182 120.029Z" fill="#FFB6B6"/>
<path d="M104.434 119.96C104.533 120.119 104.586 120.633 104.586 120.818C104.586 121.387 104.102 121.848 103.504 121.848H93.6375C93.2301 121.848 92.8998 121.533 92.8998 121.145V120.754C92.8998 120.754 92.4117 119.578 93.4166 118.128C93.4166 118.128 94.6656 119.263 96.5319 117.485L97.0822 116.535L101.066 119.311L103.274 119.57C103.757 119.627 104.186 119.561 104.434 119.96Z" fill="#641E20"/>
<path d="M111.955 119.527L115.042 118.775L113.469 107.074L108.913 108.183L111.955 119.527Z" fill="#FFB6B6"/>
<path d="M122.514 116.886C122.651 117.017 122.835 117.503 122.883 117.682C123.031 118.233 122.682 118.794 122.103 118.935L112.543 121.262C112.149 121.358 111.747 121.131 111.646 120.755L111.544 120.375C111.544 120.375 110.766 119.351 111.363 117.709C111.363 117.709 112.868 118.515 114.214 116.352L114.501 115.302L119.082 117.052L121.288 116.782C121.771 116.723 122.169 116.559 122.514 116.886Z" fill="#641E20"/>
<path d="M90.8825 30.5245L90.7314 29.4801L92.5269 25.3025L97.4601 24.7803L98.5252 30.7611L90.8825 30.5245Z" fill="#FFB6B6"/>
<path opacity="0.1" d="M90.8825 30.5245L90.7314 29.4801L92.5269 25.3025L97.4601 24.7803L98.5252 30.7611L90.8825 30.5245Z" fill="black"/>
<path d="M85.1271 60.0292L82.9346 65.7735L84.579 68.9067L92.8009 114.339H98.2671L97.186 74.1288L109.793 114.339H115.203L110.853 87.184L107.6 62.118L105.628 60.9571L96.0897 55.8516L85.1271 60.0292Z" fill="#641E20"/>
<path d="M99.1045 63.9456L95.8157 64.4678L91.4307 54.5459H101.297L99.1045 63.9456Z" fill="#3A3D3D"/>
<path d="M105.682 61.3341L99.1042 63.9452L96.9117 59.2453L95.8154 64.4674L84.3047 60.9372L85.9491 54.5454L84.3047 33.6571L90.1094 29.9703L90.8823 29.4795L98.008 30.0017L98.6328 30.3255L102.941 32.6127L104.037 49.8456L105.682 61.3341Z" fill="#641E20"/>
<path d="M98.6328 30.3255L95.5413 42.7958L90.1094 29.9703L90.8822 29.4795L98.0079 30.0017L98.6328 30.3255Z" fill="#3A3D3D"/>
<path d="M93.3492 29.4795L92.2529 31.2782L93.3492 31.8778L92.8011 42.8282L94.9936 45.6679L97.1861 41.4709L95.5417 31.8778L96.0898 29.4795H93.3492Z" fill="#641E20"/>
<path d="M94.9934 28.4356C97.8693 28.4356 100.201 26.2145 100.201 23.4746C100.201 20.7348 97.8693 18.5137 94.9934 18.5137C92.1175 18.5137 89.7861 20.7348 89.7861 23.4746C89.7861 26.2145 92.1175 28.4356 94.9934 28.4356Z" fill="#FFB6B6"/>
<path d="M91.6654 23.9098L92.7905 24.3776L93.2815 21.5707C93.2815 21.5707 95.2456 20.6351 96.7187 21.1029C98.1918 21.5707 100.647 21.1029 100.647 21.1029C100.647 21.1029 100.647 16.4248 97.2098 16.4248C93.7725 16.4248 90.3353 16.8926 90.3353 18.296C90.3353 19.6995 88.8622 21.1029 88.8622 21.1029C88.8622 21.1029 86.8981 23.9098 88.8622 25.781C90.8263 27.6523 91.8084 27.6523 91.8084 27.6523L91.6654 23.9098Z" fill="#641E20"/>
<path d="M81.5618 72.6221C81.5047 74.6395 82.551 76.3028 83.8987 76.3373C85.2463 76.3717 86.3847 74.7642 86.4415 72.7461C86.4758 71.9402 86.3071 71.1382 85.9494 70.4073L86.078 61.8564L81.8649 61.8845L82.1854 70.3111C81.7868 71.0229 81.5729 71.8154 81.5618 72.6221Z" fill="#FFB6B6"/>
<path d="M86.7739 32.6036C86.7739 32.6036 83.211 31.5592 81.5666 34.6925C79.9222 37.8257 82.1148 69.6803 82.1148 69.6803H87.6457L86.1778 47.2254L86.7739 32.6036Z" fill="#3A3D3D"/>
<path d="M223.448 91.949L210.162 88.074C209.868 87.9883 209.56 87.9571 209.253 87.9819L141.915 93.4417C140.955 93.5196 140.714 94.7533 141.58 95.1554L143.737 96.1565H143.68V144.082H145.712V97.0732L152.472 100.211C152.989 100.451 153.567 100.549 154.139 100.494L154.858 100.425V144.082H156.891V100.229L208.974 95.2169V144.082H211.006V95.0213L219.644 94.19V144.082H221.677V93.9944L223.253 93.8428C224.359 93.7363 224.512 92.2591 223.448 91.949Z" fill="#3F3D56"/>
<path d="M161.464 93.2517C162.734 93.2517 181.535 91.0732 181.535 91.0732L184.329 94.7039L164.767 98.3346L161.464 93.2517Z" fill="white"/>
<path d="M182.097 142.22L178.831 142.215L177.299 130.209L182.12 130.217L182.097 142.22Z" fill="#A0616A"/>
<path d="M170.907 142.131C170.805 142.294 170.75 142.821 170.75 143.011C170.749 143.594 171.244 144.068 171.857 144.069L181.972 144.085C182.39 144.086 182.729 143.764 182.73 143.366L182.731 142.965C182.731 142.965 183.233 141.76 182.206 140.272C182.206 140.272 180.923 141.434 179.013 139.608L178.45 138.633L174.361 141.472L172.097 141.734C171.601 141.791 171.162 141.723 170.907 142.131Z" fill="#641E20"/>
<path d="M199.629 136.637L197.051 138.489L188.327 129.9L192.131 127.167L199.629 136.637Z" fill="#A0616A"/>
<path d="M190.755 142.926C190.777 143.113 191.063 143.559 191.182 143.708C191.546 144.169 192.233 144.26 192.716 143.913L200.697 138.177C201.027 137.941 201.092 137.494 200.844 137.18L200.593 136.864C200.593 136.864 200.234 135.628 198.493 135.04C198.493 135.04 198.21 136.684 195.562 136.331L194.508 135.883L193.064 140.444L191.444 141.937C191.089 142.263 190.701 142.459 190.755 142.926Z" fill="#641E20"/>
<path d="M192.802 74.5896C192.802 77.4592 190.361 79.7856 187.348 79.7856C184.336 79.7856 181.895 77.4592 181.895 74.5896C181.895 71.7199 184.336 69.3936 187.348 69.3936C190.361 69.3936 192.802 71.7199 192.802 74.5896Z" fill="#A0616A"/>
<path d="M192.288 104.548C192.288 104.548 172.207 103.465 171.071 105.631C169.934 107.797 177.216 137.546 177.216 137.546L183.712 136.249L180.543 115.377C180.543 115.377 197.3 119.605 199.573 114.551C201.846 109.498 201.192 107.616 201.192 107.616L192.288 104.548Z" fill="#641E20"/>
<path d="M197.433 100.913C197.433 100.913 177.767 104.93 177.273 107.305C176.778 109.68 192.06 136.534 192.06 136.534L197.965 133.646L189.113 114.316C189.113 114.316 206.447 114.171 207.236 108.724C208.026 103.278 206.872 101.628 206.872 101.628L197.433 100.913Z" fill="#641E20"/>
<path d="M199.677 80.5439H190.228L183.763 90.6509C183.763 90.6509 182.248 97.1824 183.763 97.8873C185.279 98.5921 185.279 106.172 185.279 106.172L201.192 107.616C201.192 107.616 203.465 84.8755 202.708 82.7097C201.95 80.5439 199.677 80.5439 199.677 80.5439Z" fill="#EC933A"/>
<path d="M184.711 87.2227L183.764 97.8881L173.11 93.5803L170.567 92.362C170.069 91.7433 169.423 91.2472 168.682 90.9153C166.841 90.0603 164.886 90.272 164.315 91.3881C163.744 92.5042 164.773 94.1019 166.614 94.9564C167.345 95.3076 168.154 95.4869 168.972 95.4793L176.412 99.5051L176.421 99.4893L176.454 99.5454L188.121 104.188L190.806 90.1867L184.711 87.2227Z" fill="#A0616A"/>
<path d="M183.574 75.3104C183.574 75.3104 177.89 76.0324 180.164 71.3398C180.164 71.3398 179.817 68.796 181.506 68.6241C183.195 68.4521 185.468 65.5644 185.468 65.5644C185.468 65.5644 190.68 63.0377 193.378 65.5644C196.077 68.0912 204.033 82.8907 204.033 82.8907L198.729 88.3051C198.729 88.3051 195.54 80.3184 191.83 81.2436C188.12 82.1687 184.71 84.9271 184.71 84.9271C184.71 84.9271 180.945 83.1321 182.638 81.5675C184.331 80.003 183.574 75.3104 183.574 75.3104Z" fill="#3A3D3D"/>
<path d="M191.152 83.2515C191.152 83.2515 188.5 80.0028 186.605 82.5296C184.711 85.0563 183.195 88.305 183.195 88.305L190.773 90.8317L191.152 83.2515Z" fill="#EC933A"/>
<path d="M219.923 143.363L211.119 116.703L211.12 116.703H211.141L211.105 116.66L211.104 116.659L210.477 114.76L210.478 114.76C211.433 113.975 212.083 112.855 212.213 111.565L208.188 90.4776C208.465 87.7086 206.237 85.2882 203.318 85.1889L194.238 85.1671C191.657 85.08 189.421 86.8566 189.045 89.2916L188.844 90.5841L186.062 108.614C185.961 109.263 186.001 109.902 186.161 110.5L184.159 110.749L183.552 110.826L181.151 111.124L181.144 111.127L180.844 111.163H180.519V118.908H180.539V143.665C180.539 143.825 180.676 143.955 180.844 143.955C181.014 143.955 181.151 143.825 181.151 143.665V118.908H184.713L188.267 143.636C188.29 143.781 188.42 143.888 188.572 143.888C188.585 143.888 188.6 143.888 188.613 143.885C188.781 143.863 188.898 143.716 188.875 143.556L185.333 118.908H202.424C204.121 118.908 205.693 118.395 206.974 117.517L213.75 143.59C213.785 143.722 213.91 143.81 214.046 143.81C214.071 143.81 214.097 143.807 214.122 143.801C214.286 143.761 214.385 143.603 214.343 143.447L207.501 117.121C207.592 117.049 207.683 116.972 207.769 116.892L210.489 116.74L219.339 143.538C219.38 143.662 219.501 143.742 219.631 143.742C219.661 143.742 219.692 143.738 219.723 143.728C219.884 143.68 219.974 143.516 219.923 143.363ZM209.896 115.174C209.919 115.162 209.939 115.147 209.959 115.135L210.025 115.333L209.896 115.174Z" fill="#3A3D3D"/>
<path d="M144.135 63.6553H134.308C133.529 63.6553 132.897 64.2569 132.897 64.9991V68.8603C132.897 69.6025 133.529 70.2042 134.308 70.2042H144.135C144.914 70.2042 145.546 69.6025 145.546 68.8603V64.9991C145.546 64.2569 144.914 63.6553 144.135 63.6553Z" fill="#3F3D56"/>
<path d="M164.757 67.5166H154.93C154.151 67.5166 153.52 68.1182 153.52 68.8604V68.8604C153.52 69.6026 154.151 70.2042 154.93 70.2042H164.757C165.536 70.2042 166.168 69.6026 166.168 68.8604V68.8604C166.168 68.1182 165.536 67.5166 164.757 67.5166Z" fill="#EC933A"/>
</svg>
